<svg width="96" height="98" viewBox="0 0 96 98" fill="none" xmlns="http://www.w3.org/2000/svg">
<rect width="96" height="98" rx="12" fill="#4972A3"/>
<mask id="path-2-inside-1" fill="white">
<path d="M17.1548 67.5512V82.1744C17.1548 82.3982 17.2437 82.6128 17.4019 82.771C17.5602 82.9293 17.7748 83.0182 17.9986 83.0182H32.9319C33.1557 83.0182 33.3703 82.9293 33.5286 82.771C33.6868 82.6128 33.7757 82.3982 33.7757 82.1744V78.3297C33.8751 78.0137 34.0728 77.7377 34.34 77.5419C34.6072 77.3461 34.93 77.2408 35.2613 77.2413H35.268C35.9738 77.2443 36.7893 77.2478 37.5506 77.2516C37.6261 77.3674 37.7288 77.4629 37.8499 77.5297C37.9709 77.5965 38.1065 77.6325 38.2448 77.6345L44.9597 77.7374H44.9953C45.8217 77.7407 46.6156 77.4156 47.2023 76.8336C47.789 76.2516 48.1205 75.4604 48.1238 74.634C48.1271 73.8076 47.802 73.0137 47.22 72.427C46.638 71.8403 45.8468 71.5088 45.0204 71.5055H44.8344V68.0582H48.9247C49.182 68.0582 49.4355 67.9956 49.6633 67.8759C49.8911 67.7562 50.0864 67.5829 50.2323 67.3709C50.3783 67.159 50.4705 66.9147 50.5011 66.6592C50.5317 66.4037 50.4998 66.1445 50.408 65.9041L47.2517 57.6365C47.2497 56.8685 47.2421 54.5568 47.2248 54.2719C46.9765 49.7489 44.9917 45.4963 41.6844 42.401C38.377 39.3057 34.0024 37.6067 29.4729 37.6583C29.321 37.66 29.1699 37.6636 29.0195 37.669C26.2925 37.7645 23.6349 38.5531 21.2972 39.9605C18.9595 41.3678 17.0189 43.3475 15.6584 45.7127C14.2548 48.1062 13.4825 50.817 13.4139 53.5908C13.3454 56.3646 13.9828 59.1103 15.2664 61.5702C15.7584 62.7907 17.0049 66.1131 17.1548 67.5512ZM46.0171 73.6244C46.213 73.8254 46.3453 74.0796 46.3976 74.3554C46.4499 74.6311 46.4198 74.9162 46.311 75.1749C46.2023 75.4337 46.0197 75.6546 45.7862 75.8102C45.5526 75.9659 45.2784 76.0492 44.9977 76.0499H44.9815L39.1131 75.9601L39.1532 73.193H45.0102C45.1983 73.1946 45.3841 73.2335 45.557 73.3076C45.7298 73.3817 45.8862 73.4894 46.0171 73.6244ZM29.491 39.3458C29.551 39.3458 29.6107 39.3447 29.6707 39.3447C33.7356 39.3441 37.6461 40.9012 40.5979 43.6958C43.5497 46.4903 45.3184 50.3098 45.5401 54.3686C45.5512 54.5581 45.5609 56.2754 45.5646 57.7951C45.5648 57.8973 45.5836 57.9986 45.62 58.0941L48.7798 66.3707H43.9907C43.7669 66.3707 43.5523 66.4596 43.3941 66.6178C43.2358 66.7761 43.1469 66.9907 43.1469 67.2145V71.5053H38.3222C38.1006 71.5053 37.8878 71.5925 37.7299 71.7481C37.572 71.9037 37.4817 72.1152 37.4785 72.3369L37.4592 73.6561L33.9668 73.6345C32.7008 73.6227 31.4914 73.1085 30.6045 72.205C29.7177 71.3014 29.2261 70.0826 29.2379 68.8166L29.2519 67.2641C30.6015 67.024 31.8255 66.3219 32.7141 65.2782C33.6027 64.2344 34.1005 62.9141 34.1222 61.5435L34.1308 60.9132C34.1499 59.4918 33.6544 58.1115 32.7356 57.0268C31.8169 55.9421 30.537 55.2261 29.1318 55.011V39.3541C29.2515 39.3502 29.3708 39.3469 29.491 39.3458ZM28.2413 56.631H28.2808C28.8341 56.6362 29.381 56.7505 29.8901 56.9676C30.3991 57.1846 30.8603 57.5001 31.2471 57.8958C31.6339 58.2915 31.9388 58.7597 32.1442 59.2736C32.3496 59.7874 32.4515 60.3368 32.4441 60.8901L32.4355 61.5204C32.4185 62.6244 31.9686 63.6776 31.1827 64.4531C30.3967 65.2286 29.3377 65.6644 28.2335 65.6667H28.194C27.6407 65.6616 27.0938 65.5472 26.5847 65.3302C26.0757 65.1131 25.6145 64.7977 25.2277 64.402C24.8409 64.0062 24.536 63.538 24.3306 63.0242C24.1252 62.5103 24.0233 61.961 24.0308 61.4076L24.0392 60.7771C24.0563 59.6731 24.5063 58.62 25.2922 57.8446C26.0782 57.0691 27.1372 56.6333 28.2413 56.631ZM17.1178 46.5623C18.1977 44.6854 19.6871 43.0765 21.4752 41.8552C23.2632 40.6339 25.3038 39.8319 27.4449 39.5088V54.9989C26.0488 55.1924 24.7679 55.879 23.8339 56.9346C22.8999 57.9901 22.3742 59.345 22.352 60.7543L22.3436 61.3847C22.3238 62.8446 22.847 64.2599 23.8117 65.3559C24.7763 66.4519 26.1137 67.1506 27.5643 67.3164L27.5502 68.801C27.5423 69.6497 27.7017 70.4916 28.0193 71.2786C28.3369 72.0657 28.8064 72.7825 29.401 73.388C29.9956 73.9936 30.7038 74.4761 31.4849 74.8079C32.266 75.1398 33.1049 75.3145 33.9536 75.322L37.4346 75.3434L37.4314 75.5632C36.7066 75.5597 35.9419 75.5563 35.2748 75.5535H35.2607C34.5374 75.5525 33.8345 75.7936 33.2641 76.2384C32.6937 76.6832 32.2886 77.3061 32.1132 78.0078C32.0964 78.0751 32.0879 78.1442 32.0879 78.2136V81.3307H18.8423V67.51C18.8423 67.484 18.841 67.4579 18.8388 67.4319C18.656 65.462 16.8904 61.0859 16.8155 60.9004C16.8054 60.8754 16.794 60.8506 16.7813 60.8266C15.621 58.6161 15.0429 56.1464 15.1016 53.6506C15.1604 51.1547 15.8547 48.7157 17.1178 46.5623Z"/>
</mask>
<path d="M17.1548 67.5512V82.1744C17.1548 82.3982 17.2437 82.6128 17.4019 82.771C17.5602 82.9293 17.7748 83.0182 17.9986 83.0182H32.9319C33.1557 83.0182 33.3703 82.9293 33.5286 82.771C33.6868 82.6128 33.7757 82.3982 33.7757 82.1744V78.3297C33.8751 78.0137 34.0728 77.7377 34.34 77.5419C34.6072 77.3461 34.93 77.2408 35.2613 77.2413H35.268C35.9738 77.2443 36.7893 77.2478 37.5506 77.2516C37.6261 77.3674 37.7288 77.4629 37.8499 77.5297C37.9709 77.5965 38.1065 77.6325 38.2448 77.6345L44.9597 77.7374H44.9953C45.8217 77.7407 46.6156 77.4156 47.2023 76.8336C47.789 76.2516 48.1205 75.4604 48.1238 74.634C48.1271 73.8076 47.802 73.0137 47.22 72.427C46.638 71.8403 45.8468 71.5088 45.0204 71.5055H44.8344V68.0582H48.9247C49.182 68.0582 49.4355 67.9956 49.6633 67.8759C49.8911 67.7562 50.0864 67.5829 50.2323 67.3709C50.3783 67.159 50.4705 66.9147 50.5011 66.6592C50.5317 66.4037 50.4998 66.1445 50.408 65.9041L47.2517 57.6365C47.2497 56.8685 47.2421 54.5568 47.2248 54.2719C46.9765 49.7489 44.9917 45.4963 41.6844 42.401C38.377 39.3057 34.0024 37.6067 29.4729 37.6583C29.321 37.66 29.1699 37.6636 29.0195 37.669C26.2925 37.7645 23.6349 38.5531 21.2972 39.9605C18.9595 41.3678 17.0189 43.3475 15.6584 45.7127C14.2548 48.1062 13.4825 50.817 13.4139 53.5908C13.3454 56.3646 13.9828 59.1103 15.2664 61.5702C15.7584 62.7907 17.0049 66.1131 17.1548 67.5512ZM46.0171 73.6244C46.213 73.8254 46.3453 74.0796 46.3976 74.3554C46.4499 74.6311 46.4198 74.9162 46.311 75.1749C46.2023 75.4337 46.0197 75.6546 45.7862 75.8102C45.5526 75.9659 45.2784 76.0492 44.9977 76.0499H44.9815L39.1131 75.9601L39.1532 73.193H45.0102C45.1983 73.1946 45.3841 73.2335 45.557 73.3076C45.7298 73.3817 45.8862 73.4894 46.0171 73.6244ZM29.491 39.3458C29.551 39.3458 29.6107 39.3447 29.6707 39.3447C33.7356 39.3441 37.6461 40.9012 40.5979 43.6958C43.5497 46.4903 45.3184 50.3098 45.5401 54.3686C45.5512 54.5581 45.5609 56.2754 45.5646 57.7951C45.5648 57.8973 45.5836 57.9986 45.62 58.0941L48.7798 66.3707H43.9907C43.7669 66.3707 43.5523 66.4596 43.3941 66.6178C43.2358 66.7761 43.1469 66.9907 43.1469 67.2145V71.5053H38.3222C38.1006 71.5053 37.8878 71.5925 37.7299 71.7481C37.572 71.9037 37.4817 72.1152 37.4785 72.3369L37.4592 73.6561L33.9668 73.6345C32.7008 73.6227 31.4914 73.1085 30.6045 72.205C29.7177 71.3014 29.2261 70.0826 29.2379 68.8166L29.2519 67.2641C30.6015 67.024 31.8255 66.3219 32.7141 65.2782C33.6027 64.2344 34.1005 62.9141 34.1222 61.5435L34.1308 60.9132C34.1499 59.4918 33.6544 58.1115 32.7356 57.0268C31.8169 55.9421 30.537 55.2261 29.1318 55.011V39.3541C29.2515 39.3502 29.3708 39.3469 29.491 39.3458ZM28.2413 56.631H28.2808C28.8341 56.6362 29.381 56.7505 29.8901 56.9676C30.3991 57.1846 30.8603 57.5001 31.2471 57.8958C31.6339 58.2915 31.9388 58.7597 32.1442 59.2736C32.3496 59.7874 32.4515 60.3368 32.4441 60.8901L32.4355 61.5204C32.4185 62.6244 31.9686 63.6776 31.1827 64.4531C30.3967 65.2286 29.3377 65.6644 28.2335 65.6667H28.194C27.6407 65.6616 27.0938 65.5472 26.5847 65.3302C26.0757 65.1131 25.6145 64.7977 25.2277 64.402C24.8409 64.0062 24.536 63.538 24.3306 63.0242C24.1252 62.5103 24.0233 61.961 24.0308 61.4076L24.0392 60.7771C24.0563 59.6731 24.5063 58.62 25.2922 57.8446C26.0782 57.0691 27.1372 56.6333 28.2413 56.631ZM17.1178 46.5623C18.1977 44.6854 19.6871 43.0765 21.4752 41.8552C23.2632 40.6339 25.3038 39.8319 27.4449 39.5088V54.9989C26.0488 55.1924 24.7679 55.879 23.8339 56.9346C22.8999 57.9901 22.3742 59.345 22.352 60.7543L22.3436 61.3847C22.3238 62.8446 22.847 64.2599 23.8117 65.3559C24.7763 66.4519 26.1137 67.1506 27.5643 67.3164L27.5502 68.801C27.5423 69.6497 27.7017 70.4916 28.0193 71.2786C28.3369 72.0657 28.8064 72.7825 29.401 73.388C29.9956 73.9936 30.7038 74.4761 31.4849 74.8079C32.266 75.1398 33.1049 75.3145 33.9536 75.322L37.4346 75.3434L37.4314 75.5632C36.7066 75.5597 35.9419 75.5563 35.2748 75.5535H35.2607C34.5374 75.5525 33.8345 75.7936 33.2641 76.2384C32.6937 76.6832 32.2886 77.3061 32.1132 78.0078C32.0964 78.0751 32.0879 78.1442 32.0879 78.2136V81.3307H18.8423V67.51C18.8423 67.484 18.841 67.4579 18.8388 67.4319C18.656 65.462 16.8904 61.0859 16.8155 60.9004C16.8054 60.8754 16.794 60.8506 16.7813 60.8266C15.621 58.6161 15.0429 56.1464 15.1016 53.6506C15.1604 51.1547 15.8547 48.7157 17.1178 46.5623Z" fill="white" stroke="white" stroke-width="24" mask="url(#path-2-inside-1)"/>
<mask id="path-3-inside-2" fill="white">
<path d="M66.7645 14.9821C63.6115 14.9818 60.5302 15.9231 57.9158 17.6855C55.3013 19.4479 53.2729 21.951 52.0904 24.8738C50.908 27.7967 50.6255 31.0061 51.2792 34.0906C51.9329 37.1751 53.4929 39.9941 55.7593 42.1861L52.0074 50.6493C51.9347 50.8128 51.9158 50.9952 51.9536 51.1702C51.9914 51.3451 52.0838 51.5035 52.2175 51.6225C52.3512 51.7415 52.5192 51.8148 52.6974 51.832C52.8755 51.8492 53.0545 51.8093 53.2085 51.718L62.6866 46.1091C64.863 46.6891 67.1382 46.7981 69.36 46.4286C71.5819 46.0591 73.6993 45.2198 75.5709 43.9666C77.4425 42.7134 79.025 41.0753 80.2129 39.1616C81.4008 37.2479 82.1666 35.1028 82.4592 32.8695C82.7518 30.6362 82.5645 28.3662 81.9097 26.2111C81.2549 24.056 80.1478 22.0654 78.6622 20.3724C77.1767 18.6793 75.3469 17.3228 73.2952 16.3934C71.2435 15.464 69.0168 14.9823 66.7645 14.9821ZM66.7645 44.9524C65.4241 44.954 64.0904 44.7643 62.8036 44.3891C62.6927 44.3565 62.5763 44.3471 62.4616 44.3615C62.3469 44.3758 62.2364 44.4137 62.1369 44.4726L54.6188 48.9217L57.5458 42.3196C57.618 42.1566 57.6366 41.9748 57.5991 41.8005C57.5615 41.6262 57.4697 41.4682 57.3368 41.3493C54.874 39.1453 53.2611 36.1482 52.7783 32.8787C52.2954 29.6091 52.9731 26.2738 54.6936 23.4519C56.4142 20.6301 59.0688 18.5001 62.1965 17.432C65.3241 16.3638 68.7271 16.425 71.8143 17.605C74.9015 18.7849 77.4778 21.009 79.0958 23.8909C80.7137 26.7728 81.271 30.1304 80.6709 33.3804C80.0707 36.6305 78.3511 39.5676 75.8106 41.6816C73.2702 43.7957 70.0695 44.9528 66.7645 44.9524Z"/>
</mask>
<path d="M66.7645 14.9821C63.6115 14.9818 60.5302 15.9231 57.9158 17.6855C55.3013 19.4479 53.2729 21.951 52.0904 24.8738C50.908 27.7967 50.6255 31.0061 51.2792 34.0906C51.9329 37.1751 53.4929 39.9941 55.7593 42.1861L52.0074 50.6493C51.9347 50.8128 51.9158 50.9952 51.9536 51.1702C51.9914 51.3451 52.0838 51.5035 52.2175 51.6225C52.3512 51.7415 52.5192 51.8148 52.6974 51.832C52.8755 51.8492 53.0545 51.8093 53.2085 51.718L62.6866 46.1091C64.863 46.6891 67.1382 46.7981 69.36 46.4286C71.5819 46.0591 73.6993 45.2198 75.5709 43.9666C77.4425 42.7134 79.025 41.0753 80.2129 39.1616C81.4008 37.2479 82.1666 35.1028 82.4592 32.8695C82.7518 30.6362 82.5645 28.3662 81.9097 26.2111C81.2549 24.056 80.1478 22.0654 78.6622 20.3724C77.1767 18.6793 75.3469 17.3228 73.2952 16.3934C71.2435 15.464 69.0168 14.9823 66.7645 14.9821ZM66.7645 44.9524C65.4241 44.954 64.0904 44.7643 62.8036 44.3891C62.6927 44.3565 62.5763 44.3471 62.4616 44.3615C62.3469 44.3758 62.2364 44.4137 62.1369 44.4726L54.6188 48.9217L57.5458 42.3196C57.618 42.1566 57.6366 41.9748 57.5991 41.8005C57.5615 41.6262 57.4697 41.4682 57.3368 41.3493C54.874 39.1453 53.2611 36.1482 52.7783 32.8787C52.2954 29.6091 52.9731 26.2738 54.6936 23.4519C56.4142 20.6301 59.0688 18.5001 62.1965 17.432C65.3241 16.3638 68.7271 16.425 71.8143 17.605C74.9015 18.7849 77.4778 21.009 79.0958 23.8909C80.7137 26.7728 81.271 30.1304 80.6709 33.3804C80.0707 36.6305 78.3511 39.5676 75.8106 41.6816C73.2702 43.7957 70.0695 44.9528 66.7645 44.9524Z" fill="white"/>
<path d="M66.7645 14.9821L66.7634 23.9821H66.7637L66.7645 14.9821ZM55.7593 42.1861L63.987 45.8335L66.5346 40.0869L62.0162 35.7168L55.7593 42.1861ZM52.0074 50.6493L60.2308 54.3066L60.2352 54.2968L52.0074 50.6493ZM53.2085 51.718L48.6249 43.9727L48.6204 43.9754L53.2085 51.718ZM62.6866 46.1091L65.0044 37.4126L61.3541 36.4398L58.1031 38.3637L62.6866 46.1091ZM66.7645 44.9524L66.7656 35.9524L66.7541 35.9524L66.7645 44.9524ZM62.8036 44.3891L60.2661 53.0239L60.2752 53.0266L60.2844 53.0293L62.8036 44.3891ZM62.1369 44.4726L66.7205 52.218L66.7263 52.2145L62.1369 44.4726ZM54.6188 48.9217L46.3912 45.274L34.9869 70.9975L59.2024 56.6671L54.6188 48.9217ZM57.5458 42.3196L65.7735 45.9673L65.7757 45.9623L57.5458 42.3196ZM57.3368 41.3493L51.3349 48.0559L51.3359 48.0567L57.3368 41.3493ZM66.7656 5.98215C61.8197 5.98154 56.9863 7.45817 52.8852 10.2227L62.9464 25.1483C64.0742 24.388 65.4033 23.982 66.7634 23.9821L66.7656 5.98215ZM52.8852 10.2227C48.784 12.9873 45.6021 16.9137 43.7473 21.4987L60.4336 28.249C60.9436 26.9882 61.8186 25.9085 62.9464 25.1483L52.8852 10.2227ZM43.7473 21.4987C41.8925 26.0836 41.4493 31.1181 42.4747 35.9565L60.0836 32.2248C59.8017 30.8942 59.9235 29.5098 60.4336 28.249L43.7473 21.4987ZM42.4747 35.9565C43.5001 40.7949 45.9472 45.2169 49.5024 48.6553L62.0162 35.7168C61.0385 34.7713 60.3656 33.5553 60.0836 32.2248L42.4747 35.9565ZM47.5315 38.5386L43.7797 47.0018L60.2352 54.2968L63.987 45.8335L47.5315 38.5386ZM43.784 46.992C42.9355 48.8998 42.7157 51.028 43.1562 53.069L60.751 49.2714C61.116 50.9625 60.9338 52.7259 60.2308 54.3066L43.784 46.992ZM43.1562 53.069C43.5967 55.1101 44.6749 56.9581 46.2347 58.3461L58.2003 44.8989C59.4926 46.0489 60.386 47.5801 60.751 49.2714L43.1562 53.069ZM46.2347 58.3461C47.7944 59.734 49.7552 60.5901 51.8337 60.7905L53.5611 42.8736C55.2833 43.0396 56.9079 43.749 58.2003 44.8989L46.2347 58.3461ZM51.8337 60.7905C53.9121 60.9909 56.0003 60.5252 57.7966 59.4607L48.6204 43.9754C50.1087 43.0934 51.839 42.7075 53.5611 42.8736L51.8337 60.7905ZM57.7921 59.4634L67.2702 53.8545L58.1031 38.3637L48.6249 43.9727L57.7921 59.4634ZM60.3688 54.8055C63.7826 55.7153 67.3512 55.8862 70.8363 55.3067L67.8837 37.5505C66.9251 37.7099 65.9434 37.6629 65.0044 37.4126L60.3688 54.8055ZM70.8363 55.3067C74.3214 54.7272 77.6427 53.4106 80.5783 51.4449L70.5635 36.4882C69.756 37.0289 68.8424 37.3911 67.8837 37.5505L70.8363 55.3067ZM80.5783 51.4449C83.514 49.4793 85.9963 46.9098 87.8595 43.9081L72.5663 34.4151C72.0538 35.2408 71.371 35.9475 70.5635 36.4882L80.5783 51.4449ZM87.8595 43.9081C89.7228 40.9064 90.924 37.5417 91.383 34.0387L73.5355 31.7003C73.4093 32.6639 73.0788 33.5894 72.5663 34.4151L87.8595 43.9081ZM91.383 34.0387C91.8419 30.5356 91.5481 26.975 90.521 23.5947L73.2984 28.8275C73.5809 29.7573 73.6617 30.7367 73.5355 31.7003L91.383 34.0387ZM90.521 23.5947C89.4939 20.2143 87.7573 17.092 85.4272 14.4364L71.8972 26.3083C72.5382 27.0388 73.0159 27.8976 73.2984 28.8275L90.521 23.5947ZM85.4272 14.4364C83.097 11.7809 80.227 9.6531 77.0088 8.19532L69.5816 24.5915C70.4668 24.9925 71.2563 25.5778 71.8972 26.3083L85.4272 14.4364ZM77.0088 8.19532C73.7926 6.7384 70.3003 5.98246 66.7652 5.98215L66.7637 23.9821C67.7334 23.9822 68.6945 24.1897 69.5816 24.5915L77.0088 8.19532ZM66.7541 35.9524C66.2698 35.953 65.7879 35.8844 65.3229 35.7489L60.2844 53.0293C62.3929 53.6441 64.5784 53.9549 66.7748 53.9524L66.7541 35.9524ZM65.3412 35.7542C64.0447 35.3732 62.6836 35.2633 61.3427 35.4313L63.5804 53.2916C62.469 53.4309 61.3407 53.3398 60.2661 53.0239L65.3412 35.7542ZM61.3427 35.4313C60.0019 35.5993 58.71 36.0416 57.5475 36.7307L66.7263 52.2145C65.7627 52.7857 64.6919 53.1524 63.5804 53.2916L61.3427 35.4313ZM57.5533 36.7272L50.0352 41.1763L59.2024 56.6671L66.7205 52.218L57.5533 36.7272ZM62.8465 52.5694L65.7735 45.9673L49.3181 38.672L46.3912 45.274L62.8465 52.5694ZM65.7757 45.9623C66.6177 44.0598 66.8353 41.9395 66.3973 39.9057L48.8008 43.6953C48.4379 42.0102 48.6182 40.2534 49.3159 38.677L65.7757 45.9623ZM66.3973 39.9057C65.9593 37.8719 64.8882 36.0291 63.3377 34.6419L51.3359 48.0567C50.0512 46.9073 49.1637 45.3805 48.8008 43.6953L66.3973 39.9057ZM63.3387 34.6428C62.4435 33.8417 61.8572 32.7522 61.6817 31.5638L43.8748 34.1936C44.665 39.5442 47.3046 44.449 51.3349 48.0559L63.3387 34.6428ZM61.6817 31.5638C61.5062 30.3753 61.7525 29.1629 62.3779 28.1372L47.0094 18.7667C44.1937 23.3846 43.0846 28.843 43.8748 34.1936L61.6817 31.5638ZM62.3779 28.1372C63.0033 27.1115 63.9683 26.3372 65.1052 25.949L59.2878 8.91496C54.1694 10.663 49.825 14.1487 47.0094 18.7667L62.3779 28.1372ZM65.1052 25.949C66.242 25.5607 67.479 25.583 68.6012 26.0119L75.0274 9.19807C69.9752 7.26712 64.4062 7.16695 59.2878 8.91496L65.1052 25.949ZM68.6012 26.0119C69.7234 26.4408 70.6598 27.2492 71.248 28.2968L86.9436 19.485C84.2958 14.7688 80.0796 11.129 75.0274 9.19807L68.6012 26.0119ZM71.248 28.2968C71.8361 29.3443 72.0386 30.5648 71.8205 31.7462L89.5213 35.0147C90.5034 29.6959 89.5913 24.2012 86.9436 19.485L71.248 28.2968ZM71.8205 31.7462C71.6024 32.9275 70.9773 33.9952 70.0538 34.7636L81.5674 48.5997C85.7249 45.14 88.5391 40.3334 89.5213 35.0147L71.8205 31.7462ZM70.0538 34.7636C69.1306 35.5319 67.9672 35.9526 66.7656 35.9524L66.7633 53.9524C72.1717 53.9531 77.4098 52.0594 81.5674 48.5997L70.0538 34.7636Z" fill="white" mask="url(#path-3-inside-2)"/>
<path d="M69.6901 23.0063C68.9804 23.1953 68.3066 23.4997 67.6956 23.9073C67.4004 24.0983 67.0928 24.2693 66.7747 24.4191C66.7201 24.3877 66.6622 24.3547 66.6028 24.3206C65.746 23.8258 64.4513 23.0781 63.2899 22.9239C61.9258 22.7437 60.7492 22.9726 59.79 23.6058C58.9333 24.1837 58.3024 25.0397 58.004 26.0291C57.2991 28.2345 58.05 30.652 59.7133 31.5326C60.3321 31.8598 61.003 32.2285 61.1487 32.4638C61.236 32.6044 61.2024 33.0052 61.1559 33.5588C61.1448 33.6886 61.1331 33.8276 61.1217 33.9773C61.0373 35.0902 60.9115 38.879 62.8718 40.9048C63.0351 41.0639 63.2339 41.1818 63.4519 41.2488C63.6897 41.3341 63.9458 41.3559 64.1947 41.312C64.4435 41.268 64.6766 41.1599 64.8709 40.9982C65.0652 40.8365 65.2139 40.627 65.3023 40.3902C65.3908 40.1535 65.4159 39.8978 65.3752 39.6483C65.2528 38.435 65.2557 35.0024 66.6907 33.2555C66.7161 33.2319 66.7495 33.2188 66.7841 33.2188C66.8188 33.2188 66.8521 33.2319 66.8775 33.2555C68.5177 35.3024 68.1975 39.3105 68.1666 39.6525C68.1294 39.9011 68.157 40.155 68.2467 40.3898C68.3364 40.6246 68.4851 40.8323 68.6785 40.9928C68.8719 41.1533 69.1034 41.2612 69.3506 41.3061C69.5979 41.351 69.8526 41.3314 70.0901 41.2491C70.3081 41.1821 70.507 41.0641 70.6703 40.905C72.6305 38.88 72.5054 35.0905 72.4202 33.9775C72.4088 33.8287 72.3973 33.6903 72.3863 33.5611C72.3398 33.007 72.3062 32.6068 72.3936 32.4655C72.539 32.2306 73.211 31.8608 73.8296 31.5324C75.5677 30.6098 76.2977 27.7932 75.3916 25.5051C74.4856 23.217 72.3536 22.2811 69.6901 23.0063ZM73.0384 30.0411C71.8754 30.6582 71.2993 31.0263 70.9588 31.5766C70.578 32.1918 70.6312 32.8251 70.7049 33.7016C70.7153 33.8269 70.7265 33.9612 70.7376 34.1053C70.8642 35.7692 70.6895 37.8518 69.8878 39.167C69.9463 37.715 69.881 34.304 68.1942 32.1993C68.025 31.9908 67.8117 31.8225 67.5696 31.7064C67.3275 31.5903 67.0627 31.5293 66.7943 31.5278C66.5258 31.5263 66.2603 31.5843 66.017 31.6978C65.7737 31.8112 65.5585 31.9771 65.387 32.1837C63.6643 34.2804 63.5957 37.709 63.6544 39.1665C62.8528 37.8513 62.6777 35.7689 62.8048 34.1054C62.816 33.9605 62.8272 33.8256 62.838 33.6997C63.0093 31.6617 62.7255 31.2172 60.5037 30.0407C59.5879 29.5558 59.1714 27.921 59.6121 26.5424C59.8874 25.6809 60.7033 24.2818 63.0681 24.5964C63.8978 24.7062 65.0629 25.3792 65.7591 25.7814C66.0021 25.9221 66.2119 26.043 66.3778 26.1255C67.1776 26.5232 68.3837 27.0241 69.6291 26.7807C69.7387 26.7604 69.8431 26.7185 69.9365 26.6575C70.0298 26.5966 70.1101 26.5177 70.1728 26.4256C70.2354 26.3334 70.2792 26.2297 70.3016 26.1205C70.324 26.0114 70.3245 25.8988 70.3031 25.7894C70.2818 25.68 70.2389 25.576 70.1771 25.4832C70.1153 25.3905 70.0357 25.3109 69.943 25.2491C69.8502 25.1873 69.7462 25.1444 69.6368 25.1231C69.5274 25.1017 69.4148 25.1022 69.3057 25.1246C69.1678 25.1507 69.0275 25.1615 68.8873 25.1568C69.2752 24.9231 69.6951 24.7472 70.1337 24.6345C72.4443 24.0038 73.4153 25.0976 73.8224 26.1251C74.4005 27.5848 74.0121 29.5243 73.0384 30.0411Z" fill="white"/>
</svg>
