<svg width="284" height="285" viewBox="0 0 284 285" fill="none" xmlns="http://www.w3.org/2000/svg">
<path d="M251.08 244.353C245.248 250.464 239.73 254.405 235.371 257.518C184.125 294.117 123.484 283.448 110.597 280.843C91.5669 276.996 54.7804 269.56 28.1894 238.429C-12.0476 191.333 -5.78211 117.133 25.4283 68.1529C31.1368 59.188 61.2934 9.46715 122.585 1.49256C159.678 -3.33404 202.922 6.40056 234.229 32.5089C299.952 87.3202 295.273 198.045 251.08 244.353Z" fill="#D1E6FF"/>
<path d="M227.718 150.763C227.718 150.763 229.311 266.482 204.178 275.441C202.127 276.174 200.326 276.001 198.734 275.385C180.835 268.482 189.514 183.894 165.708 177.746H139.93C114.008 184.235 126.603 284.223 101.463 275.27C99.9854 274.75 98.6292 273.935 97.4776 272.875C97.3948 272.797 97.3058 272.761 97.2229 272.682C76.5092 252.972 77.9233 150.729 77.9233 150.729C56.3182 116.021 61.8704 68.9651 61.8704 68.9651C59.9033 39.8595 95.7456 15.515 116.561 28.2009C129.34 35.9936 143.655 39.2024 152.817 40.5279C160.395 39.4324 171.5 37.0498 182.344 31.8471C184.651 30.7489 186.899 29.5336 189.081 28.2061C209.896 15.5191 245.738 39.8698 243.771 68.9755C243.771 68.9755 249.317 116.057 227.718 150.763Z" fill="white"/>
<path d="M227.72 150.764C227.72 150.764 229.312 266.484 204.18 275.443C202.129 276.175 200.327 276.175 198.735 275.558C218.978 258.576 207.045 170.123 201.148 158.731C195.202 147.237 212.19 126.064 219.194 85.5278C226.199 44.9915 182.346 31.8507 182.346 31.8507C184.652 30.7522 186.901 29.5365 189.082 28.2086C209.898 15.5217 245.74 39.8724 243.773 68.978C243.773 68.978 249.319 116.059 227.72 150.764Z" fill="#77ADEF"/>
<path d="M92.1115 106.563C92.1323 106.577 92.1499 106.596 92.1633 106.617L92.1581 106.627C92.1858 106.672 92.1991 106.726 92.1964 106.779L92.2099 106.849C92.213 106.935 92.2238 107.02 92.242 107.103L92.2492 107.144C92.4894 108.566 93.8249 112.457 95.2515 117.493C95.265 117.534 95.2753 117.581 95.2888 117.622C98.4981 128.921 103.142 145.884 104.541 153.754C104.541 153.754 107.026 154.51 110.879 155.535H110.888C116.457 156.901 124.865 157.907 132.682 155.868C132.682 155.868 136.884 121.719 131.793 92.1036C131.793 92.1036 118.438 88.7967 104.018 87.8921C103.944 87.8921 103.87 87.7828 103.796 87.7777C102.633 87.7137 101.465 87.5714 100.297 87.5714H98.964C98.3656 87.5714 97.2868 88.149 96.0259 88.6802C95.9896 88.6936 95.9151 88.7472 95.9151 88.7658C95.9151 88.7658 95.9058 88.7483 95.9017 88.7483C95.8016 88.8157 95.6979 88.8777 95.5911 88.9339C95.4482 88.9937 95.2991 89.0773 95.1469 89.1516C95.1138 89.1691 95.0776 89.1949 95.0434 89.2093C95.0299 89.2186 95.0113 89.2269 94.9968 89.2361C94.8995 89.2867 94.7981 89.3393 94.6862 89.3898C94.6635 89.3991 94.6448 89.4094 94.6262 89.4187C94.5061 89.4785 94.385 89.5435 94.2597 89.6085C94.2411 89.6178 94.3384 89.6271 94.3208 89.6405C94.1769 89.7147 93.9916 89.7931 93.8435 89.8715C93.6955 89.9499 93.6064 90.0149 93.5971 90.0933L93.5795 89.9736C93.5091 90.0108 93.4356 90.052 93.3663 90.0933C93.3593 90.0944 93.3528 90.0977 93.3476 90.1026C92.5491 90.5617 91.7925 91.0898 91.0866 91.6807C91.0866 91.6807 91.0866 91.69 91.0773 91.6951L91.0452 91.7416C87.8224 97.0928 86.3233 105.849 92.1115 106.563Z" fill="url(#paint0_linear)"/>
<path d="M58.3646 115.421C72.8968 113.89 79.7172 102.734 85.1182 95.6431C92.2492 86.2785 100.121 87.8968 100.121 87.8968L95.3032 108.56C84.5219 125.676 69.1004 126.49 58.7342 124.533C57.8432 121.575 57.716 118.441 58.3646 115.421Z" fill="#4972A3"/>
<path d="M36.5448 112.204L41.832 113.489C48.2745 115.422 53.7169 115.916 58.3705 115.425C57.7219 118.445 57.849 121.579 58.7401 124.537C52.1412 123.292 47.5902 120.927 47.5902 120.927C35.4547 117.404 36.5448 112.204 36.5448 112.204Z" fill="#7D97F4"/>
<path d="M24.5812 122.251C24.602 121.724 24.7414 121.208 24.9891 120.742C25.2367 120.276 25.5863 119.871 26.012 119.557L34.4401 113.348C34.4401 113.348 34.2683 112.11 31.9244 111.843C29.5805 111.576 29.4584 109.072 29.4584 109.072C29.4584 109.072 32.7143 109.64 37.5242 110.634C40.2739 111.204 42.1943 112.969 43.3362 114.375L41.7419 118.177C36.3937 121.417 30.6096 123.27 24.5098 124.114L24.5812 122.251Z" fill="url(#paint1_linear)"/>
<path d="M98.8223 87.7916C98.8729 87.7916 98.9194 87.7916 98.966 87.7916C98.9794 87.7916 98.9887 87.7916 99.0021 87.7823L98.8223 87.7916Z" fill="url(#paint2_linear)"/>
<path d="M95.9004 87.6316L95.9194 87.6411V87.6221C95.9171 87.625 95.9142 87.6274 95.911 87.6291C95.9077 87.6307 95.9041 87.6316 95.9004 87.6316Z" fill="url(#paint3_linear)"/>
<path d="M104.422 248.802C104.422 248.802 105.177 253.057 105.546 257.268C105.579 257.659 105.533 258.052 105.409 258.424C105.286 258.796 105.088 259.14 104.828 259.433C104.567 259.727 104.25 259.965 103.894 260.134C103.539 260.302 103.153 260.397 102.76 260.412C97.1305 260.646 85.0892 261.1 80.769 260.908C80.6182 260.901 80.4714 260.858 80.3408 260.783C80.2101 260.707 80.0994 260.602 80.0178 260.476C79.9362 260.349 79.886 260.205 79.8716 260.055C79.8571 259.906 79.8787 259.755 79.9346 259.615C80.1371 259.112 80.5254 258.706 81.0195 258.48L100.91 249.373L104.422 248.802Z" fill="url(#paint4_linear)"/>
<path d="M105.04 246.305L104.44 251.393C104.44 251.393 100.955 253.009 98.5762 251.187L100.018 245.514L105.04 246.305Z" fill="url(#paint5_linear)"/>
<path d="M104.581 150.623C104.843 151.951 105.986 216.945 99.0133 246.065C98.9565 246.295 98.9839 246.537 99.0906 246.748C99.1973 246.959 99.3763 247.125 99.5951 247.215C100.665 247.651 102.762 248.281 105.275 248.366C105.653 248.377 106.025 248.264 106.332 248.043C106.638 247.822 106.863 247.505 106.969 247.143C108.962 240.386 118.514 206.53 119.759 174.188C121.152 138.05 119.759 172.958 119.759 172.958L118.942 150.619L104.581 150.623Z" fill="#4972A3"/>
<path d="M127.302 251.021C127.302 251.021 128.502 253.168 129.665 258.876C129.715 259.119 129.714 259.37 129.661 259.612C129.607 259.854 129.504 260.083 129.356 260.283C129.209 260.483 129.021 260.649 128.804 260.772C128.588 260.895 128.348 260.971 128.101 260.996C126.237 261.178 123.381 261.408 121.089 261.396C120.839 261.395 120.593 261.342 120.366 261.24C120.138 261.138 119.935 260.989 119.769 260.803C119.604 260.618 119.479 260.399 119.404 260.162C119.329 259.925 119.305 259.675 119.334 259.428C119.589 257.345 120.38 253.926 122.823 251.262L127.302 251.021Z" fill="url(#paint6_linear)"/>
<path d="M128.352 244.481L126.936 252.177C126.936 252.177 125.535 253.214 122.766 252.462L123.442 244.182L128.352 244.481Z" fill="url(#paint7_linear)"/>
<path d="M132.187 152.619C137.889 186.908 130.944 237.367 128.609 247.244C128.54 247.54 128.384 247.809 128.162 248.017C127.94 248.225 127.661 248.363 127.36 248.413C126.316 248.586 124.596 248.723 122.9 248.236C122.615 248.153 122.364 247.983 122.181 247.75C121.998 247.516 121.893 247.232 121.882 246.936C121.571 238.952 122.133 189.934 116.819 170.562C116.55 169.581 115.948 168.723 115.116 168.135L104.803 160.829L104.012 149.022L132.187 152.619Z" fill="#4972A3"/>
<path d="M125.234 108.605L131.79 92.1214C131.79 92.1214 147.753 102.928 150.378 116.629C147.361 116.851 141.873 117.631 136.505 120.335C135.32 113.861 125.234 108.605 125.234 108.605Z" fill="#4972A3"/>
<path d="M113.155 73.8237L118.592 89.4915C118.637 89.6169 118.635 89.7539 118.588 89.8782C118.541 90.0026 118.451 90.1063 118.334 90.1712C116.852 90.9881 111.512 93.3481 105.077 89.2832C104.744 89.0761 104.462 88.7985 104.25 88.4703C104.037 88.1421 103.9 87.7713 103.848 87.3842L102.088 73.8237H113.155Z" fill="url(#paint8_linear)"/>
<path d="M123.813 89.9022L117.324 84.4117L107.617 108.023L114.695 201.847L136.796 202.506C136.874 202.509 136.951 202.495 137.023 202.467C137.095 202.438 137.16 202.395 137.214 202.341C137.269 202.286 137.312 202.221 137.34 202.149C137.369 202.077 137.382 202.001 137.379 201.924L134.293 111.66C134.293 111.66 134.209 92.1549 132.128 91.666C130.047 91.1771 123.813 89.9022 123.813 89.9022Z" fill="#4972A3"/>
<path d="M92.1836 106.629L92.1939 106.781L92.2074 106.852L92.2395 107.105L92.343 107.147L94.2541 125.776V125.785L101.876 203.52C101.894 203.677 101.904 203.815 102.024 203.912C102.078 203.958 102.142 203.992 102.211 204.011C102.28 204.03 102.352 204.034 102.422 204.023L114.377 202.302L110.897 155.645L110.889 155.576L107.201 107.261L103.852 87.8614V87.8521L103.438 84.8609L100.262 87.6768H100.232L99.3208 87.7273L98.946 87.7459C98.3538 87.9026 95.923 88.8165 95.923 88.8165C95.923 88.8165 95.0741 89.1951 94.6672 89.389C94.651 89.3971 94.6355 89.4064 94.6206 89.4168C94.4995 89.4767 94.3867 89.5416 94.2614 89.6056C94.2428 89.6149 94.3804 89.6242 94.3649 89.6386C94.1154 89.7768 93.9146 89.9284 93.9146 90.0904V90.0997L92.4155 106.563L92.2923 106.617L92.1836 106.629Z" fill="#4972A3"/>
<path d="M103.51 108.283V110.579L95.2832 110.07V107.517L103.51 108.283Z" fill="url(#paint9_linear)"/>
<path d="M107.803 113.855C107.764 113.855 107.727 113.843 107.697 113.819C107.667 113.796 107.646 113.763 107.636 113.726C107.627 113.689 107.63 113.65 107.645 113.615C107.661 113.58 107.687 113.552 107.721 113.533L115.103 109.584L116.139 102.652C116.144 102.616 116.161 102.584 116.186 102.558C116.211 102.532 116.243 102.515 116.279 102.509L119.06 102.016L121.907 92.8032C121.921 92.7599 121.951 92.7239 121.992 92.703C122.032 92.6821 122.079 92.6781 122.123 92.6918C122.166 92.7054 122.202 92.7357 122.223 92.776C122.244 92.8162 122.248 92.8631 122.234 92.9063L119.357 102.219C119.348 102.249 119.331 102.277 119.307 102.297C119.284 102.318 119.255 102.332 119.224 102.338L116.46 102.827L115.432 109.722C115.428 109.748 115.418 109.773 115.402 109.795C115.387 109.816 115.367 109.834 115.344 109.847L107.89 113.838C107.863 113.851 107.833 113.857 107.803 113.855Z" fill="white"/>
<path d="M106.031 111.566C106.008 111.567 105.986 111.561 105.966 111.549C105.946 111.538 105.93 111.522 105.919 111.503L101.974 104.613C101.96 104.588 101.955 104.558 101.959 104.529L102.6 100.696L99.4329 99.0167C99.411 99.0051 99.393 98.9875 99.381 98.9659C99.3691 98.9442 99.3637 98.9196 99.3656 98.895L100.174 87.6707C100.177 87.637 100.193 87.6057 100.218 87.5836C100.244 87.5614 100.277 87.5501 100.311 87.5521C100.328 87.5531 100.344 87.5575 100.359 87.5649C100.374 87.5723 100.388 87.5827 100.399 87.5953C100.41 87.608 100.418 87.6227 100.424 87.6387C100.429 87.6546 100.431 87.6715 100.43 87.6882L99.6275 98.828L102.803 100.511C102.826 100.524 102.846 100.544 102.858 100.568C102.869 100.592 102.873 100.619 102.869 100.645L102.221 104.524L106.142 111.373C106.159 111.402 106.164 111.437 106.154 111.47C106.145 111.503 106.124 111.531 106.094 111.548C106.075 111.56 106.053 111.566 106.031 111.566Z" fill="white"/>
<path d="M111.273 123.635C111.273 123.635 129.194 133.727 135.242 125.11C136.497 123.321 136.795 121.542 136.485 119.85C141.857 117.147 147.345 116.365 150.357 116.145C151.148 120.271 150.73 124.668 148.294 129.108C137.701 148.414 108.893 128.041 108.893 128.041L111.273 123.635Z" fill="#4972A3"/>
<path d="M113.417 136.408L103.636 102.37C103.582 102.181 103.473 102.012 103.323 101.885C103.173 101.758 102.989 101.678 102.793 101.655C101.021 101.449 95.8856 100.87 89.9555 100.371C82.8121 99.7695 74.5196 99.2816 69.5606 99.6963C69.398 99.7091 69.241 99.7615 69.1033 99.8488C68.9657 99.936 68.8516 100.056 68.771 100.197C68.6904 100.338 68.6458 100.497 68.641 100.66C68.6363 100.822 68.6716 100.983 68.7438 101.129C71.5618 106.81 83.1548 129.918 88.9596 137.488C89.0541 137.611 89.1761 137.711 89.3161 137.78C89.4561 137.849 89.6101 137.884 89.7661 137.883L112.461 137.677C112.615 137.676 112.767 137.639 112.905 137.57C113.043 137.501 113.162 137.401 113.255 137.278C113.347 137.155 113.41 137.013 113.438 136.862C113.466 136.711 113.459 136.556 113.417 136.408Z" fill="#4F52FF"/>
<path d="M88.9422 97.4229L81.8506 96.2447C81.7642 96.2304 81.6755 96.2386 81.5931 96.2684C81.5108 96.2983 81.4376 96.3488 81.3805 96.415C81.3235 96.4813 81.2846 96.5611 81.2675 96.6468C81.2505 96.7324 81.2559 96.821 81.2833 96.904L81.9852 99.024C82.015 99.1141 82.0696 99.1942 82.1428 99.2549C82.216 99.3156 82.3049 99.3547 82.3993 99.3675L89.2238 100.276C89.3055 100.287 89.3886 100.278 89.4659 100.249C89.5432 100.221 89.6124 100.175 89.6677 100.114C89.723 100.053 89.7626 99.9795 89.7832 99.9001C89.8038 99.8206 89.8048 99.7373 89.786 99.6574L89.3522 97.8066C89.3294 97.7096 89.2783 97.6214 89.2054 97.5531C89.1324 97.4848 89.0409 97.4395 88.9422 97.4229Z" fill="url(#paint10_linear)"/>
<path d="M94.2573 103.402L93.6744 100.372C93.6456 100.224 93.5696 100.089 93.4577 99.9867C93.3458 99.8849 93.204 99.8217 93.0533 99.8065L78.7302 98.3622C78.6184 98.3509 78.5054 98.3664 78.4008 98.4075C78.2963 98.4486 78.2031 98.5141 78.1291 98.5984C78.0551 98.6828 78.0024 98.7835 77.9755 98.8923C77.9486 99.0011 77.9483 99.1147 77.9745 99.2236L78.8855 103.002C78.9209 103.15 79.0031 103.281 79.12 103.378C79.2368 103.475 79.3819 103.531 79.5336 103.539L93.5305 104.24C93.6377 104.246 93.7447 104.227 93.8434 104.185C93.9421 104.143 94.0298 104.079 94.0999 103.998C94.17 103.917 94.2207 103.822 94.248 103.718C94.2752 103.615 94.2784 103.507 94.2573 103.402Z" fill="url(#paint11_linear)"/>
<path d="M111.055 128.182C111.055 128.182 112.417 122.599 111.867 120.619C111.318 118.639 110.253 116.093 106.703 116.658C103.153 117.224 98.9668 118.714 98.9668 118.714C98.9668 118.714 99.1738 121.293 101.876 120.461L100.203 121.751C100.203 121.751 100.442 123.813 102.721 122.713L101.168 124.423C101.168 124.423 102.147 126.12 103.823 125.032C105.499 123.943 106.301 128.854 111.055 128.182Z" fill="#FEDBBA"/>
<path d="M128.138 128.59C122.714 128.59 115.818 125.975 115.446 125.832C115.352 125.8 112.985 124.982 112.091 123.244C112.081 123.224 112.075 123.202 112.073 123.18C112.071 123.157 112.074 123.135 112.08 123.113C112.087 123.092 112.098 123.072 112.113 123.055C112.127 123.038 112.145 123.024 112.165 123.014C112.185 123.004 112.207 122.998 112.229 122.996C112.252 122.994 112.274 122.996 112.296 123.003C112.317 123.01 112.337 123.021 112.354 123.036C112.371 123.05 112.385 123.068 112.396 123.088C113.224 124.704 115.54 125.503 115.562 125.51C115.688 125.558 127.502 130.041 132.302 127.415C132.342 127.394 132.389 127.389 132.432 127.401C132.476 127.414 132.513 127.444 132.535 127.483C132.546 127.503 132.553 127.525 132.555 127.547C132.557 127.569 132.555 127.592 132.549 127.613C132.543 127.635 132.532 127.655 132.518 127.672C132.504 127.69 132.486 127.704 132.466 127.715C131.312 128.347 129.793 128.59 128.138 128.59Z" fill="white"/>
<path d="M134.599 137.439H134.593C120.847 137.098 112.994 130.744 112.917 130.68C112.9 130.669 112.885 130.655 112.874 130.638C112.863 130.621 112.857 130.602 112.854 130.582C112.852 130.563 112.854 130.542 112.861 130.524C112.868 130.505 112.879 130.488 112.893 130.473C112.908 130.457 112.927 130.444 112.947 130.435C112.967 130.426 112.989 130.42 113.012 130.42C113.034 130.419 113.057 130.423 113.078 130.431C113.099 130.439 113.118 130.451 113.134 130.466C113.211 130.529 120.982 136.758 134.606 137.226C134.7 137.226 134.774 137.243 134.77 137.338C134.766 137.433 134.692 137.439 134.599 137.439Z" fill="white"/>
<path d="M98.7991 58.9746C98.7991 58.9746 96.1757 68.4774 96.5867 73.2087C96.9977 77.94 96.421 81.1323 102.006 81.3005C107.592 81.4686 111.792 78.1102 113.608 73.0787C113.608 73.0787 116.468 65.317 115.17 62.4908C113.872 59.6646 98.7991 58.9746 98.7991 58.9746Z" fill="url(#paint12_linear)"/>
<path d="M121.052 59.5014C119.862 58.7639 119.085 59.0187 118.635 59.39C118.579 59.4379 118.509 59.4678 118.435 59.4761C118.362 59.4843 118.287 59.4705 118.221 59.4364C118.209 59.2962 117.306 49.5829 104.016 51.2879C103.342 51.3737 102.657 51.2577 102.049 50.9549C101.44 50.6521 100.936 50.176 100.6 49.5871C99.0283 46.83 96.0446 42.7794 93.797 46.7371C90.5949 52.371 89.6456 59.7634 98.7135 61.2951C99.2509 61.3859 99.7923 61.4581 100.336 61.5159C104.079 62.4359 108.344 62.7258 109.925 63.1229C112.565 63.7861 110.546 69.9057 110.546 69.9057L111.234 69.8026L112.702 69.5963C112.915 69.5654 113.123 69.8026 113.14 70.0202L113.481 74.2007C113.488 74.2904 113.525 74.375 113.587 74.4409C113.648 74.5068 113.73 74.5501 113.819 74.5638C114.49 74.637 116.231 74.571 118.909 72.6143C121.526 70.701 120.27 69.7263 119.469 69.358C119.416 69.3327 119.371 69.2953 119.336 69.2489C119.301 69.2026 119.277 69.1486 119.267 69.0914C119.257 69.0343 119.26 68.9755 119.278 68.92C119.295 68.8645 119.325 68.8138 119.365 68.7722C122.94 64.9021 123.119 60.7846 121.052 59.5014Z" fill="url(#paint13_linear)"/>
<path d="M111.211 70.8652C111.211 70.8652 111.882 64.9384 114.683 66.1741C117.485 67.4098 114.269 72.7672 112.232 73.2757L111.211 70.8652Z" fill="#FEDFBA"/>
<path d="M96.3637 59.5084C96.4108 59.5021 96.4536 59.4777 96.4828 59.4403C96.5132 59.402 96.5271 59.3532 96.5215 59.3047C96.5158 59.2561 96.4911 59.2118 96.4528 59.1814C94.5427 57.6765 93.4929 55.9354 93.3345 54.0086C93.0571 50.6564 95.5904 47.8364 95.6121 47.8085C95.6301 47.791 95.6443 47.7699 95.6538 47.7467C95.6634 47.7234 95.6681 47.6985 95.6676 47.6734C95.6672 47.6483 95.6616 47.6236 95.6512 47.6007C95.6408 47.5778 95.6259 47.5573 95.6073 47.5404C95.5887 47.5235 95.5668 47.5105 95.543 47.5023C95.5192 47.4941 95.4939 47.4908 95.4688 47.4926C95.4437 47.4944 95.4192 47.5014 95.3969 47.5129C95.3745 47.5245 95.3547 47.5405 95.3388 47.56C95.2291 47.6796 92.673 50.5223 92.9577 54.0354C93.1254 56.0705 94.2217 57.8983 96.2157 59.4702C96.2361 59.4869 96.2599 59.4989 96.2855 59.5055C96.3111 59.5121 96.3378 59.5131 96.3637 59.5084Z" fill="#BDD0FB"/>
<path d="M182.729 43.2304L129.424 28.6353L131.224 22.5549L185.17 37.149L182.729 43.2304Z" fill="#6D86E0"/>
<path d="M186.289 263.638C186.289 265.082 185.195 266.253 183.847 266.253C182.502 266.253 181.406 265.082 181.406 263.638V51.8342C181.406 50.3901 182.498 49.2184 183.847 49.2184C185.193 49.2184 186.289 50.3901 186.289 51.8342V263.638Z" fill="#6D86E0"/>
<path d="M105.92 145.804C105.092 145.044 104.111 144.467 103.041 144.112C101.972 143.758 100.84 143.633 99.7191 143.748L36.6325 150.113C35.4761 150.23 33.918 151.201 33.918 152.358V153.531C33.918 154.173 34.8715 154.784 35.3518 155.213C35.8322 155.642 36.8126 155.846 37.4534 155.775L94.9123 149.441C95.6805 149.358 96.4576 149.442 97.1903 149.686C97.923 149.931 98.5939 150.33 99.1569 150.857C99.7097 151.382 100.14 152.02 100.417 152.728C100.695 153.437 100.813 154.197 100.763 154.955L99.1807 175.88C100.983 179.593 103.257 179.5 105.035 178.527C105.926 178.041 106.672 177.33 107.199 176.465C107.726 175.6 108.015 174.612 108.038 173.6L108.479 151.794C108.502 150.672 108.286 149.558 107.845 148.526C107.404 147.493 106.748 146.565 105.92 145.804Z" fill="url(#paint14_linear)"/>
<path d="M58.6152 216.169L108.668 252.663L129.901 230.9L79.7131 208.711L58.6152 216.169Z" fill="url(#paint15_linear)"/>
<path d="M152.397 184.083L42.2112 181.852C42.2112 181.852 41.3023 204.465 44.4992 212.746C47.6961 221.026 76.1714 223.576 83.5291 212.746C87.6298 206.708 94.5248 201.858 99.8129 198.749C104.133 196.207 108.956 195.078 113.955 195.504L166.585 200.006V194.911L152.397 184.083Z" fill="url(#paint16_linear)"/>
<path d="M74.4098 201.54C75.7188 196.427 72.6198 191.225 67.4878 189.921C62.3559 188.616 57.1344 191.704 55.8254 196.817C54.5163 201.93 57.6153 207.132 62.7473 208.437C67.8792 209.741 73.1007 206.653 74.4098 201.54Z" fill="#91B3FA"/>
<path d="M68.3708 206.916C72.6391 205.155 74.6659 200.279 72.898 196.027C71.13 191.774 66.2367 189.755 61.9685 191.516C57.7003 193.278 55.6734 198.153 57.4414 202.406C59.2093 206.658 64.1026 208.677 68.3708 206.916Z" fill="#7D97F4"/>
<path d="M216.118 206.697C215.124 204.694 174.04 182.229 160.811 175.031C158.142 173.579 155.156 172.802 152.115 172.768L61.6814 171.606C60.5175 171.591 59.3774 171.275 58.3722 170.69C57.3671 170.106 56.5312 169.271 55.946 168.269L25.9012 116.776L17.8375 87.6554C17.2598 85.5672 15.8822 83.7886 14.0013 82.7023C12.1205 81.616 9.88665 81.3089 7.7808 81.8473L6.94223 82.0618C4.836 82.5997 3.02597 83.94 1.90177 85.7943C0.777579 87.6486 0.429126 89.8685 0.931423 91.9762L7.14308 118.05L39.4364 182.789C39.9823 183.883 40.8177 184.808 41.8526 185.464C42.8874 186.12 44.0823 186.482 45.3085 186.511L145.021 188.874C147.696 188.935 150.326 189.568 152.734 190.731L203.366 215.222C205.034 216.028 206.904 216.328 208.741 216.084C210.579 215.84 212.305 215.063 213.702 213.849C215.866 211.972 217.499 209.48 216.118 206.697Z" fill="url(#paint17_linear)"/>
<path d="M186.961 273.03H186.93C186.273 273.03 185.643 273.201 185.183 272.734C184.722 272.267 184.47 271.851 184.484 271.196C184.691 260.764 175.712 247.556 168.162 238.17C162.351 230.95 153.564 226.927 144.273 226.927H136.802C131.848 226.927 126.967 228.045 122.584 230.338L39.6489 273.227C39.2979 273.41 38.9076 273.03 38.5101 273.03H21.692C18.6028 273.03 16.1016 276.066 16.1016 279.143C16.1016 281.694 18.1721 284.301 20.7365 284.301H187.923C190.483 284.301 192.559 281.694 192.559 279.143C192.556 276.066 190.056 273.03 186.961 273.03Z" fill="#09015D"/>
<path d="M184.245 31.9088H183.534C181.175 31.9088 179.262 33.8146 179.262 36.1656V55.3157C179.262 57.6667 181.175 59.5725 183.534 59.5725H184.245C186.604 59.5725 188.517 57.6667 188.517 55.3157V36.1656C188.517 33.8146 186.604 31.9088 184.245 31.9088Z" fill="url(#paint18_linear)"/>
<path d="M183.215 129.24H182.505C180.145 129.24 178.232 131.146 178.232 133.497V152.647C178.232 154.998 180.145 156.904 182.505 156.904H183.215C185.575 156.904 187.488 154.998 187.488 152.647V133.497C187.488 131.146 185.575 129.24 183.215 129.24Z" fill="url(#paint19_linear)"/>
<path d="M144.136 46.0425C145.697 49.0698 144.78 52.6438 142.258 53.9332C139.735 55.2245 136.287 53.8878 134.726 50.8594L114.718 12.0611C113.157 9.0338 114.073 5.45981 116.596 4.17048C119.119 2.8791 122.566 4.21587 124.128 7.24423L144.136 46.0425Z" fill="url(#paint20_linear)"/>
<path d="M114.128 10.4905L113.376 13.2826C113.006 14.7449 113.173 16.2906 113.848 17.6405L129.08 49.7931C130.203 52.1263 132.57 54.1119 135.167 54.1119H136.343L114.128 10.4905Z" fill="url(#paint21_linear)"/>
<path d="M205.427 184.27C205.361 184.291 141.654 158.4 134.552 156.824C133.358 156.559 111.943 153.775 111.943 153.775L107.932 168.846L138.552 170.413C144.971 181.552 175.511 181.7 186.238 182.078C186.496 182.087 186.749 182.149 186.982 182.259C187.214 182.369 187.422 182.526 187.592 182.719C187.762 182.912 187.89 183.138 187.969 183.383C188.047 183.628 188.075 183.886 188.05 184.141L187.586 188.848C195.187 189.818 202.237 188.745 208.753 185.712L205.427 184.27Z" fill="url(#paint22_linear)"/>
<path d="M187.934 186.227C187.934 186.227 186.704 188.043 187.296 189.941C187.579 190.848 188.49 191.416 189.442 191.375C193.676 191.194 207.538 190.458 212.632 188.459C212.727 188.421 212.811 188.358 212.874 188.278C212.938 188.198 212.979 188.102 212.995 188.001C213.01 187.9 212.999 187.796 212.962 187.701C212.926 187.605 212.865 187.521 212.785 187.456C211.822 186.666 209.636 185.29 205.228 184.223L205.739 184.468C205.883 184.532 206.002 184.641 206.077 184.779C206.153 184.916 206.182 185.075 206.159 185.23C206.136 185.385 206.063 185.529 205.951 185.639C205.84 185.75 205.695 185.821 205.539 185.842C201.556 186.443 193.259 187.432 187.934 186.227Z" fill="#816049"/>
<path d="M203.926 194.261C203.86 194.274 191.652 188.881 191.585 188.898C168.498 171.485 143.332 161.673 136.447 159.341C135.289 158.949 134.233 158.372 131.996 158.638L106.762 155.306L109.708 174.815L134.739 172.443C139.908 184.201 174.458 188.478 185.084 190.01C185.34 190.046 185.585 190.134 185.804 190.269C186.024 190.404 186.213 190.582 186.361 190.792C186.509 191.002 186.612 191.241 186.664 191.492C186.716 191.744 186.715 192.004 186.662 192.255L185.69 196.884C193.144 198.668 200.267 198.364 207.075 196.047L203.926 194.261Z" fill="url(#paint23_linear)"/>
<path d="M186.324 194.315C186.324 194.315 184.905 195.988 185.289 197.938C185.472 198.867 186.316 199.533 187.267 199.595C191.496 199.87 205.355 200.634 210.633 199.196C210.732 199.168 210.822 199.114 210.894 199.041C210.966 198.968 211.017 198.878 211.044 198.779C211.07 198.68 211.07 198.575 211.044 198.476C211.018 198.377 210.966 198.287 210.894 198.214C210.022 197.324 207.995 195.723 203.736 194.19L204.219 194.488C204.353 194.569 204.457 194.69 204.517 194.834C204.576 194.978 204.587 195.138 204.547 195.289C204.508 195.44 204.421 195.574 204.299 195.672C204.177 195.769 204.026 195.824 203.87 195.83C199.844 195.998 191.487 196.093 186.324 194.315Z" fill="url(#paint24_linear)"/>
<path d="M45.1054 151.041C45.1054 151.041 40.2634 166.704 47.089 174.661C50.4091 178.531 62.3075 176.355 71.8321 176.105C97.8175 175.412 109.964 175.606 115.624 175.666C115.846 175.668 116.064 175.615 116.261 175.514C116.457 175.412 116.626 175.265 116.753 175.084C116.879 174.902 116.959 174.693 116.986 174.474C117.013 174.255 116.986 174.033 116.907 173.827C114.648 167.741 115.768 160.644 117.261 154.676C117.309 154.481 117.313 154.279 117.273 154.082C117.233 153.886 117.149 153.701 117.029 153.541C116.908 153.38 116.754 153.249 116.576 153.155C116.398 153.062 116.202 153.008 116.001 153C105.545 152.513 59.4222 144.732 57.7565 142.126C55.6517 138.834 45.1054 151.041 45.1054 151.041Z" fill="#E9605A"/>
<path d="M19.4935 85.0441C19.4935 85.0441 10.8541 84.1746 12.2249 94.1292C12.4723 95.9312 8.64694 97.9312 9.69775 101.193C10.2413 102.877 9.65116 104.7 8.17175 105.676C4.48824 108.113 -0.6695 112.985 1.54599 120.296C3.23452 125.876 6.83728 126.625 9.96796 126.015C12.2683 125.566 14.5708 126.934 15.1195 129.204C15.6454 131.381 17.3143 133.408 21.6252 133.631C31.2863 134.128 32.6446 116.799 32.6446 116.799L23.0642 92.057L19.4935 85.0441Z" fill="url(#paint25_linear)"/>
<path d="M57.5707 139.101C57.5707 139.101 58.1069 126.22 57.316 118.792C57.1031 116.813 56.419 114.914 55.3206 113.251C54.2221 111.589 52.7411 110.213 51.0008 109.236C44.5552 105.612 36.7575 102.944 35.717 102.355C34.1217 101.462 26.618 108.79 26.618 108.79C26.618 108.79 21.0762 132.719 31.0324 154.63L39.5672 150.347C39.5672 150.347 37.154 140.12 36.9883 132.297C36.9883 132.297 39.7836 151.499 43.024 155.298L57.5707 139.101Z" fill="url(#paint26_linear)"/>
<path d="M72.8603 129.259L62.4733 128.647L58.148 135.845C58.148 135.845 52.3504 143.462 47.4287 146.167L42.507 148.872L31.0352 154.627L33.4339 159.859C33.7304 160.505 34.2303 161.037 34.8577 161.374C35.4851 161.711 36.2058 161.835 36.9103 161.727C38.1972 161.534 39.6673 161.265 40.4779 160.965C42.1343 160.354 67.3805 135.369 67.3805 135.369L72.8603 129.259Z" fill="#FEDBBA"/>
<path d="M23.0306 94.7344L27.0796 109.032C29.4069 110.763 34.6547 105.822 34.2675 103.823C34.2219 103.62 34.1394 103.428 34.0242 103.255L30.9639 94.0433C30.4991 93.3048 26.8094 92.8643 25.9687 93.1036L22.9115 93.9814C21.7344 94.3135 24.9459 91.1583 23.0306 94.7344Z" fill="url(#paint27_linear)"/>
<path d="M25.7104 80.9261C25.7104 80.9261 30.043 82.1639 33.564 87.7647C37.085 93.3655 35.324 96.3557 32.7358 97.0478C30.1476 97.7399 26.2135 98.1546 21.589 94.8199C16.9644 91.4852 20.1013 79.513 25.7104 80.9261Z" fill="url(#paint28_linear)"/>
<path d="M24.0075 91.3201C24.0075 91.3201 19.8467 83.0097 27.5616 81.9793L29.5338 83.0272C29.5338 83.0272 31.7865 77.8699 26.8545 76.1319C21.9224 74.3939 16.7088 76.9447 15.481 83.4295C14.2531 89.9143 14.4229 94.136 18.0795 96.7291C21.7361 99.3222 22.6844 95.7709 22.6844 95.7709C22.6844 95.7709 20.5517 93.1922 21.1015 91.6079C21.6512 90.0236 23.554 91.6265 23.554 91.6265L24.0075 91.3201Z" fill="url(#paint29_linear)"/>
<path d="M23.2566 92.394C23.2566 92.394 21.1425 88.1086 19.2594 90.1419C17.3762 92.1753 21.4645 94.0704 23.0454 94.6532L23.2566 92.394Z" fill="url(#paint30_linear)"/>
<path d="M28.4668 111.671C32.0602 118.604 36.7283 123.705 43.412 125.37L56.9348 111.671C49.2675 109.141 43.5456 105.719 40.2037 101.206L28.4668 111.671Z" fill="white"/>
<defs>
<linearGradient id="paint0_linear" x1="134.317" y1="122.305" x2="88.1971" y2="122.305" gradientUnits="userSpaceOnUse">
<stop stop-color="white"/>
<stop offset="0.338542" stop-color="#EFF1F7"/>
<stop offset="0.427083" stop-color="#96B5F0"/>
<stop offset="1" stop-color="#CFD7E8"/>
</linearGradient>
<linearGradient id="paint1_linear" x1="9.2507" y1="100.851" x2="94.6148" y2="166.682" gradientUnits="userSpaceOnUse">
<stop stop-color="#FEBBBA"/>
<stop offset="1" stop-color="#FF928E"/>
</linearGradient>
<linearGradient id="paint2_linear" x1="-291.883" y1="99.9497" x2="-291.57" y2="99.9497" gradientUnits="userSpaceOnUse">
<stop stop-color="#09005D"/>
<stop offset="1" stop-color="#1A0F91"/>
</linearGradient>
<linearGradient id="paint3_linear" x1="55.2829" y1="112.341" x2="55.279" y2="112.347" gradientUnits="userSpaceOnUse">
<stop stop-color="#53EAC9"/>
<stop offset="1" stop-color="#45AED8"/>
</linearGradient>
<linearGradient id="paint4_linear" x1="-51348" y1="34396.7" x2="-57624" y2="48827.6" gradientUnits="userSpaceOnUse">
<stop stop-color="#09005D"/>
<stop offset="1" stop-color="#1A0F91"/>
</linearGradient>
<linearGradient id="paint5_linear" x1="14143.1" y1="18995.3" x2="13739" y2="18995.3" gradientUnits="userSpaceOnUse">
<stop stop-color="#FEBBBA"/>
<stop offset="1" stop-color="#FF928E"/>
</linearGradient>
<linearGradient id="paint6_linear" x1="-22297.5" y1="27901.8" x2="-29597.3" y2="35844.6" gradientUnits="userSpaceOnUse">
<stop stop-color="#09005D"/>
<stop offset="1" stop-color="#1A0F91"/>
</linearGradient>
<linearGradient id="paint7_linear" x1="13419" y1="24739.3" x2="13117.6" y2="24739.3" gradientUnits="userSpaceOnUse">
<stop stop-color="#FEBBBA"/>
<stop offset="1" stop-color="#FF928E"/>
</linearGradient>
<linearGradient id="paint8_linear" x1="41442.6" y1="24598.9" x2="40146.5" y2="23960.5" gradientUnits="userSpaceOnUse">
<stop stop-color="#FEDBBA"/>
<stop offset="1" stop-color="#FEDBBA"/>
</linearGradient>
<linearGradient id="paint9_linear" x1="104.682" y1="112.967" x2="75.4701" y2="91.8698" gradientUnits="userSpaceOnUse">
<stop stop-color="#9CFFFB"/>
<stop offset="1" stop-color="#9BFFFA"/>
</linearGradient>
<linearGradient id="paint10_linear" x1="11161.7" y1="4122.58" x2="11170.1" y2="5024.19" gradientUnits="userSpaceOnUse">
<stop stop-color="#4F52FF"/>
<stop offset="1" stop-color="#4042E2"/>
</linearGradient>
<linearGradient id="paint11_linear" x1="21325" y1="5956.6" x2="21334.4" y2="7268.61" gradientUnits="userSpaceOnUse">
<stop stop-color="#4F52FF"/>
<stop offset="1" stop-color="#4042E2"/>
</linearGradient>
<linearGradient id="paint12_linear" x1="121434" y1="15849.1" x2="126420" y2="18168.5" gradientUnits="userSpaceOnUse">
<stop stop-color="#FEDFBA"/>
<stop offset="1" stop-color="#FF928E"/>
</linearGradient>
<linearGradient id="paint13_linear" x1="99261.1" y1="22425.2" x2="112956" y2="36245.3" gradientUnits="userSpaceOnUse">
<stop stop-color="#09005D"/>
<stop offset="1" stop-color="#1A0F91"/>
</linearGradient>
<linearGradient id="paint14_linear" x1="141353" y1="27822.4" x2="133886" y2="54910.9" gradientUnits="userSpaceOnUse">
<stop stop-color="#09005D"/>
<stop offset="1" stop-color="#1A0F91"/>
</linearGradient>
<linearGradient id="paint15_linear" x1="109485" y1="102215" x2="126559" y2="44851.3" gradientUnits="userSpaceOnUse">
<stop stop-color="#09005D"/>
<stop offset="1" stop-color="#1A0F91"/>
</linearGradient>
<linearGradient id="paint16_linear" x1="243806" y1="54881.4" x2="238660" y2="85980.7" gradientUnits="userSpaceOnUse">
<stop stop-color="#09005D"/>
<stop offset="1" stop-color="#1A0F91"/>
</linearGradient>
<linearGradient id="paint17_linear" x1="139487" y1="177123" x2="329711" y2="471561" gradientUnits="userSpaceOnUse">
<stop stop-color="#09015D"/>
<stop offset="1" stop-color="#4042E2"/>
</linearGradient>
<linearGradient id="paint18_linear" x1="27883.2" y1="473.425" x2="21656.2" y2="2964.84" gradientUnits="userSpaceOnUse">
<stop stop-color="#09005D"/>
<stop offset="1" stop-color="#1A0F91"/>
</linearGradient>
<linearGradient id="paint19_linear" x1="32126.1" y1="11177.8" x2="25899.1" y2="13669.3" gradientUnits="userSpaceOnUse">
<stop stop-color="#09005D"/>
<stop offset="1" stop-color="#1A0F91"/>
</linearGradient>
<linearGradient id="paint20_linear" x1="92295.9" y1="21471.1" x2="95105.4" y2="20022.4" gradientUnits="userSpaceOnUse">
<stop stop-color="#1A0F91"/>
<stop offset="1" stop-color="#4042E2"/>
</linearGradient>
<linearGradient id="paint21_linear" x1="184.435" y1="9.27439" x2="134.437" y2="28.8673" gradientUnits="userSpaceOnUse">
<stop stop-color="#FF928E"/>
<stop offset="1" stop-color="#E9605A"/>
</linearGradient>
<linearGradient id="paint22_linear" x1="158.342" y1="153.775" x2="158.342" y2="189.195" gradientUnits="userSpaceOnUse">
<stop stop-color="#F1C1A0"/>
<stop offset="1" stop-color="#FEDBBA"/>
</linearGradient>
<linearGradient id="paint23_linear" x1="1.55862e+06" y1="-1.32246e+06" x2="1.54261e+06" y2="-1.42146e+06" gradientUnits="userSpaceOnUse">
<stop stop-color="#FEDBBA"/>
<stop offset="1" stop-color="#FF928E"/>
</linearGradient>
<linearGradient id="paint24_linear" x1="217166" y1="-61459" x2="217577" y2="-57904.7" gradientUnits="userSpaceOnUse">
<stop stop-color="#725644"/>
<stop offset="1" stop-color="#6C503D"/>
</linearGradient>
<linearGradient id="paint25_linear" x1="16.8282" y1="85.0249" x2="16.8282" y2="133.641" gradientUnits="userSpaceOnUse">
<stop stop-color="#886F5F"/>
<stop offset="0.723958" stop-color="#6C503D"/>
</linearGradient>
<linearGradient id="paint26_linear" x1="33882.1" y1="33450.7" x2="28374.7" y2="56527.2" gradientUnits="userSpaceOnUse">
<stop stop-color="#FF928E"/>
<stop offset="1" stop-color="#FE7062"/>
</linearGradient>
<linearGradient id="paint27_linear" x1="121955" y1="-89315.5" x2="119767" y2="-91115.6" gradientUnits="userSpaceOnUse">
<stop stop-color="#FEDFBA"/>
<stop offset="1" stop-color="#FEDBBA"/>
</linearGradient>
<linearGradient id="paint28_linear" x1="140381" y1="-103598" x2="135870" y2="-109577" gradientUnits="userSpaceOnUse">
<stop stop-color="#FEDFBA"/>
<stop offset="1" stop-color="#FEDFBA"/>
</linearGradient>
<linearGradient id="paint29_linear" x1="126656" y1="-137602" x2="124246" y2="-131949" gradientUnits="userSpaceOnUse">
<stop stop-color="#6F5341"/>
<stop offset="1" stop-color="#806755"/>
</linearGradient>
<linearGradient id="paint30_linear" x1="37758.8" y1="-30098.3" x2="36357.5" y2="-31811.6" gradientUnits="userSpaceOnUse">
<stop stop-color="#FDDEB9"/>
<stop offset="1" stop-color="#F1BD8D"/>
</linearGradient>
</defs>
</svg>
