<svg width="96" height="98" viewBox="0 0 96 98" fill="none" xmlns="http://www.w3.org/2000/svg">
<rect width="96" height="98" rx="12" fill="#4972A3"/>
<path d="M79.0852 17.493H61.2511C60.7912 16.535 60.07 15.7265 59.1706 15.1606C58.2712 14.5947 57.2301 14.2944 56.1675 14.2944C55.1049 14.2944 54.0639 14.5947 53.1644 15.1606C52.265 15.7265 51.5438 16.535 51.0839 17.493H33.2497C32.3195 17.4941 31.4277 17.8641 30.77 18.5218C30.1122 19.1796 29.7422 20.0714 29.7411 21.0016V51.9896C29.5839 51.9849 29.4268 51.9793 29.269 51.9793C25.2998 51.9795 21.4747 53.4676 18.5489 56.1499C15.6231 58.8322 13.8091 62.5139 13.4649 66.4682C13.4261 66.9221 13.4063 67.3844 13.4063 67.842C13.4033 70.2871 13.967 72.6996 15.053 74.8904C16.139 77.0811 17.7178 78.9904 19.6656 80.4685C22.5396 82.6557 26.0745 83.7955 29.6849 83.6992C33.2952 83.6029 36.7643 82.2763 39.5177 79.9391H79.0852C80.0154 79.938 80.9072 79.5681 81.5649 78.9103C82.2227 78.2526 82.5927 77.3608 82.5938 76.4306V21.0016C82.5927 20.0714 82.2227 19.1796 81.565 18.5218C80.9072 17.864 80.0154 17.494 79.0852 17.493ZM56.1675 15.9827C57.2155 15.9839 58.2203 16.4007 58.9613 17.1418C59.7024 17.8829 60.1192 18.8876 60.1203 19.9357V22.3342C60.1203 22.5579 60.2092 22.7725 60.3675 22.9308C60.5257 23.089 60.7403 23.1779 60.9641 23.1779H68.9145V27.8859H43.4206V23.1779H51.3708C51.5946 23.1779 51.8092 23.089 51.9674 22.9308C52.1256 22.7725 52.2145 22.5579 52.2145 22.3342V19.9357C52.2157 18.8876 52.6326 17.8829 53.3737 17.1418C54.1147 16.4007 55.1195 15.9839 56.1675 15.9827ZM70.602 28.7296V26.5197H74.2373C74.3668 26.5198 74.491 26.5713 74.5826 26.6629C74.6742 26.7545 74.7258 26.8787 74.7259 27.0082V63.2556H70.4643C69.5341 63.2566 68.6423 63.6266 67.9845 64.2844C67.3268 64.9422 66.9568 65.834 66.9558 66.7642V70.9126H44.8324C45.4567 67.7449 45.0996 64.4621 43.8089 61.5026C42.5182 58.5432 40.3552 56.048 37.6089 54.3503V27.0082C37.6091 26.8787 37.6606 26.7545 37.7522 26.6629C37.8439 26.5713 37.9681 26.5198 38.0976 26.5197H41.7331V28.7296C41.7331 28.9534 41.822 29.168 41.9802 29.3263C42.1384 29.4845 42.353 29.5734 42.5768 29.5734H69.7582C69.982 29.5734 70.1966 29.4845 70.3548 29.3263C70.5131 29.168 70.602 28.9534 70.602 28.7296ZM73.5656 64.9431L68.6438 69.865V66.7642C68.6443 66.2814 68.8363 65.8185 69.1777 65.4771C69.5191 65.1357 69.9819 64.9437 70.4647 64.9431H73.5656ZM31.4286 21.0016C31.4292 20.5188 31.6213 20.0559 31.9627 19.7145C32.3041 19.3732 32.7669 19.1811 33.2497 19.1805H50.5791C50.5449 19.4308 50.5275 19.6831 50.527 19.9357V21.4904H42.5768C42.466 21.4904 42.3563 21.5122 42.2539 21.5546C42.1516 21.597 42.0585 21.6592 41.9802 21.7375C41.9018 21.8159 41.8397 21.9089 41.7973 22.0113C41.7549 22.1136 41.7331 22.2234 41.7331 22.3342V24.8322H38.0976C37.5207 24.8328 36.9676 25.0623 36.5596 25.4703C36.1516 25.8782 35.9221 26.4313 35.9214 27.0082V53.4383C35.5455 53.2642 35.1611 53.1043 34.7683 52.9586C33.6889 52.5599 32.569 52.2807 31.4288 52.126L31.4286 21.0016ZM20.6881 79.126C18.947 77.8054 17.5358 76.0991 16.5651 74.1413C15.5945 72.1834 15.0908 70.0272 15.0938 67.842C15.0938 67.4323 15.1115 67.0187 15.1462 66.6125C15.419 63.4799 16.7257 60.5269 18.8606 58.2183C20.9956 55.9097 23.8375 54.3765 26.9392 53.8599C30.041 53.3434 33.2264 53.8728 35.9943 55.365C38.7621 56.8571 40.9553 59.2273 42.2286 62.1024C43.5019 64.9775 43.7831 68.1944 43.0279 71.2468C42.2727 74.2992 40.524 77.0139 38.0569 78.9636C35.5899 80.9133 32.5446 81.9873 29.4003 82.0167C26.256 82.0461 23.1912 81.0292 20.6881 79.126ZM80.9063 76.4306C80.9057 76.9134 80.7136 77.3763 80.3722 77.7176C80.0308 78.059 79.568 78.251 79.0852 78.2516H41.2289C42.6647 76.6063 43.7452 74.6823 44.4028 72.6H67.2836C67.3911 72.5992 67.4985 72.5914 67.605 72.5767C67.7533 72.6124 67.9087 72.607 68.0541 72.5609C68.1996 72.5148 68.3298 72.4298 68.4304 72.3151C68.6441 72.201 68.8397 72.0559 69.0108 71.8844L75.6978 65.1975C75.9254 64.9712 76.1059 64.7021 76.2287 64.4056C76.3516 64.1091 76.4143 63.7911 76.4134 63.4702V27.0082C76.4128 26.4313 76.1833 25.8782 75.7753 25.4703C75.3673 25.0623 74.8142 24.8328 74.2373 24.8322H70.602V22.3342C70.602 22.1104 70.5131 21.8958 70.3548 21.7375C70.1966 21.5793 69.982 21.4904 69.7582 21.4904H61.8078V19.9357C61.8074 19.6831 61.79 19.4308 61.7558 19.1805H79.0852C79.568 19.1811 80.0308 19.3732 80.3722 19.7145C80.7136 20.0559 80.9057 20.5188 80.9063 21.0016V76.4306Z" fill="white"/>
<path d="M68.7563 36.3042C68.5326 36.3042 68.318 36.3931 68.1597 36.5513C68.0015 36.7096 67.9126 36.9242 67.9126 37.148C67.9126 37.3717 68.0015 37.5864 68.1597 37.7446C68.318 37.9028 68.5326 37.9917 68.7563 37.9917H69.7579C69.9816 37.9917 70.1963 37.9028 70.3545 37.7446C70.5127 37.5864 70.6016 37.3717 70.6016 37.148C70.6016 36.9242 70.5127 36.7096 70.3545 36.5513C70.1963 36.3931 69.9816 36.3042 69.7579 36.3042H68.7563Z" fill="white"/>
<path d="M50.9514 37.9917H65.6368C65.8605 37.9917 66.0751 37.9028 66.2334 37.7446C66.3916 37.5864 66.4805 37.3717 66.4805 37.148C66.4805 36.9242 66.3916 36.7096 66.2334 36.5513C66.0751 36.3931 65.8605 36.3042 65.6368 36.3042H50.9514C50.7276 36.3042 50.513 36.3931 50.3548 36.5513C50.1966 36.7096 50.1077 36.9242 50.1077 37.148C50.1077 37.3717 50.1966 37.5864 50.3548 37.7446C50.513 37.9028 50.7276 37.9917 50.9514 37.9917Z" fill="white"/>
<path d="M42.5769 37.9917H47.7686C47.9924 37.9917 48.207 37.9028 48.3653 37.7446C48.5235 37.5864 48.6124 37.3717 48.6124 37.148C48.6124 36.9242 48.5235 36.7096 48.3653 36.5513C48.207 36.3931 47.9924 36.3042 47.7686 36.3042H42.5769C42.3531 36.3042 42.1385 36.3931 41.9803 36.5513C41.822 36.7096 41.7332 36.9242 41.7332 37.148C41.7332 37.3717 41.822 37.5864 41.9803 37.7446C42.1385 37.9028 42.3531 37.9917 42.5769 37.9917Z" fill="white"/>
<path d="M69.7576 43.4886H66.9504C66.7267 43.4886 66.5121 43.5775 66.3538 43.7358C66.1956 43.894 66.1067 44.1086 66.1067 44.3324C66.1067 44.5562 66.1956 44.7708 66.3538 44.929C66.5121 45.0873 66.7267 45.1761 66.9504 45.1761H69.7576C69.9814 45.1761 70.196 45.0873 70.3542 44.929C70.5125 44.7708 70.6013 44.5562 70.6013 44.3324C70.6013 44.1086 70.5125 43.894 70.3542 43.7358C70.196 43.5775 69.9814 43.4886 69.7576 43.4886Z" fill="white"/>
<path d="M60.0864 43.4886C59.8626 43.4886 59.648 43.5775 59.4898 43.7358C59.3316 43.894 59.2427 44.1086 59.2427 44.3324C59.2427 44.5562 59.3316 44.7708 59.4898 44.929C59.648 45.0873 59.8626 45.1761 60.0864 45.1761H63.9114C64.1352 45.1761 64.3498 45.0873 64.508 44.929C64.6663 44.7708 64.7552 44.5562 64.7552 44.3324C64.7552 44.1086 64.6663 43.894 64.508 43.7358C64.3498 43.5775 64.1352 43.4886 63.9114 43.4886H60.0864Z" fill="white"/>
<path d="M42.5769 45.1761H57.4148C57.6386 45.1761 57.8532 45.0873 58.0114 44.929C58.1697 44.7708 58.2586 44.5562 58.2586 44.3324C58.2586 44.1086 58.1697 43.894 58.0114 43.7358C57.8532 43.5775 57.6386 43.4886 57.4148 43.4886H42.5769C42.3531 43.4886 42.1385 43.5775 41.9803 43.7358C41.822 43.894 41.7332 44.1086 41.7332 44.3324C41.7332 44.5562 41.822 44.7708 41.9803 44.929C42.1385 45.0873 42.3531 45.1761 42.5769 45.1761Z" fill="white"/>
<path d="M69.7583 51.1206H63.7922C63.5685 51.1206 63.3539 51.2095 63.1956 51.3678C63.0374 51.526 62.9485 51.7406 62.9485 51.9644C62.9485 52.1881 63.0374 52.4028 63.1956 52.561C63.3539 52.7192 63.5685 52.8081 63.7922 52.8081H69.758C69.9817 52.8081 70.1964 52.7192 70.3546 52.561C70.5128 52.4028 70.6017 52.1881 70.6017 51.9644C70.6017 51.7406 70.5128 51.526 70.3546 51.3678C70.1964 51.2095 69.9817 51.1206 69.758 51.1206H69.7583Z" fill="white"/>
<path d="M61.5969 51.9644C61.5969 51.7406 61.508 51.526 61.3497 51.3678C61.1915 51.2095 60.9769 51.1206 60.7531 51.1206H42.5769C42.3531 51.1206 42.1385 51.2095 41.9803 51.3678C41.822 51.526 41.7332 51.7406 41.7332 51.9644C41.7332 52.1881 41.822 52.4028 41.9803 52.561C42.1385 52.7192 42.3531 52.8081 42.5769 52.8081H60.7531C60.9769 52.8081 61.1915 52.7192 61.3497 52.561C61.508 52.4028 61.5969 52.1881 61.5969 51.9644Z" fill="white"/>
<path d="M69.7578 58.1747H52.928C52.7042 58.1747 52.4896 58.2635 52.3314 58.4218C52.1731 58.58 52.0842 58.7946 52.0842 59.0184C52.0842 59.2422 52.1731 59.4568 52.3314 59.615C52.4896 59.7733 52.7042 59.8622 52.928 59.8622H69.7578C69.9816 59.8622 70.1962 59.7733 70.3545 59.615C70.5127 59.4568 70.6016 59.2422 70.6016 59.0184C70.6016 58.7946 70.5127 58.58 70.3545 58.4218C70.1962 58.2635 69.9816 58.1747 69.7578 58.1747Z" fill="white"/>
<path d="M49.889 58.1747H45.3079C45.0841 58.1747 44.8695 58.2635 44.7112 58.4218C44.553 58.58 44.4641 58.7946 44.4641 59.0184C44.4641 59.2422 44.553 59.4568 44.7112 59.615C44.8695 59.7733 45.0841 59.8622 45.3079 59.8622H49.889C50.1128 59.8622 50.3274 59.7733 50.4856 59.615C50.6439 59.4568 50.7328 59.2422 50.7328 59.0184C50.7328 58.7946 50.6439 58.58 50.4856 58.4218C50.3274 58.2635 50.1128 58.1747 49.889 58.1747Z" fill="white"/>
<path d="M39.0024 59.8113C38.4608 58.7285 36.7652 56.3276 32.7191 57.4305C31.9044 57.6479 31.1309 57.9975 30.4295 58.4654C30.06 58.705 29.6735 58.9173 29.2731 59.1006C29.1914 59.054 29.1031 59.003 29.0101 58.9493C28.0201 58.3776 26.524 57.5135 25.1968 57.3374C22.4785 56.9772 20.2928 58.1266 19.3481 60.4122C18.3934 62.7215 18.9577 65.5324 20.633 66.8116C20.783 66.9263 20.9423 67.0285 21.1091 67.1171C22.0502 67.6152 22.6674 67.9791 22.8374 68.2537C22.9585 68.4493 22.9322 68.8341 22.8664 69.6167C22.8537 69.768 22.8401 69.9298 22.8267 70.1039C22.7283 71.3877 22.5827 75.7571 24.8292 78.0774C25.0045 78.2471 25.2176 78.3727 25.4509 78.4438C25.6165 78.5008 25.7905 78.5299 25.9656 78.5299C26.1915 78.5324 26.4152 78.4855 26.621 78.3923C26.8268 78.2991 27.0097 78.162 27.1568 77.9906C27.304 77.8191 27.4118 77.6176 27.4727 77.4C27.5335 77.1825 27.546 76.9542 27.5093 76.7313C27.4741 76.3467 27.0857 71.5825 29.0743 69.1619C29.1027 69.1329 29.1367 69.1098 29.1742 69.0942C29.2116 69.0785 29.2519 69.0704 29.2925 69.0706C29.3331 69.0707 29.3733 69.0789 29.4107 69.0948C29.4481 69.1107 29.4819 69.134 29.5102 69.1632C31.4649 71.6017 31.0787 76.3498 31.044 76.7316C31.0004 76.9985 31.0272 77.2723 31.1219 77.5256C31.2165 77.779 31.3757 78.0033 31.5837 78.1763C31.7916 78.3493 32.0411 78.4649 32.3075 78.5119C32.5739 78.5588 32.8479 78.5353 33.1025 78.4438C33.3359 78.3727 33.549 78.247 33.7242 78.0772C35.9704 75.7569 35.8247 71.3877 35.7265 70.1038C35.7133 69.9304 35.6997 69.7693 35.687 69.6188C35.6213 68.8358 35.5951 68.4506 35.716 68.2547C35.8859 67.9804 36.5035 67.6156 37.4448 67.1157C37.6123 67.0264 37.7718 66.9229 37.9215 66.8063C39.6778 65.4422 40.1827 62.173 39.0024 59.8113ZM36.8865 65.475C36.8136 65.5319 36.7358 65.5825 36.6541 65.626C33.9988 67.0355 33.8197 67.5427 34.0058 69.7604C34.0182 69.9069 34.0314 70.0639 34.0444 70.2327C34.2085 72.3793 33.9421 75.12 32.7453 76.6364C32.8319 75.4196 32.9967 70.8145 30.8273 68.1078C30.643 67.8809 30.4107 67.6977 30.1471 67.5713C29.8835 67.4449 29.5952 67.3786 29.3029 67.3769C29.0106 67.3753 28.7216 67.4385 28.4566 67.5619C28.1917 67.6853 27.9574 67.8659 27.7705 68.0908C25.5563 70.7861 25.7209 75.4142 25.8081 76.6362C24.6113 75.1196 24.3456 72.3792 24.5093 70.2326C24.5224 70.063 24.5356 69.9054 24.5478 69.7581C24.7346 67.5394 24.5553 67.0321 21.8985 65.6256C21.8138 65.5805 21.7329 65.5285 21.6567 65.4702C20.5964 64.6605 20.2531 62.6396 20.9075 61.057C21.286 60.1415 22.3177 58.6579 24.9749 59.0105C25.9701 59.1424 27.3449 59.9363 28.1663 60.4107C28.4475 60.5732 28.6906 60.7136 28.8805 60.8079C29.7946 61.2627 31.1738 61.8363 32.584 61.5603C32.8019 61.5156 32.9933 61.3867 33.1167 61.2017C33.2401 61.0166 33.2854 60.7903 33.2427 60.572C33.2001 60.3537 33.073 60.161 32.8891 60.036C32.7051 59.9109 32.4792 59.8635 32.2606 59.9041C31.9485 59.9604 31.6288 59.9591 31.3172 59.9003L31.3186 59.8995C31.8816 59.5172 32.5051 59.233 33.1628 59.0587C35.7644 58.3492 36.9535 59.4867 37.4926 60.5656C38.3139 62.2084 38.019 64.5944 36.8865 65.475Z" fill="white"/>
</svg>
