<svg width="96" height="98" viewBox="0 0 96 98" fill="none" xmlns="http://www.w3.org/2000/svg">
<rect width="96" height="98" rx="12" fill="#4972A3"/>
<path d="M71.4077 15.1797H43.2827C42.3134 15.1808 41.384 15.5663 40.6986 16.2518C40.0131 16.9372 39.6276 17.8666 39.6265 18.8359V34.0209L26.668 44.3401C26.6412 44.3614 26.6157 44.3843 26.5917 44.4089C25.5391 45.4754 24.9505 46.9146 24.954 48.413V71.0269H23.186C22.5895 71.0276 22.0176 71.2649 21.5958 71.6867C21.174 72.1085 20.9367 72.6804 20.936 73.2769V80.5703C20.9367 81.1668 21.174 81.7387 21.5958 82.1606C22.0176 82.5824 22.5895 82.8196 23.186 82.8203H46.5516C47.1481 82.8197 47.72 82.5824 48.1419 82.1606C48.5637 81.7388 48.8009 81.1669 48.8016 80.5703V73.2769C48.8009 72.6804 48.5636 72.1085 48.1418 71.6867C47.72 71.2649 47.1481 71.0276 46.5516 71.0269H45.636V69.1189C46.9895 68.915 48.2251 68.2327 49.1187 67.1958C50.0122 66.1588 50.5044 64.8359 50.5061 63.4671V59.8984H71.4077C72.3771 59.8974 73.3065 59.5118 73.9919 58.8264C74.6774 58.1409 75.0629 57.2116 75.064 56.2422V18.8359C75.0629 17.8666 74.6774 16.9372 73.9919 16.2518C73.3065 15.5663 72.3771 15.1808 71.4077 15.1797ZM47.1141 73.2769V80.5703C47.1141 80.7195 47.0548 80.8626 46.9493 80.9681C46.8438 81.0735 46.7008 81.1328 46.5516 81.1328H23.186C23.0369 81.1328 22.8938 81.0735 22.7883 80.9681C22.6828 80.8626 22.6235 80.7195 22.6235 80.5703V73.2769C22.6235 73.1278 22.6828 72.9847 22.7883 72.8792C22.8938 72.7737 23.0369 72.7144 23.186 72.7144H46.5516C46.7008 72.7144 46.8438 72.7737 46.9493 72.8792C47.0548 72.9847 47.1141 73.1278 47.1141 73.2769ZM48.8186 63.4671C48.8174 64.5346 48.3929 65.5581 47.638 66.3129C46.8832 67.0678 45.8597 67.4924 44.7922 67.4936C44.5684 67.4936 44.3538 67.5825 44.1956 67.7407C44.0374 67.899 43.9485 68.1136 43.9485 68.3373V71.0269H26.6415V48.413C26.639 47.3741 27.0406 46.3748 27.7614 45.6265L39.6265 36.178V45.2429L32.0711 51.2254C31.9838 51.294 31.9109 51.3792 31.8566 51.4761C31.8022 51.5729 31.7676 51.6796 31.7545 51.7899C31.7415 51.9002 31.7504 52.012 31.7807 52.1188C31.811 52.2257 31.862 52.3255 31.931 52.4126C31.9999 52.4996 32.0854 52.5723 32.1824 52.6262C32.2795 52.6802 32.3863 52.7145 32.4966 52.7271C32.607 52.7397 32.7187 52.7304 32.8255 52.6998C32.9322 52.6691 33.0318 52.6177 33.1187 52.5484L44.2262 43.7533L44.556 44.0829C45.0819 44.6101 45.3773 45.3245 45.3773 46.0692C45.3773 46.8139 45.0819 47.5282 44.556 48.0554L39.3901 53.2211C39.2436 53.3676 39.1561 53.5628 39.1443 53.7696L39.079 54.8958C39.0782 54.9122 39.0778 54.9285 39.0778 54.9446C39.0831 55.7865 39.2752 56.6167 39.6403 57.3753C40.0573 58.2706 40.2377 59.2579 40.1641 60.2427C40.0904 61.2276 39.7653 62.1771 39.2198 63.0003C39.1274 63.1389 39.078 63.3018 39.0781 63.4683V65.9035C39.0781 66.1273 39.167 66.3419 39.3252 66.5002C39.4834 66.6584 39.698 66.7473 39.9218 66.7473C40.1456 66.7473 40.3602 66.6584 40.5184 66.5002C40.6767 66.3419 40.7656 66.1273 40.7656 65.9035V63.714C41.5204 62.4811 41.9008 61.0555 41.8605 59.6104C42.3105 59.801 42.7943 59.899 43.283 59.8984H48.8186V63.4671ZM45.533 49.4648L45.7493 49.2485C46.5913 48.4046 47.0642 47.2612 47.0642 46.0691C47.0642 44.877 46.5913 43.7336 45.7493 42.8897L45.5329 42.6733V21.5078H69.1579V50.7578H45.5329L45.533 49.4648ZM73.3768 56.2422C73.3762 56.7642 73.1686 57.2646 72.7995 57.6337C72.4304 58.0028 71.93 58.2104 71.408 58.2109H43.283C42.7611 58.2104 42.2606 58.0028 41.8915 57.6337C41.5224 57.2646 41.3148 56.7642 41.3143 56.2422V53.6835L43.8455 51.1523V51.6016C43.8455 51.8253 43.9344 52.04 44.0927 52.1982C44.2509 52.3564 44.4655 52.4453 44.6893 52.4453H70.0018C70.2255 52.4453 70.4402 52.3564 70.5984 52.1982C70.7566 52.04 70.8455 51.8253 70.8455 51.6016V20.6641C70.8455 20.4403 70.7566 20.2257 70.5984 20.0674C70.4402 19.9092 70.2255 19.8203 70.0018 19.8203H44.6893C44.4655 19.8203 44.2509 19.9092 44.0927 20.0674C43.9344 20.2257 43.8455 20.4403 43.8455 20.6641V41.9133C43.8188 41.9287 43.7929 41.9455 43.768 41.9637L41.3143 43.9067V18.8359C41.3149 18.314 41.5225 17.8136 41.8916 17.4445C42.2607 17.0754 42.7611 16.8678 43.283 16.8672H71.408C71.93 16.8678 72.4304 17.0754 72.7995 17.4445C73.1686 17.8136 73.3762 18.314 73.3768 18.8359V56.2422Z" fill="white"/>
<path d="M58.8535 54.1328H55.8369C55.6131 54.1328 55.3985 54.2217 55.2403 54.3799C55.0821 54.5382 54.9932 54.7528 54.9932 54.9766C54.9932 55.2003 55.0821 55.415 55.2403 55.5732C55.3985 55.7314 55.6131 55.8203 55.8369 55.8203H58.8535C59.0772 55.8203 59.2919 55.7314 59.4501 55.5732C59.6083 55.415 59.6972 55.2003 59.6972 54.9766C59.6972 54.7528 59.6083 54.5382 59.4501 54.3799C59.2919 54.2217 59.0772 54.1328 58.8535 54.1328Z" fill="white"/>
<path d="M63.0825 29.8372C62.1646 29.374 61.0703 29.3108 59.831 29.6483C59.2094 29.8139 58.6193 30.0805 58.0843 30.4375C57.8511 30.5878 57.6091 30.724 57.3596 30.8453L57.2648 30.7906C56.5195 30.3605 55.3938 29.7102 54.3719 29.5747C52.6116 29.3419 50.4597 29.9417 49.6974 32.3267C49.0743 34.2766 49.7452 36.4178 51.225 37.2012C51.5725 37.3853 52.2956 37.768 52.4146 37.9605C52.4691 38.0489 52.4373 38.4284 52.4034 38.8302C52.394 38.9427 52.384 39.0623 52.3741 39.1914C52.2999 40.1618 52.1912 43.4638 53.9118 45.2408C54.0652 45.3915 54.2523 45.5034 54.4577 45.5671C54.681 45.6468 54.9211 45.6671 55.1546 45.626C55.3881 45.5849 55.6069 45.4837 55.7895 45.3325C55.9721 45.1812 56.1122 44.9851 56.1961 44.7634C56.28 44.5416 56.3047 44.3018 56.268 44.0676C56.2398 43.7594 55.9736 40.3775 57.362 38.6676C58.7261 40.3905 58.4618 43.7602 58.4343 44.0676C58.3975 44.3018 58.4223 44.5416 58.5063 44.7634C58.5902 44.9851 58.7303 45.1812 58.9129 45.3324C59.0955 45.4837 59.3144 45.5848 59.5479 45.6259C59.7814 45.667 60.0216 45.6467 60.2448 45.567C60.4499 45.5034 60.6367 45.3918 60.7899 45.2414C62.5104 43.4636 62.4022 40.1612 62.328 39.1914C62.3182 39.063 62.3082 38.9437 62.2989 38.8321C62.2649 38.4301 62.2331 38.05 62.2878 37.9618C62.4065 37.7697 63.1302 37.3853 63.4779 37.2012C65.1871 36.294 65.5873 33.6626 64.8762 31.8685C64.5512 30.9922 63.9119 30.2681 63.0825 29.8372ZM62.6868 35.7094C60.7367 36.7444 60.4659 37.1712 60.6173 38.9719C60.6262 39.0795 60.6359 39.1947 60.6455 39.3184C60.7733 40.9919 60.524 42.273 60.161 43.1258C60.164 41.6865 59.9589 39.208 58.667 37.5962C58.5105 37.4032 58.3131 37.2474 58.0891 37.1399C57.865 37.0324 57.6199 36.9759 57.3715 36.9746C57.123 36.9733 56.8773 37.027 56.6521 37.1321C56.4269 37.2372 56.2279 37.3909 56.0693 37.5821C54.7488 39.1893 54.5388 41.6816 54.5412 43.1268C54.1783 42.2739 53.9287 40.9926 54.0566 39.3191C54.0662 39.1947 54.0759 39.0789 54.0848 38.9708C54.2363 37.1691 53.9654 36.7425 52.0143 35.7094C51.273 35.3171 50.9414 33.9762 51.3046 32.8407C51.5079 32.2041 52.0721 31.2103 53.6108 31.2103C53.7912 31.2108 53.9714 31.2233 54.1501 31.2475C54.8403 31.3391 55.8299 31.9104 56.4212 32.252C56.6322 32.3738 56.815 32.479 56.9605 32.5517C57.6637 32.9013 58.7259 33.3416 59.8325 33.1256C60.0325 33.0867 60.2117 32.9768 60.3369 32.8162C60.4622 32.6555 60.5251 32.455 60.5141 32.2515C60.503 32.0481 60.4187 31.8556 60.2768 31.7094C60.1349 31.5633 59.9448 31.4735 59.7418 31.4565C59.9156 31.3855 60.0937 31.3257 60.2751 31.2773C62.1791 30.757 62.9751 31.6501 63.3075 32.4894C63.7846 33.6946 63.4774 35.2891 62.6868 35.7094Z" fill="white"/>
</svg>
