<svg width="371" height="240" viewBox="0 0 371 240" fill="none" xmlns="http://www.w3.org/2000/svg">
<rect width="371" height="239" rx="49" fill="#D1E6FF"/>
<path d="M259.232 129.31C259.232 129.31 260.545 224.752 239.817 232.141C238.126 232.745 236.64 232.603 235.327 232.094C220.564 226.401 227.722 156.636 208.088 151.565H186.827C165.447 156.917 175.835 239.384 155.101 232C153.882 231.571 152.763 230.899 151.814 230.024C151.745 229.96 151.672 229.93 151.604 229.865C134.519 213.609 135.686 129.282 135.686 129.282C117.866 100.656 122.446 61.8456 122.446 61.8456C120.823 37.8402 150.385 17.7616 167.553 28.2245C178.093 34.6517 189.899 37.2983 197.456 38.3914C203.706 37.488 212.865 35.5228 221.809 31.2318C223.711 30.3261 225.566 29.3237 227.365 28.2288C244.533 17.765 274.095 37.8487 272.472 61.8542C272.472 61.8542 277.046 100.686 259.232 129.31Z" fill="white"/>
<path d="M259.233 129.311C259.233 129.311 260.547 224.753 239.818 232.142C238.127 232.746 236.641 232.746 235.328 232.237C252.023 218.231 242.182 145.277 237.318 135.882C232.414 126.402 246.425 108.939 252.202 75.5059C257.979 42.0727 221.81 31.2346 221.81 31.2346C223.713 30.3286 225.567 29.326 227.366 28.2307C244.534 17.7669 274.096 37.8506 272.474 61.8561C272.474 61.8561 277.048 100.687 259.233 129.311Z" fill="#77ADEF"/>
<path d="M147.388 92.8539C147.405 92.8659 147.419 92.8812 147.43 92.899L147.426 92.9066C147.449 92.9445 147.46 92.9883 147.458 93.0325L147.469 93.0904C147.472 93.1608 147.48 93.2308 147.495 93.2996L147.501 93.3337C147.699 94.506 148.801 97.7157 149.978 101.869C149.989 101.903 149.997 101.941 150.008 101.975C152.655 111.295 156.486 125.285 157.639 131.776C157.639 131.776 159.689 132.399 162.867 133.245H162.874C167.467 134.371 174.401 135.202 180.849 133.52C180.849 133.52 184.315 105.354 180.116 80.9285C180.116 80.9285 169.101 78.2011 157.208 77.4551C157.147 77.4551 157.086 77.3649 157.024 77.3606C156.066 77.3079 155.102 77.1905 154.139 77.1905H153.04C152.546 77.1905 151.656 77.6669 150.616 78.105C150.586 78.1161 150.525 78.1603 150.525 78.1756C150.525 78.1756 150.517 78.1612 150.514 78.1612C150.431 78.2168 150.346 78.2679 150.258 78.3143C150.14 78.3636 150.017 78.4325 149.891 78.4938C149.864 78.5082 149.834 78.5295 149.806 78.5414C149.795 78.5491 149.779 78.5559 149.767 78.5635C149.687 78.6052 149.604 78.6486 149.511 78.6903C149.493 78.698 149.477 78.7065 149.462 78.7141C149.363 78.7635 149.263 78.8171 149.16 78.8707C149.144 78.8783 149.224 78.886 149.21 78.897C149.091 78.9583 148.938 79.0229 148.816 79.0876C148.694 79.1522 148.621 79.2058 148.613 79.2705L148.599 79.1718C148.54 79.2024 148.48 79.2365 148.423 79.2705C148.417 79.2714 148.412 79.2741 148.407 79.2781C147.749 79.6569 147.125 80.0924 146.542 80.5797C146.542 80.5797 146.542 80.5874 146.535 80.5916L146.508 80.6299C143.85 85.0434 142.614 92.2652 147.388 92.8539Z" fill="url(#paint0_linear)"/>
<path d="M119.554 100.16C131.54 98.897 137.165 89.6965 141.62 83.8478C147.501 76.1242 153.994 77.459 153.994 77.459L150.02 94.5014C141.128 108.618 128.409 109.289 119.859 107.676C119.124 105.236 119.019 102.651 119.554 100.16Z" fill="#4972A3"/>
<path d="M101.558 97.5069L105.919 98.5669C111.232 100.161 115.721 100.569 119.559 100.164C119.024 102.654 119.129 105.239 119.864 107.679C114.421 106.652 110.668 104.701 110.668 104.701C100.659 101.795 101.558 97.5069 101.558 97.5069Z" fill="#7D97F4"/>
<path d="M91.6908 105.793C91.7079 105.358 91.8229 104.933 92.0271 104.548C92.2314 104.164 92.5197 103.83 92.8708 103.571L99.8221 98.4501C99.8221 98.4501 99.6804 97.4293 97.7472 97.2089C95.8141 96.9886 95.7133 94.9231 95.7133 94.9231C95.7133 94.9231 98.3987 95.3918 102.366 96.2119C104.634 96.6815 106.218 98.1371 107.159 99.2974L105.844 102.433C101.433 105.105 96.6628 106.633 91.6318 107.33L91.6908 105.793Z" fill="url(#paint1_linear)"/>
<path d="M152.923 77.3722C152.964 77.3722 153.003 77.3722 153.041 77.3722C153.052 77.3722 153.06 77.3722 153.071 77.3645L152.923 77.3722Z" fill="url(#paint2_linear)"/>
<path d="M150.513 77.2402L150.528 77.248V77.2324C150.526 77.2348 150.524 77.2367 150.521 77.2381C150.519 77.2395 150.516 77.2402 150.513 77.2402Z" fill="url(#paint3_linear)"/>
<path d="M157.541 210.169C157.541 210.169 158.164 213.678 158.468 217.151C158.496 217.473 158.457 217.798 158.355 218.105C158.254 218.411 158.09 218.695 157.876 218.937C157.661 219.179 157.399 219.376 157.106 219.514C156.813 219.653 156.495 219.731 156.171 219.744C151.527 219.937 141.596 220.312 138.033 220.153C137.909 220.147 137.787 220.112 137.68 220.05C137.572 219.988 137.481 219.901 137.413 219.797C137.346 219.692 137.305 219.573 137.293 219.45C137.281 219.326 137.299 219.202 137.345 219.087C137.512 218.672 137.832 218.337 138.239 218.151L154.645 210.639L157.541 210.169Z" fill="url(#paint4_linear)"/>
<path d="M158.051 208.112L157.556 212.308C157.556 212.308 154.682 213.641 152.719 212.138L153.909 207.459L158.051 208.112Z" fill="url(#paint5_linear)"/>
<path d="M157.672 129.195C157.888 130.291 158.831 183.897 153.08 207.914C153.033 208.103 153.056 208.303 153.144 208.477C153.232 208.651 153.379 208.787 153.56 208.862C154.442 209.221 156.172 209.741 158.244 209.811C158.556 209.821 158.863 209.727 159.116 209.545C159.369 209.362 159.554 209.101 159.642 208.803C161.286 203.23 169.163 175.306 170.191 148.632C171.339 118.826 170.191 147.617 170.191 147.617L169.517 129.193L157.672 129.195Z" fill="#4972A3"/>
<path d="M176.411 211.999C176.411 211.999 177.402 213.77 178.361 218.478C178.402 218.678 178.401 218.885 178.357 219.085C178.313 219.284 178.228 219.473 178.106 219.638C177.984 219.803 177.829 219.94 177.651 220.041C177.473 220.143 177.275 220.206 177.071 220.226C175.534 220.376 173.178 220.566 171.287 220.556C171.082 220.555 170.878 220.512 170.691 220.427C170.503 220.343 170.336 220.22 170.199 220.067C170.062 219.914 169.96 219.734 169.898 219.538C169.836 219.343 169.816 219.136 169.84 218.933C170.05 217.214 170.702 214.395 172.718 212.198L176.411 211.999Z" fill="url(#paint6_linear)"/>
<path d="M177.278 206.607L176.11 212.954C176.11 212.954 174.954 213.81 172.67 213.19L173.228 206.361L177.278 206.607Z" fill="url(#paint7_linear)"/>
<path d="M180.441 130.842C185.144 159.123 179.416 200.74 177.49 208.885C177.433 209.13 177.305 209.351 177.121 209.523C176.938 209.695 176.708 209.809 176.46 209.85C175.598 209.992 174.18 210.105 172.781 209.704C172.546 209.635 172.339 209.495 172.188 209.303C172.037 209.11 171.951 208.876 171.941 208.632C171.685 202.047 172.149 161.618 167.766 145.641C167.544 144.832 167.048 144.124 166.361 143.639L157.855 137.613L157.203 127.875L180.441 130.842Z" fill="#4972A3"/>
<path d="M174.707 94.5391L180.113 80.9438C180.113 80.9438 193.279 89.8568 195.444 101.157C192.956 101.34 188.43 101.984 184.003 104.213C183.025 98.8744 174.707 94.5391 174.707 94.5391Z" fill="#4972A3"/>
<path d="M164.744 65.8531L169.228 78.7755C169.265 78.8789 169.264 78.9919 169.225 79.0945C169.186 79.197 169.112 79.2826 169.016 79.3361C167.793 80.0099 163.389 81.9563 158.081 78.6037C157.807 78.4329 157.574 78.204 157.399 77.9333C157.224 77.6626 157.111 77.3567 157.068 77.0375L155.616 65.8531H164.744Z" fill="url(#paint8_linear)"/>
<path d="M173.534 79.1125L168.182 74.5841L160.176 94.0578L166.014 171.441L184.242 171.985C184.306 171.987 184.37 171.976 184.429 171.952C184.488 171.929 184.542 171.893 184.587 171.848C184.632 171.803 184.668 171.75 184.691 171.69C184.714 171.631 184.725 171.568 184.723 171.504L182.178 97.0575C182.178 97.0575 182.109 80.9704 180.392 80.5672C178.676 80.1639 173.534 79.1125 173.534 79.1125Z" fill="#4972A3"/>
<path d="M147.447 92.9081L147.456 93.034L147.467 93.0919L147.493 93.3011L147.579 93.3352L149.155 108.7V108.708L155.441 172.821C155.457 172.95 155.464 173.064 155.563 173.144C155.608 173.182 155.661 173.21 155.718 173.226C155.774 173.242 155.834 173.245 155.892 173.236L165.752 171.816L162.882 133.335L162.875 133.278L159.833 93.4296L157.071 77.4293V77.4217L156.73 74.9546L154.11 77.277H154.085L153.334 77.3187L153.025 77.334C152.536 77.4633 150.531 78.2171 150.531 78.2171C150.531 78.2171 149.831 78.5293 149.496 78.6892C149.482 78.6959 149.469 78.7036 149.457 78.7122C149.357 78.7615 149.264 78.8151 149.161 78.8679C149.146 78.8755 149.259 78.8832 149.246 78.8951C149.041 79.0091 148.875 79.1342 148.875 79.2677V79.2754L147.639 92.8537L147.537 92.8987L147.447 92.9081Z" fill="#4972A3"/>
<path d="M156.788 94.2721V96.1662L150.004 95.7459V93.6408L156.788 94.2721Z" fill="url(#paint9_linear)"/>
<path d="M160.329 98.8693C160.298 98.8693 160.267 98.8589 160.242 98.8396C160.217 98.8203 160.2 98.7932 160.192 98.7628C160.184 98.7323 160.187 98.7002 160.199 98.6714C160.212 98.6426 160.234 98.6189 160.262 98.6039L166.351 95.3465L167.205 89.6289C167.209 89.5998 167.223 89.5728 167.243 89.5517C167.264 89.5307 167.291 89.5166 167.32 89.5115L169.614 89.1048L171.962 81.5062C171.974 81.4706 171.999 81.4409 172.032 81.4236C172.065 81.4064 172.104 81.4031 172.14 81.4143C172.176 81.4256 172.205 81.4506 172.223 81.4838C172.24 81.517 172.243 81.5557 172.232 81.5913L169.859 89.2724C169.852 89.2973 169.837 89.3196 169.818 89.3368C169.799 89.3541 169.775 89.3657 169.749 89.3702L167.469 89.7735L166.621 95.4605C166.618 95.4821 166.61 95.5026 166.597 95.5204C166.585 95.5383 166.568 95.553 166.549 95.5635L160.401 98.8549C160.379 98.8657 160.354 98.8707 160.329 98.8693Z" fill="white"/>
<path d="M158.868 96.9809C158.849 96.981 158.831 96.9762 158.815 96.9669C158.798 96.9577 158.785 96.9443 158.776 96.9282L155.522 91.2463C155.511 91.225 155.506 91.2005 155.51 91.1765L156.038 88.0152L153.426 86.6303C153.408 86.6207 153.393 86.6062 153.383 86.5883C153.374 86.5705 153.369 86.5502 153.371 86.5299L154.038 77.2724C154.04 77.2446 154.053 77.2188 154.074 77.2005C154.095 77.1823 154.122 77.1729 154.15 77.1746C154.164 77.1754 154.178 77.179 154.19 77.1852C154.203 77.1913 154.214 77.1998 154.223 77.2103C154.232 77.2207 154.239 77.2329 154.243 77.246C154.248 77.2592 154.249 77.273 154.248 77.2869L153.587 86.4746L156.205 87.863C156.225 87.8734 156.241 87.8896 156.251 87.9095C156.261 87.9293 156.264 87.9517 156.26 87.9736L155.726 91.1722L158.96 96.821C158.974 96.8455 158.977 96.8745 158.97 96.9016C158.962 96.9287 158.944 96.9517 158.92 96.9656C158.904 96.9753 158.886 96.9805 158.868 96.9809Z" fill="white"/>
<path d="M163.191 106.936C163.191 106.936 177.973 115.259 182.961 108.152C183.996 106.676 184.242 105.209 183.985 103.813C188.416 101.585 192.943 100.94 195.427 100.758C196.08 104.161 195.735 107.787 193.725 111.449C184.989 127.372 161.228 110.569 161.228 110.569L163.191 106.936Z" fill="#4972A3"/>
<path d="M164.96 117.471L156.892 89.3975C156.848 89.2418 156.758 89.1027 156.635 88.9978C156.511 88.8929 156.359 88.8268 156.197 88.8079C154.736 88.6378 150.5 88.1605 145.609 87.7488C139.718 87.2528 132.878 86.8504 128.788 87.1924C128.654 87.203 128.525 87.2462 128.411 87.3182C128.298 87.3902 128.204 87.4887 128.137 87.6053C128.071 87.7219 128.034 87.8529 128.03 87.9869C128.026 88.1209 128.055 88.2538 128.115 88.3741C130.439 93.0598 140 112.118 144.788 118.362C144.866 118.464 144.967 118.546 145.082 118.603C145.198 118.659 145.325 118.688 145.453 118.688L164.172 118.517C164.299 118.517 164.424 118.487 164.537 118.43C164.651 118.373 164.75 118.29 164.826 118.189C164.902 118.088 164.954 117.97 164.977 117.846C165 117.721 164.994 117.593 164.96 117.471Z" fill="#4F52FF"/>
<path d="M144.774 85.3169L138.925 84.3453C138.853 84.3335 138.78 84.3402 138.712 84.3648C138.644 84.3894 138.584 84.431 138.537 84.4857C138.49 84.5404 138.458 84.6062 138.444 84.6768C138.43 84.7475 138.434 84.8205 138.457 84.889L139.036 86.6375C139.06 86.7119 139.105 86.7778 139.166 86.8279C139.226 86.878 139.299 86.9102 139.377 86.9208L145.006 87.6704C145.073 87.6792 145.142 87.6716 145.206 87.6482C145.269 87.6249 145.326 87.5864 145.372 87.5363C145.418 87.4861 145.45 87.4256 145.467 87.36C145.484 87.2945 145.485 87.2258 145.47 87.1599L145.112 85.6335C145.093 85.5534 145.051 85.4807 144.991 85.4243C144.931 85.368 144.855 85.3307 144.774 85.3169Z" fill="url(#paint10_linear)"/>
<path d="M149.157 90.2484L148.677 87.7494C148.653 87.6272 148.59 87.5158 148.498 87.4318C148.406 87.3478 148.289 87.2957 148.164 87.2832L136.351 86.092C136.259 86.0826 136.166 86.0954 136.08 86.1293C135.993 86.1632 135.916 86.2172 135.855 86.2868C135.794 86.3563 135.751 86.4394 135.729 86.5291C135.707 86.6189 135.706 86.7126 135.728 86.8024L136.479 89.9191C136.508 90.0405 136.576 90.1492 136.673 90.229C136.769 90.3087 136.889 90.3552 137.014 90.3616L148.558 90.9401C148.646 90.9447 148.735 90.9291 148.816 90.8945C148.898 90.8599 148.97 90.8072 149.028 90.7405C149.086 90.6737 149.127 90.5947 149.15 90.5094C149.172 90.4241 149.175 90.3348 149.157 90.2484Z" fill="url(#paint11_linear)"/>
<path d="M163.011 110.685C163.011 110.685 164.135 106.081 163.682 104.448C163.228 102.815 162.351 100.715 159.423 101.181C156.495 101.647 153.042 102.877 153.042 102.877C153.042 102.877 153.213 105.004 155.441 104.318L154.061 105.381C154.061 105.381 154.259 107.083 156.138 106.175L154.857 107.585C154.857 107.585 155.665 108.985 157.047 108.087C158.43 107.19 159.091 111.24 163.011 110.685Z" fill="#FEDBBA"/>
<path d="M177.101 111.023C172.628 111.023 166.94 108.867 166.634 108.748C166.556 108.722 164.603 108.047 163.866 106.613C163.858 106.597 163.853 106.579 163.851 106.561C163.85 106.542 163.852 106.524 163.858 106.506C163.863 106.489 163.872 106.472 163.884 106.458C163.896 106.444 163.911 106.433 163.927 106.424C163.944 106.416 163.962 106.411 163.98 106.409C163.999 106.408 164.017 106.41 164.035 106.415C164.053 106.421 164.069 106.43 164.083 106.442C164.097 106.454 164.109 106.469 164.117 106.485C164.801 107.818 166.711 108.477 166.729 108.483C166.833 108.523 176.577 112.22 180.536 110.054C180.569 110.036 180.607 110.032 180.643 110.043C180.679 110.053 180.71 110.078 180.728 110.11C180.737 110.127 180.742 110.144 180.744 110.163C180.746 110.181 180.745 110.2 180.739 110.218C180.734 110.235 180.726 110.252 180.714 110.266C180.702 110.28 180.688 110.292 180.671 110.301C179.719 110.823 178.467 111.023 177.101 111.023Z" fill="white"/>
<path d="M182.431 118.319H182.425C171.088 118.038 164.611 112.797 164.547 112.744C164.533 112.736 164.521 112.724 164.512 112.71C164.503 112.696 164.498 112.681 164.496 112.664C164.494 112.648 164.496 112.631 164.501 112.616C164.507 112.6 164.516 112.586 164.528 112.574C164.54 112.561 164.555 112.55 164.572 112.542C164.589 112.535 164.607 112.531 164.626 112.53C164.644 112.529 164.663 112.533 164.68 112.539C164.697 112.546 164.713 112.556 164.726 112.568C164.79 112.62 171.2 117.758 182.436 118.144C182.513 118.144 182.575 118.158 182.571 118.236C182.568 118.314 182.507 118.319 182.431 118.319Z" fill="white"/>
<path d="M152.903 53.604C152.903 53.604 150.74 61.4416 151.079 65.3439C151.418 69.2461 150.942 71.8791 155.549 72.0177C160.155 72.1564 163.619 69.3865 165.117 65.2367C165.117 65.2367 167.476 58.835 166.406 56.5041C165.335 54.1731 152.903 53.604 152.903 53.604Z" fill="url(#paint12_linear)"/>
<path d="M171.257 54.0398C170.276 53.4316 169.634 53.6417 169.264 53.948C169.217 53.9874 169.16 54.0121 169.099 54.0189C169.038 54.0257 168.977 54.0144 168.922 53.9862C168.912 53.8705 168.167 45.8593 157.206 47.2656C156.65 47.3363 156.085 47.2407 155.583 46.9909C155.082 46.7411 154.666 46.3485 154.389 45.8627C153.092 43.5888 150.632 40.248 148.778 43.5122C146.137 48.1588 145.354 54.2559 152.833 55.5192C153.276 55.5941 153.723 55.6536 154.171 55.7013C157.258 56.4601 160.775 56.6992 162.079 57.0267C164.257 57.5737 162.592 62.621 162.592 62.621L163.159 62.5359L164.37 62.3658C164.546 62.3403 164.717 62.5359 164.731 62.7154L165.012 66.1634C165.018 66.2373 165.049 66.3071 165.1 66.3615C165.15 66.4158 165.218 66.4516 165.292 66.4628C165.845 66.5232 167.281 66.4688 169.489 64.855C171.648 63.2769 170.612 62.473 169.951 62.1693C169.908 62.1483 169.87 62.1175 169.841 62.0793C169.812 62.041 169.793 61.9965 169.785 61.9494C169.776 61.9022 169.779 61.8538 169.793 61.808C169.807 61.7622 169.832 61.7204 169.866 61.6861C172.814 58.4942 172.962 55.0981 171.257 54.0398Z" fill="url(#paint13_linear)"/>
<path d="M163.14 63.412C163.14 63.412 163.694 58.5238 166.004 59.5429C168.315 60.5621 165.663 64.9807 163.982 65.4001L163.14 63.412Z" fill="#FEDFBA"/>
<path d="M150.895 54.0459C150.934 54.0407 150.969 54.0206 150.993 53.9897C151.018 53.9581 151.03 53.9179 151.025 53.8779C151.02 53.8379 151 53.8013 150.968 53.7762C149.393 52.535 148.527 51.099 148.396 49.5099C148.168 46.745 150.257 44.4192 150.275 44.3962C150.29 44.3817 150.301 44.3644 150.309 44.3452C150.317 44.326 150.321 44.3055 150.321 44.2848C150.32 44.2641 150.316 44.2437 150.307 44.2248C150.299 44.206 150.286 44.189 150.271 44.1751C150.256 44.1611 150.238 44.1504 150.218 44.1436C150.198 44.1369 150.177 44.1341 150.157 44.1357C150.136 44.1372 150.116 44.1429 150.097 44.1524C150.079 44.162 150.063 44.1752 150.05 44.1912C149.959 44.2899 147.851 46.6345 148.086 49.532C148.224 51.2105 149.128 52.7179 150.773 54.0144C150.79 54.0282 150.809 54.0381 150.83 54.0435C150.851 54.049 150.873 54.0498 150.895 54.0459Z" fill="#BDD0FB"/>
<path d="M222.127 40.6201L178.162 28.5825L179.647 23.5675L224.14 35.6043L222.127 40.6201Z" fill="#6D86E0"/>
<path d="M225.062 222.406C225.062 223.597 224.161 224.563 223.049 224.563C221.939 224.563 221.035 223.597 221.035 222.406V47.7167C221.035 46.5257 221.936 45.5593 223.049 45.5593C224.159 45.5593 225.062 46.5257 225.062 47.7167V222.406Z" fill="#6D86E0"/>
<path d="M158.777 125.221C158.093 124.593 157.284 124.118 156.402 123.825C155.521 123.533 154.587 123.43 153.662 123.524L101.63 128.774C100.676 128.871 99.3914 129.672 99.3914 130.626V131.593C99.3914 132.123 100.178 132.627 100.574 132.981C100.97 133.335 101.779 133.502 102.307 133.445L149.698 128.22C150.331 128.152 150.972 128.221 151.577 128.422C152.181 128.624 152.734 128.953 153.199 129.388C153.654 129.821 154.009 130.347 154.238 130.931C154.467 131.516 154.564 132.143 154.523 132.768L153.218 150.026C154.705 153.088 156.58 153.012 158.047 152.21C158.781 151.809 159.397 151.222 159.832 150.508C160.266 149.795 160.505 148.98 160.523 148.146L160.887 130.161C160.906 129.235 160.728 128.317 160.364 127.465C160 126.613 159.459 125.848 158.777 125.221Z" fill="url(#paint14_linear)"/>
<path d="M119.761 183.254L161.043 213.353L178.556 195.404L137.162 177.104L119.761 183.254Z" fill="url(#paint15_linear)"/>
<path d="M197.109 156.79L106.231 154.951C106.231 154.951 105.482 173.601 108.118 180.431C110.755 187.26 134.241 189.363 140.309 180.431C143.691 175.451 149.378 171.45 153.74 168.886C157.303 166.79 161.281 165.859 165.403 166.21L208.811 169.923V165.721L197.109 156.79Z" fill="url(#paint16_linear)"/>
<path d="M132.788 171.189C133.868 166.972 131.312 162.681 127.079 161.605C122.846 160.53 118.54 163.076 117.46 167.293C116.38 171.51 118.936 175.801 123.169 176.877C127.402 177.952 131.708 175.406 132.788 171.189Z" fill="#91B3FA"/>
<path d="M127.807 175.624C131.327 174.172 132.999 170.151 131.541 166.643C130.083 163.136 126.047 161.47 122.527 162.923C119.006 164.376 117.335 168.397 118.793 171.904C120.251 175.412 124.287 177.077 127.807 175.624Z" fill="#7D97F4"/>
<path d="M249.664 175.444C248.845 173.792 214.96 155.263 204.049 149.327C201.848 148.129 199.385 147.488 196.877 147.461L122.29 146.502C121.33 146.489 120.39 146.229 119.561 145.747C118.732 145.265 118.042 144.577 117.559 143.75L92.7794 101.28L86.1287 77.2622C85.6522 75.54 84.5161 74.073 82.9648 73.177C81.4135 72.2811 79.5711 72.0278 77.8342 72.4718L77.1426 72.6488C75.4055 73.0924 73.9126 74.1979 72.9854 75.7272C72.0582 77.2566 71.7708 79.0875 72.1851 80.8259L77.3083 102.331L103.943 155.725C104.393 156.628 105.082 157.391 105.936 157.932C106.789 158.473 107.775 158.772 108.786 158.796L191.026 160.745C193.232 160.795 195.402 161.317 197.387 162.276L239.147 182.475C240.523 183.141 242.065 183.388 243.581 183.187C245.096 182.985 246.519 182.344 247.672 181.343C249.457 179.795 250.803 177.739 249.664 175.444Z" fill="url(#paint17_linear)"/>
<path d="M225.617 230.151H225.591C225.049 230.151 224.53 230.292 224.15 229.907C223.77 229.522 223.563 229.179 223.574 228.639C223.745 220.034 216.339 209.141 210.112 201.4C205.319 195.445 198.072 192.127 190.409 192.127H184.247C180.162 192.127 176.136 193.049 172.52 194.94L104.118 230.314C103.829 230.464 103.507 230.151 103.179 230.151H89.3079C86.76 230.151 84.697 232.655 84.697 235.193C84.697 237.297 86.4048 239.447 88.5198 239.447H226.41C228.522 239.447 230.234 237.297 230.234 235.193C230.231 232.655 228.169 230.151 225.617 230.151Z" fill="#09015D"/>
<path d="M223.376 31.2837H222.79C220.844 31.2837 219.267 32.8555 219.267 34.7946V50.589C219.267 52.528 220.844 54.0999 222.79 54.0999H223.376C225.322 54.0999 226.9 52.528 226.9 50.589V34.7946C226.9 32.8555 225.322 31.2837 223.376 31.2837Z" fill="url(#paint18_linear)"/>
<path d="M222.527 111.557H221.942C219.995 111.557 218.418 113.129 218.418 115.068V130.862C218.418 132.801 219.995 134.373 221.942 134.373H222.527C224.474 134.373 226.051 132.801 226.051 130.862V115.068C226.051 113.129 224.474 111.557 222.527 111.557Z" fill="url(#paint19_linear)"/>
<path d="M190.295 42.9396C191.583 45.4364 190.827 48.3842 188.747 49.4476C186.666 50.5127 183.821 49.4101 182.534 46.9124L166.032 14.9128C164.744 12.4159 165.5 9.46819 167.581 8.40479C169.662 7.3397 172.505 8.44223 173.794 10.9399L190.295 42.9396Z" fill="url(#paint20_linear)"/>
<path d="M165.547 13.6187L164.926 15.9216C164.621 17.1276 164.759 18.4025 165.315 19.5159L177.878 46.0344C178.804 47.9587 180.756 49.5964 182.899 49.5964H183.869L165.547 13.6187Z" fill="url(#paint21_linear)"/>
<path d="M240.847 156.944C240.793 156.961 188.249 135.607 182.391 134.308C181.407 134.089 163.745 131.793 163.745 131.793L160.436 144.223L185.691 145.515C190.985 154.703 216.174 154.824 225.02 155.137C225.233 155.144 225.442 155.195 225.634 155.285C225.826 155.376 225.997 155.505 226.137 155.665C226.277 155.824 226.383 156.011 226.448 156.212C226.513 156.414 226.536 156.627 226.515 156.838L226.132 160.72C232.401 161.52 238.216 160.635 243.59 158.134L240.847 156.944Z" fill="url(#paint22_linear)"/>
<path d="M226.419 158.559C226.419 158.559 225.405 160.057 225.893 161.622C226.126 162.371 226.877 162.839 227.663 162.805C231.155 162.656 242.588 162.049 246.79 160.4C246.868 160.369 246.937 160.317 246.989 160.251C247.042 160.184 247.076 160.106 247.089 160.022C247.101 159.939 247.092 159.854 247.062 159.775C247.032 159.696 246.981 159.626 246.916 159.573C246.121 158.921 244.318 157.786 240.683 156.906L241.105 157.108C241.223 157.161 241.321 157.251 241.383 157.365C241.446 157.478 241.469 157.609 241.451 157.737C241.432 157.865 241.372 157.983 241.279 158.074C241.187 158.165 241.068 158.224 240.939 158.241C237.654 158.737 230.811 159.553 226.419 158.559Z" fill="#816049"/>
<path d="M239.609 165.185C239.555 165.195 229.486 160.747 229.43 160.761C210.389 146.399 189.633 138.307 183.954 136.384C182.999 136.061 182.128 135.584 180.283 135.804L159.471 133.056L161.901 149.146L182.546 147.19C186.809 156.888 215.305 160.415 224.069 161.678C224.279 161.708 224.481 161.781 224.663 161.892C224.844 162.003 225 162.15 225.122 162.323C225.244 162.497 225.329 162.694 225.372 162.901C225.414 163.109 225.414 163.323 225.37 163.53L224.568 167.348C230.716 168.819 236.591 168.569 242.206 166.657L239.609 165.185Z" fill="url(#paint23_linear)"/>
<path d="M225.091 165.231C225.091 165.231 223.921 166.611 224.237 168.22C224.389 168.985 225.085 169.535 225.869 169.586C229.357 169.813 240.788 170.443 245.141 169.257C245.222 169.234 245.297 169.19 245.356 169.129C245.415 169.069 245.458 168.994 245.48 168.913C245.501 168.831 245.501 168.745 245.48 168.663C245.458 168.582 245.415 168.507 245.356 168.447C244.637 167.713 242.965 166.393 239.452 165.128L239.85 165.374C239.961 165.44 240.047 165.54 240.096 165.659C240.145 165.779 240.154 165.91 240.122 166.035C240.089 166.159 240.017 166.27 239.917 166.35C239.816 166.431 239.692 166.476 239.563 166.48C236.242 166.619 229.35 166.697 225.091 165.231Z" fill="url(#paint24_linear)"/>
<path d="M108.618 129.539C108.618 129.539 104.625 142.457 110.254 149.021C112.993 152.213 122.806 150.418 130.662 150.212C152.094 149.64 162.112 149.8 166.78 149.849C166.963 149.851 167.143 149.808 167.305 149.724C167.467 149.64 167.607 149.518 167.711 149.369C167.815 149.22 167.881 149.047 167.903 148.866C167.926 148.686 167.903 148.502 167.838 148.332C165.975 143.313 166.899 137.459 168.13 132.537C168.17 132.377 168.173 132.21 168.14 132.048C168.107 131.886 168.038 131.733 167.939 131.601C167.839 131.469 167.712 131.36 167.565 131.283C167.419 131.206 167.257 131.162 167.091 131.155C158.467 130.753 120.426 124.336 119.053 122.187C117.317 119.471 108.618 129.539 108.618 129.539Z" fill="#E9605A"/>
<path d="M87.4945 75.1058C87.4945 75.1058 80.369 74.3886 81.4995 82.5989C81.7036 84.0851 78.5485 85.7346 79.4152 88.4246C79.8635 89.8138 79.3768 91.317 78.1566 92.1226C75.1186 94.132 70.8646 98.1508 72.6919 104.181C74.0845 108.783 77.056 109.401 79.6381 108.897C81.5353 108.527 83.4343 109.655 83.8869 111.527C84.3207 113.323 85.6971 114.995 89.2526 115.179C97.2208 115.589 98.3411 101.296 98.3411 101.296L90.4394 80.8898L87.4945 75.1058Z" fill="url(#paint25_linear)"/>
<path d="M118.899 119.693C118.899 119.693 119.342 109.069 118.689 102.942C118.514 101.31 117.949 99.7435 117.044 98.3727C116.138 97.0019 114.916 95.8665 113.481 95.061C108.165 92.0716 101.733 89.8717 100.875 89.3859C99.5593 88.6492 93.3705 94.6927 93.3705 94.6927C93.3705 94.6927 88.7997 114.429 97.0114 132.5L104.051 128.968C104.051 128.968 102.06 120.533 101.924 114.081C101.924 114.081 104.229 129.918 106.902 133.051L118.899 119.693Z" fill="url(#paint26_linear)"/>
<path d="M131.51 111.576L122.943 111.071L119.376 117.008C119.376 117.008 114.594 123.29 110.535 125.521L106.475 127.752L97.0137 132.498L98.9921 136.814C99.2367 137.347 99.649 137.785 100.166 138.063C100.684 138.341 101.278 138.444 101.859 138.355C102.921 138.195 104.133 137.974 104.802 137.726C106.168 137.222 126.99 116.615 126.99 116.615L131.51 111.576Z" fill="#FEDBBA"/>
<path d="M90.4119 83.0991L93.7514 94.8917C95.6709 96.3192 99.9991 92.2434 99.6798 90.5947C99.6422 90.4279 99.5741 90.2693 99.4791 90.1268L96.9551 82.5291C96.5717 81.92 93.5285 81.5567 92.8352 81.7541L90.3137 82.4781C89.3429 82.752 91.9916 80.1496 90.4119 83.0991Z" fill="url(#paint27_linear)"/>
<path d="M92.622 71.712C92.622 71.712 96.1954 72.7329 99.0994 77.3522C102.003 81.9716 100.551 84.4378 98.4163 85.0087C96.2816 85.5795 93.037 85.9215 89.2227 83.1711C85.4085 80.4208 87.9957 70.5465 92.622 71.712Z" fill="url(#paint28_linear)"/>
<path d="M91.2176 80.284C91.2176 80.284 87.786 73.4297 94.149 72.5799L95.7756 73.4442C95.7756 73.4442 97.6336 69.1906 93.5658 67.7572C89.498 66.3237 85.1979 68.4275 84.1852 73.776C83.1725 79.1244 83.3126 82.6064 86.3284 84.7451C89.3443 86.8838 90.1264 83.9548 90.1264 83.9548C90.1264 83.9548 88.3674 81.828 88.8208 80.5213C89.2742 79.2146 90.8436 80.5366 90.8436 80.5366L91.2176 80.284Z" fill="url(#paint29_linear)"/>
<path d="M90.5982 81.1683C90.5982 81.1683 88.8546 77.6339 87.3014 79.3109C85.7482 80.9879 89.1202 82.551 90.424 83.0317L90.5982 81.1683Z" fill="url(#paint30_linear)"/>
<path d="M94.8955 97.0691C97.8593 102.788 101.709 106.994 107.222 108.367L118.375 97.0691C112.051 94.9822 107.332 92.1604 104.576 88.4377L94.8955 97.0691Z" fill="white"/>
<defs>
<linearGradient id="paint0_linear" x1="182.197" y1="105.837" x2="144.159" y2="105.837" gradientUnits="userSpaceOnUse">
<stop stop-color="white"/>
<stop offset="0.338542" stop-color="#EFF1F7"/>
<stop offset="0.427083" stop-color="#96B5F0"/>
<stop offset="1" stop-color="#CFD7E8"/>
</linearGradient>
<linearGradient id="paint1_linear" x1="79.0466" y1="88.1429" x2="149.452" y2="142.439" gradientUnits="userSpaceOnUse">
<stop stop-color="#FEBBBA"/>
<stop offset="1" stop-color="#FF928E"/>
</linearGradient>
<linearGradient id="paint2_linear" x1="-169.319" y1="87.3998" x2="-169.061" y2="87.3998" gradientUnits="userSpaceOnUse">
<stop stop-color="#09005D"/>
<stop offset="1" stop-color="#1A0F91"/>
</linearGradient>
<linearGradient id="paint3_linear" x1="117.013" y1="97.6199" x2="117.009" y2="97.6251" gradientUnits="userSpaceOnUse">
<stop stop-color="#53EAC9"/>
<stop offset="1" stop-color="#45AED8"/>
</linearGradient>
<linearGradient id="paint4_linear" x1="-42278.9" y1="28374.4" x2="-47455.2" y2="40276.5" gradientUnits="userSpaceOnUse">
<stop stop-color="#09005D"/>
<stop offset="1" stop-color="#1A0F91"/>
</linearGradient>
<linearGradient id="paint5_linear" x1="11736.2" y1="15671.7" x2="11403" y2="15671.7" gradientUnits="userSpaceOnUse">
<stop stop-color="#FEBBBA"/>
<stop offset="1" stop-color="#FF928E"/>
</linearGradient>
<linearGradient id="paint6_linear" x1="-18318.9" y1="23017.5" x2="-24339.6" y2="29568.5" gradientUnits="userSpaceOnUse">
<stop stop-color="#09005D"/>
<stop offset="1" stop-color="#1A0F91"/>
</linearGradient>
<linearGradient id="paint7_linear" x1="11139" y1="20409.2" x2="10890.5" y2="20409.2" gradientUnits="userSpaceOnUse">
<stop stop-color="#FEBBBA"/>
<stop offset="1" stop-color="#FF928E"/>
</linearGradient>
<linearGradient id="paint8_linear" x1="34252.1" y1="20293.4" x2="33183" y2="19766.9" gradientUnits="userSpaceOnUse">
<stop stop-color="#FEDBBA"/>
<stop offset="1" stop-color="#FEDBBA"/>
</linearGradient>
<linearGradient id="paint9_linear" x1="157.756" y1="98.1359" x2="133.662" y2="80.7353" gradientUnits="userSpaceOnUse">
<stop stop-color="#9CFFFB"/>
<stop offset="1" stop-color="#9BFFFA"/>
</linearGradient>
<linearGradient id="paint10_linear" x1="9277.23" y1="3405.15" x2="9284.19" y2="4148.77" gradientUnits="userSpaceOnUse">
<stop stop-color="#4F52FF"/>
<stop offset="1" stop-color="#4042E2"/>
</linearGradient>
<linearGradient id="paint11_linear" x1="17659.6" y1="4917.79" x2="17667.4" y2="5999.9" gradientUnits="userSpaceOnUse">
<stop stop-color="#4F52FF"/>
<stop offset="1" stop-color="#4042E2"/>
</linearGradient>
<linearGradient id="paint12_linear" x1="100227" y1="13076.8" x2="104339" y2="14989.8" gradientUnits="userSpaceOnUse">
<stop stop-color="#FEDFBA"/>
<stop offset="1" stop-color="#FF928E"/>
</linearGradient>
<linearGradient id="paint13_linear" x1="81939.1" y1="18500.6" x2="93234.5" y2="29899" gradientUnits="userSpaceOnUse">
<stop stop-color="#09005D"/>
<stop offset="1" stop-color="#1A0F91"/>
</linearGradient>
<linearGradient id="paint14_linear" x1="116655" y1="22952" x2="110497" y2="45293.9" gradientUnits="userSpaceOnUse">
<stop stop-color="#09005D"/>
<stop offset="1" stop-color="#1A0F91"/>
</linearGradient>
<linearGradient id="paint15_linear" x1="90371.7" y1="84309.1" x2="104454" y2="36997" gradientUnits="userSpaceOnUse">
<stop stop-color="#09005D"/>
<stop offset="1" stop-color="#1A0F91"/>
</linearGradient>
<linearGradient id="paint16_linear" x1="201156" y1="45269.5" x2="196911" y2="70919.3" gradientUnits="userSpaceOnUse">
<stop stop-color="#09005D"/>
<stop offset="1" stop-color="#1A0F91"/>
</linearGradient>
<linearGradient id="paint17_linear" x1="115116" y1="146091" x2="272008" y2="388934" gradientUnits="userSpaceOnUse">
<stop stop-color="#09015D"/>
<stop offset="1" stop-color="#4042E2"/>
</linearGradient>
<linearGradient id="paint18_linear" x1="23068.6" y1="395.433" x2="17932.8" y2="2450.28" gradientUnits="userSpaceOnUse">
<stop stop-color="#09005D"/>
<stop offset="1" stop-color="#1A0F91"/>
</linearGradient>
<linearGradient id="paint19_linear" x1="26568.1" y1="9224.11" x2="21432.2" y2="11279" gradientUnits="userSpaceOnUse">
<stop stop-color="#09005D"/>
<stop offset="1" stop-color="#1A0F91"/>
</linearGradient>
<linearGradient id="paint20_linear" x1="76194.3" y1="17713.7" x2="78511.5" y2="16518.9" gradientUnits="userSpaceOnUse">
<stop stop-color="#1A0F91"/>
<stop offset="1" stop-color="#4042E2"/>
</linearGradient>
<linearGradient id="paint21_linear" x1="223.533" y1="12.6157" x2="182.296" y2="28.7754" gradientUnits="userSpaceOnUse">
<stop stop-color="#FF928E"/>
<stop offset="1" stop-color="#E9605A"/>
</linearGradient>
<linearGradient id="paint22_linear" x1="202.013" y1="131.793" x2="202.013" y2="161.006" gradientUnits="userSpaceOnUse">
<stop stop-color="#F1C1A0"/>
<stop offset="1" stop-color="#FEDBBA"/>
</linearGradient>
<linearGradient id="paint23_linear" x1="1.28558e+06" y1="-1.09072e+06" x2="1.27237e+06" y2="-1.17238e+06" gradientUnits="userSpaceOnUse">
<stop stop-color="#FEDBBA"/>
<stop offset="1" stop-color="#FF928E"/>
</linearGradient>
<linearGradient id="paint24_linear" x1="179183" y1="-50684.6" x2="179522" y2="-47753.1" gradientUnits="userSpaceOnUse">
<stop stop-color="#725644"/>
<stop offset="1" stop-color="#6C503D"/>
</linearGradient>
<linearGradient id="paint25_linear" x1="85.2962" y1="75.0899" x2="85.2962" y2="115.187" gradientUnits="userSpaceOnUse">
<stop stop-color="#886F5F"/>
<stop offset="0.723958" stop-color="#6C503D"/>
</linearGradient>
<linearGradient id="paint26_linear" x1="28016.4" y1="27594.1" x2="23474" y2="46627" gradientUnits="userSpaceOnUse">
<stop stop-color="#FF928E"/>
<stop offset="1" stop-color="#FE7062"/>
</linearGradient>
<linearGradient id="paint27_linear" x1="100656" y1="-73659.8" x2="98852" y2="-75144.5" gradientUnits="userSpaceOnUse">
<stop stop-color="#FEDFBA"/>
<stop offset="1" stop-color="#FEDBBA"/>
</linearGradient>
<linearGradient id="paint28_linear" x1="115854" y1="-85439.5" x2="112133" y2="-90370.9" gradientUnits="userSpaceOnUse">
<stop stop-color="#FEDFBA"/>
<stop offset="1" stop-color="#FEDFBA"/>
</linearGradient>
<linearGradient id="paint29_linear" x1="104534" y1="-113485" x2="102546" y2="-108823" gradientUnits="userSpaceOnUse">
<stop stop-color="#6F5341"/>
<stop offset="1" stop-color="#806755"/>
</linearGradient>
<linearGradient id="paint30_linear" x1="31213.8" y1="-24819.2" x2="30058" y2="-26232.3" gradientUnits="userSpaceOnUse">
<stop stop-color="#FDDEB9"/>
<stop offset="1" stop-color="#F1BD8D"/>
</linearGradient>
</defs>
</svg>
