<svg width="292" height="284" viewBox="0 0 284 284" fill="none" xmlns="http://www.w3.org/2000/svg">
<path d="M251.081 244.053C245.249 250.163 239.73 254.104 235.371 257.217C184.125 293.816 123.487 283.147 110.599 280.542C91.5697 276.695 54.7843 269.259 28.1886 238.129C-12.0474 191.037 -5.78197 116.833 25.4283 67.852C31.137 58.8928 61.2922 9.16588 122.583 1.1913C159.676 -3.63395 202.917 6.09936 234.226 32.2103C299.952 87.0201 295.273 197.744 251.081 244.053Z" fill="#D1E6FF"/>
<path d="M166.573 149.52C160.725 161.415 153.371 193.886 151.362 195.674C149.353 197.463 137.799 204.355 135.79 207.69C133.78 211.026 134.685 209.92 135.569 210.142C136.453 210.363 186.746 210.584 186.746 210.584C186.746 210.584 180.959 176.103 180.296 175.882C179.633 175.641 166.573 149.52 166.573 149.52Z" fill="#AA0101"/>
<path d="M158.254 210.423C167.497 210.483 177.242 210.543 182.607 210.563L175.253 166.64C171.335 159.044 166.573 149.52 166.573 149.52C165.829 151.027 165.066 152.835 164.302 154.905C163.538 187.898 168.301 197.141 164.724 203.028C161.931 207.61 159.399 209.659 158.254 210.423Z" fill="#750000"/>
<path d="M262.658 212.793H21.1773C20.1525 212.793 19.3086 211.949 19.3086 210.924C19.3086 209.9 20.1525 209.056 21.1773 209.056H262.638C263.663 209.056 264.507 209.9 264.507 210.924C264.527 211.949 263.683 212.793 262.658 212.793Z" fill="#2E5B9A"/>
<path d="M197.416 135.173C205.774 142.889 224.361 150.203 224.361 150.203C224.361 150.203 227.194 176.304 225.265 191.073C223.336 205.841 224.401 208.855 224.401 208.855H186.063C186.063 208.855 180.919 201.722 171.495 179.519C165.507 165.394 166.572 149.54 166.572 149.54L189.921 139.051L197.416 135.173Z" fill="#AA0101"/>
<path d="M186.063 208.835H224.401C224.401 208.835 223.336 205.841 225.265 191.052C226.853 178.876 225.225 159.044 224.582 152.413L221.086 150.926C212.325 153.458 207.282 166.498 205.815 179.257C204.831 187.797 190.685 196.196 181.422 200.817C184.456 206.624 186.063 208.835 186.063 208.835Z" fill="#750000"/>
<path d="M176.66 108.39C172.038 118.677 177.584 128.222 177.423 127.82C177.262 127.418 184.415 110.439 184.415 110.439L176.66 108.39Z" fill="#2E5B9A"/>
<path d="M194.182 116.004L200.049 137.423C200.21 138.026 200.069 138.669 199.687 139.151C198.321 140.839 196.352 144.335 192.413 145.441C191.65 145.662 190.705 145.722 189.942 145.722C189.138 145.722 188.435 145.159 188.294 144.376L184.336 124.041L194.182 116.004Z" fill="#F09959"/>
<path d="M193.055 117.793L190.905 118.677L184.314 124.062L187.851 142.066C193.859 138.329 194.723 135.797 193.055 117.793Z" fill="#E38540"/>
<path d="M193.959 125.468C192.653 132.521 187.389 137.283 182.185 136.117C176.981 134.952 174.489 130.391 175.112 121.248C175.594 114.075 179.131 106.279 184.335 107.444C189.539 108.61 195.245 118.415 193.959 125.468Z" fill="#F09959"/>
<path d="M224.362 150.182C232.118 151.931 233.565 167.684 236.076 184.301C236.358 186.21 237.865 202.405 237.865 202.405C237.865 202.405 238.005 205.379 235.052 206.846C232.52 208.111 231.495 209.076 216.807 209.217C202.701 209.357 184.517 208.774 184.517 208.774C184.517 208.774 184.356 203.53 185.803 200.958C187.973 197.1 210.277 191.555 212.366 191.273C212.668 187.114 210.317 172.084 213.552 161.897C215.782 154.884 218.173 151.207 221.167 150.263C222.132 149.941 223.197 149.941 224.362 150.182Z" fill="#AA0101"/>
<path d="M192.473 209.116C199.425 209.217 208.969 209.317 216.786 209.237C231.474 209.096 232.498 208.132 235.03 206.866C238.004 205.379 238.145 202.867 238.145 202.867C238.145 202.867 236.638 185.647 236.356 183.738C234.729 172.607 232.961 159.888 228.862 153.739C232.72 165.052 233.342 174.576 233.403 178.655C233.443 180.724 233.242 183.537 232.639 185.527C231.976 187.717 230.268 189.083 227.596 188.34C222.251 186.853 215.58 189.967 215.58 189.967C215.58 189.967 220.623 188.179 225.365 189.827C230.107 191.454 239.913 202.284 229.223 206.283C225.988 207.489 206.397 208.493 192.473 209.116Z" fill="#750000"/>
<path d="M186.968 201.461C186.968 201.461 188.937 198.106 192.996 198.106C197.055 198.106 196.753 204.737 196.171 206.907C195.568 209.077 193.197 209.177 193.197 209.177L184.497 208.775L186.968 201.461Z" fill="#96CFE0"/>
<path d="M178.147 210.704H123.293C122.469 210.704 121.786 210.021 121.786 209.197V208.755C121.786 207.931 122.469 207.248 123.293 207.248H178.147C178.971 207.248 179.654 207.931 179.654 208.755V209.197C179.654 210.021 178.971 210.704 178.147 210.704Z" fill="#A8CEFF"/>
<path d="M185.881 201.862C177.382 198.788 175.152 199.954 173.223 199.391C168.481 198.005 167.295 199.19 164.221 207.609C163.618 209.277 165.406 209.397 167.195 209.397C168.983 209.397 171.153 205.941 171.836 205.54C172.519 205.138 174.408 204.937 174.408 204.937C174.408 204.937 173.805 204.937 172.921 206.725C172.037 208.513 170.952 209.197 172.318 209.197C173.685 209.197 173.906 206.926 176.478 207.408C179.05 207.911 178.065 209.197 184.495 209.096C190.925 208.996 195.767 209.096 195.667 205.238C195.566 201.581 195.968 199.753 192.492 199.11C189.84 198.607 185.881 201.862 185.881 201.862Z" fill="#F09959"/>
<path d="M186.003 201.863C191.689 201.22 190.021 208.313 189.419 208.896C188.816 209.479 192.593 209.097 192.593 209.097C192.593 209.097 194.362 206.264 192.875 202.989C191.388 199.733 188.434 199.573 188.434 199.573L185.902 200.959L186.003 201.863Z" fill="#A86B48"/>
<path d="M191.93 201.241C191.85 202.125 190.363 202.707 188.595 202.567C186.827 202.426 185.46 201.582 185.52 200.718C185.601 199.834 187.088 199.251 188.856 199.392C190.624 199.533 192.011 200.377 191.93 201.241Z" fill="#2E5B9A"/>
<path d="M191.489 200.818C191.428 201.601 190.082 202.124 188.515 202.003C186.927 201.863 185.702 201.119 185.782 200.335C185.842 199.552 187.189 199.029 188.756 199.15C190.323 199.291 191.549 200.034 191.489 200.818Z" fill="#2E5B9A"/>
<path d="M190.504 200.456C190.464 201.019 189.499 201.401 188.354 201.3C187.208 201.2 186.344 200.677 186.385 200.115C186.425 199.552 187.389 199.17 188.535 199.271C189.66 199.351 190.544 199.894 190.504 200.456Z" fill="#F0CEB4"/>
<path d="M121.281 199.836H66.0047C63.0912 199.836 60.5996 197.726 60.0772 194.833L52.8637 155.048C52.1805 151.291 55.0338 147.835 58.7912 147.835H114.068C116.981 147.835 119.473 149.944 119.995 152.838L127.209 192.622C127.892 196.38 125.039 199.836 121.281 199.836Z" fill="#2E5B9A"/>
<path d="M123.853 192.763L116.499 153.802C115.957 150.969 113.425 148.9 110.451 148.9H54.2903C53.1048 150.266 52.5221 152.135 52.8838 154.104L60.3384 194.732C60.8809 197.686 63.4528 199.836 66.4668 199.836H117.805C121.643 199.836 124.556 196.44 123.853 192.763Z" fill="#A8CEFF"/>
<path d="M110.531 205.16H100.042C98.1732 205.16 96.6461 203.493 96.6461 201.443V182.254C96.6461 178.979 94.2349 176.326 91.2611 176.326H85.7756C82.8018 176.326 80.3906 178.979 80.3906 182.254V203.734C80.3906 207.411 83.1032 210.385 86.4588 210.364L115.092 210.164C115.092 207.391 113.042 205.16 110.531 205.16Z" fill="#2E5B9A"/>
<path d="M80.814 182.676V203.834C80.814 207.27 83.4864 210.083 86.862 210.345L114.812 210.164C114.812 209.702 112.602 208.878 109.889 208.878H98.5362C96.5068 208.878 94.8793 207.23 94.8793 205.221V182.676C94.8793 179.461 92.2671 176.849 89.0522 176.849H86.6611C83.4261 176.849 80.814 179.461 80.814 182.676Z" fill="#A8CEFF"/>
<path d="M139.306 202.727C143.525 200.376 148.689 201.159 150.558 203.51C152.426 205.861 152.748 207.428 148.528 207.428C144.309 207.428 135.849 207.75 134.443 207.589C133.036 207.408 139.306 202.727 139.306 202.727Z" fill="#F09959"/>
<path d="M145.556 201.3C150.097 200.215 153.191 202.847 156.969 205.359C160.244 207.549 160.907 209.679 157.29 207.87C151.965 205.218 148.851 204.897 148.851 204.897L145.556 201.3Z" fill="#F09959"/>
<path d="M141.416 202.707C139.125 202.707 137.116 201.984 135.509 202.104C133.901 202.245 128.777 207.489 129.581 207.891C129.641 207.911 129.702 207.952 129.762 207.972C130.988 208.414 132.354 207.932 133.037 206.826C133.76 205.661 134.946 204.315 136.312 204.797C138.603 205.601 141.014 205.52 141.014 205.52L141.416 202.707Z" fill="#F09959"/>
<path d="M140.09 208.353C137.739 207.409 141.496 199.593 142.742 199.593C143.988 199.593 148.69 203.35 148.69 203.35C148.69 203.35 147.584 203.973 143.847 202.727C142.903 202.406 142.119 207.73 141.034 208.353C139.929 208.976 140.09 208.353 140.09 208.353Z" fill="#F7A96F"/>
<path d="M175.092 125.368C174.871 133.988 177.804 135.434 179.854 136.6C181.903 137.765 190.744 135.836 192.05 133.706C195.366 128.261 192.573 123.178 193.316 123.258C194.06 123.338 194.743 125.448 196.672 128.201C196.853 128.462 198.118 130.15 198.179 129.587C199.083 121.872 203.102 119.48 202.137 111.684C201.434 105.938 197.777 106.4 197.777 106.4C197.777 106.4 195.426 101.597 188.092 102.14C183.189 102.502 178.809 104.41 173.745 105.717C168.682 107.023 179.733 118.496 186.304 114.296C192.874 110.097 189.619 119.34 190.664 120.063C191.709 120.786 191.166 120.164 191.628 124.886C192.111 129.607 186.103 132.702 184.375 133.104C178.869 134.39 177.965 133.485 176.759 131.416C175.735 129.607 175.092 125.368 175.092 125.368Z" fill="#2E5B9A"/>
<path d="M197.859 122.695C197.236 124.866 195.689 126.272 194.423 125.83C193.157 125.388 193.117 123.62 193.257 121.108C193.398 118.838 195.427 117.531 196.693 117.974C197.979 118.416 198.482 120.525 197.859 122.695Z" fill="#F09959"/>
<path d="M77.7006 116.866H30.7627C30.2603 116.866 29.8384 116.444 29.8384 115.942V95.7282C29.8384 95.2258 30.2603 94.8039 30.7627 94.8039H77.7006C78.2029 94.8039 78.6249 95.2258 78.6249 95.7282V115.922C78.6249 116.444 78.2029 116.866 77.7006 116.866Z" fill="#09015D"/>
<path d="M76.5347 115.82H31.9075C31.4856 115.82 31.1641 115.479 31.1641 115.077V101.353C31.1641 100.931 31.5057 100.61 31.9075 100.61H76.5347C76.9567 100.61 77.2781 100.951 77.2781 101.353V115.077C77.2781 115.499 76.9567 115.82 76.5347 115.82Z" fill="white"/>
<path d="M33.3317 98.1605H32.2467C32.0256 98.1605 31.8247 97.9796 31.8247 97.7385V96.8544C31.8247 96.6334 32.0055 96.4325 32.2467 96.4325H33.3317C33.5527 96.4325 33.7537 96.6133 33.7537 96.8544V97.7385C33.7336 97.9796 33.5527 98.1605 33.3317 98.1605Z" fill="white"/>
<path d="M36.8078 98.1605H35.7227C35.5017 98.1605 35.3008 97.9796 35.3008 97.7385V96.8544C35.3008 96.6334 35.4816 96.4325 35.7227 96.4325H36.8078C37.0288 96.4325 37.2297 96.6133 37.2297 96.8544V97.7385C37.2096 97.9796 37.0288 98.1605 36.8078 98.1605Z" fill="white"/>
<path d="M40.2843 98.1605H39.1993C38.9783 98.1605 38.7773 97.9796 38.7773 97.7385V96.8544C38.7773 96.6334 38.9582 96.4325 39.1993 96.4325H40.2843C40.5054 96.4325 40.7063 96.6133 40.7063 96.8544V97.7385C40.6862 97.9796 40.5054 98.1605 40.2843 98.1605Z" fill="white"/>
<path d="M75.4086 103.945H51.0153C50.6135 103.945 50.292 103.624 50.292 103.222C50.292 102.82 50.6135 102.499 51.0153 102.499H75.4086C75.8105 102.499 76.1319 102.82 76.1319 103.222C76.1319 103.604 75.8105 103.945 75.4086 103.945Z" fill="#09015D"/>
<path d="M57.0429 115.198H32.6496C32.2478 115.198 31.9263 114.876 31.9263 114.474C31.9263 114.073 32.2478 113.751 32.6496 113.751H57.0429C57.4447 113.751 57.7662 114.073 57.7662 114.474C57.7863 114.876 57.4447 115.198 57.0429 115.198Z" fill="#09015D"/>
<path d="M61.5453 115.198H59.0136C58.8729 115.198 58.7725 115.077 58.7725 114.957V113.992C58.7725 113.852 58.893 113.751 59.0136 113.751H61.5453C61.686 113.751 61.7865 113.872 61.7865 113.992V114.957C61.8065 115.097 61.686 115.198 61.5453 115.198Z" fill="#09015D"/>
<path d="M65.3627 115.198H62.831C62.6903 115.198 62.5898 115.077 62.5898 114.957V113.992C62.5898 113.852 62.7104 113.751 62.831 113.751H65.3627C65.5034 113.751 65.6038 113.872 65.6038 113.992V114.957C65.6038 115.097 65.4833 115.198 65.3627 115.198Z" fill="#09015D"/>
<path d="M75.6296 107.12H35.2421C34.9608 107.12 34.7397 106.899 34.7397 106.618C34.7397 106.336 34.9608 106.115 35.2421 106.115H75.6296C75.9109 106.115 76.1319 106.336 76.1319 106.618C76.1319 106.899 75.9109 107.12 75.6296 107.12Z" fill="#09015D"/>
<path d="M75.6296 109.25H35.2421C34.9608 109.25 34.7397 109.029 34.7397 108.748C34.7397 108.467 34.9608 108.246 35.2421 108.246H75.6296C75.9109 108.246 76.1319 108.467 76.1319 108.748C76.1319 109.029 75.9109 109.25 75.6296 109.25Z" fill="#09015D"/>
<path d="M88.7094 132.359H41.7715C41.2691 132.359 40.8472 131.937 40.8472 131.434V111.221C40.8472 110.718 41.2691 110.296 41.7715 110.296H88.7094C89.2117 110.296 89.6336 110.718 89.6336 111.221V131.414C89.6336 131.937 89.2318 132.359 88.7094 132.359Z" fill="#2E5B9A"/>
<path d="M87.564 131.313H42.9368C42.5149 131.313 42.1934 130.972 42.1934 130.57V116.846C42.1934 116.424 42.535 116.103 42.9368 116.103H87.564C87.986 116.103 88.3074 116.444 88.3074 116.846V130.57C88.3074 130.972 87.9659 131.313 87.564 131.313Z" fill="white"/>
<path d="M44.3434 113.63H43.2584C43.0374 113.63 42.8364 113.449 42.8364 113.208V112.324C42.8364 112.103 43.0173 111.902 43.2584 111.902H44.3434C44.5644 111.902 44.7654 112.083 44.7654 112.324V113.208C44.7654 113.449 44.5845 113.63 44.3434 113.63Z" fill="white"/>
<path d="M47.8195 113.63H46.7345C46.5134 113.63 46.3125 113.449 46.3125 113.208V112.324C46.3125 112.103 46.4933 111.902 46.7345 111.902H47.8195C48.0405 111.902 48.2414 112.083 48.2414 112.324V113.208C48.2414 113.449 48.0606 113.63 47.8195 113.63Z" fill="white"/>
<path d="M51.2961 113.63H50.211C49.99 113.63 49.7891 113.449 49.7891 113.208V112.324C49.7891 112.103 49.9699 111.902 50.211 111.902H51.2961C51.5171 111.902 51.718 112.083 51.718 112.324V113.208C51.718 113.449 51.5372 113.63 51.2961 113.63Z" fill="white"/>
<path d="M86.4379 119.418H62.0446C61.6428 119.418 61.3213 119.097 61.3213 118.695C61.3213 118.293 61.6428 117.972 62.0446 117.972H86.4379C86.8398 117.972 87.1612 118.293 87.1612 118.695C87.1612 119.097 86.8398 119.418 86.4379 119.418Z" fill="#2E5B9A"/>
<path d="M68.0741 130.691H43.6809C43.279 130.691 42.9575 130.369 42.9575 129.967C42.9575 129.565 43.279 129.244 43.6809 129.244H68.0741C68.476 129.244 68.7975 129.565 68.7975 129.967C68.8176 130.369 68.476 130.691 68.0741 130.691Z" fill="#2E5B9A"/>
<path d="M72.5751 130.691H70.0434C69.9027 130.691 69.8022 130.57 69.8022 130.45V129.485C69.8022 129.344 69.9228 129.244 70.0434 129.244H72.5751C72.7158 129.244 72.8162 129.365 72.8162 129.485V130.45C72.8162 130.57 72.7158 130.691 72.5751 130.691Z" fill="#2E5B9A"/>
<path d="M76.372 130.691H73.8402C73.6996 130.691 73.5991 130.57 73.5991 130.45V129.485C73.5991 129.344 73.7197 129.244 73.8402 129.244H76.372C76.5126 129.244 76.6131 129.365 76.6131 129.485V130.45C76.6332 130.57 76.5126 130.691 76.372 130.691Z" fill="#2E5B9A"/>
<path d="M86.6589 122.615H46.2514C45.97 122.615 45.749 122.394 45.749 122.112C45.749 121.831 45.97 121.61 46.2514 121.61H86.6589C86.9402 121.61 87.1613 121.831 87.1613 122.112C87.1613 122.394 86.9402 122.615 86.6589 122.615Z" fill="#2E5B9A"/>
<path d="M86.6589 124.743H46.2514C45.97 124.743 45.749 124.522 45.749 124.241C45.749 123.959 45.97 123.738 46.2514 123.738H86.6589C86.9402 123.738 87.1613 123.959 87.1613 124.241C87.1613 124.522 86.9402 124.743 86.6589 124.743Z" fill="#2E5B9A"/>
<path d="M147.585 97.5402H107.318C106.294 97.5402 105.45 96.6962 105.45 95.6715V81.2847C105.45 80.2599 106.294 79.416 107.318 79.416H147.585C148.61 79.416 149.454 80.2599 149.454 81.2847V95.6715C149.474 96.6962 148.63 97.5402 147.585 97.5402Z" fill="#09015D"/>
<path d="M110.753 94.7872V104.794L122.287 93.2601C122.287 93.2601 110.995 94.7872 110.753 94.7872Z" fill="#09015D"/>
<path d="M145.596 95.7315H109.308C108.424 95.7315 107.72 95.0081 107.72 94.1441V82.7713C107.72 81.8872 108.444 81.184 109.308 81.184H145.596C146.48 81.184 147.183 81.9073 147.183 82.7713V94.1441C147.183 95.0081 146.48 95.7315 145.596 95.7315Z" fill="white"/>
<path d="M129.219 84.7805H111.396C110.974 84.7805 110.613 84.4188 110.613 83.9968C110.613 83.5749 110.974 83.2132 111.396 83.2132H129.219C129.641 83.2132 130.003 83.5749 130.003 83.9968C129.983 84.4389 129.641 84.7805 129.219 84.7805Z" fill="#09015D"/>
<path d="M144.109 87.7753H111.035C110.794 87.7753 110.593 87.5744 110.593 87.3333C110.593 87.0921 110.794 86.8912 111.035 86.8912H144.109C144.35 86.8912 144.551 87.0921 144.551 87.3333C144.531 87.5744 144.35 87.7753 144.109 87.7753Z" fill="#09015D"/>
<path d="M144.109 89.4837H111.035C110.794 89.4837 110.593 89.2827 110.593 89.0416C110.593 88.8005 110.794 88.5996 111.035 88.5996H144.109C144.35 88.5996 144.551 88.8005 144.551 89.0416C144.531 89.2827 144.35 89.4837 144.109 89.4837Z" fill="#09015D"/>
<path d="M137.279 95.1099H136.194C135.973 95.1099 135.772 94.929 135.772 94.6879V93.8038C135.772 93.5828 135.953 93.3819 136.194 93.3819H137.279C137.5 93.3819 137.701 93.5627 137.701 93.8038V94.6879C137.681 94.929 137.5 95.1099 137.279 95.1099Z" fill="#09015D"/>
<path d="M140.756 95.1099H139.67C139.449 95.1099 139.249 94.929 139.249 94.6879V93.8038C139.249 93.5828 139.429 93.3819 139.67 93.3819H140.756C140.977 93.3819 141.177 93.5627 141.177 93.8038V94.6879C141.157 94.929 140.977 95.1099 140.756 95.1099Z" fill="#09015D"/>
<path d="M144.232 95.1099H143.147C142.926 95.1099 142.725 94.929 142.725 94.6879V93.8038C142.725 93.5828 142.906 93.3819 143.147 93.3819H144.232C144.453 93.3819 144.654 93.5627 144.654 93.8038V94.6879C144.634 94.929 144.453 95.1099 144.232 95.1099Z" fill="#09015D"/>
<path d="M108 127C108 130.867 104.867 134 101 134C97.1333 134 94 130.867 94 127C94 123.133 97.1333 120 101 120C104.867 120 108 123.133 108 127Z" fill="#9CD499"/>
<path d="M103.453 127.012C103.453 127.012 103.505 130.697 102.682 130.982C102.615 131.005 102.556 131.005 102.504 130.985C101.917 130.766 102.202 128.065 101.422 127.882H100.578C99.7287 128.08 100.141 131.267 99.3178 130.982C99.2693 130.964 99.2249 130.938 99.1872 130.903C99.1846 130.901 99.1816 130.898 99.1789 130.896C98.5005 130.268 98.5468 127.012 98.5468 127.012C97.8391 125.907 98.021 124.408 98.021 124.408C97.9565 123.482 99.1305 122.706 99.8127 123.11C100.231 123.358 100.7 123.46 101 123.502C101.248 123.467 101.612 123.392 101.967 123.226C102.043 123.191 102.117 123.152 102.188 123.11C102.87 122.706 104.044 123.481 103.979 124.408C103.979 124.408 104.161 125.907 103.453 127.012Z" fill="white"/>
</svg>
