<svg width="250" height="23" viewBox="0 0 250 23" fill="none" xmlns="http://www.w3.org/2000/svg">
<path d="M140 14.7036C141.058 15.6483 141.992 16 144.529 16C146.363 16 147.941 15.4208 149 14.4837C148.858 13.5511 146.774 12.7252 145.639 13.0869C144.399 13.4825 142.919 12.9899 142.146 13.2057C141.296 13.4394 140.284 13.8564 140 14.7036Z" fill="#ED7D77"/>
<path d="M161 14.7036C162.058 15.6483 162.992 16 165.529 16C167.363 16 168.941 15.4208 170 14.4837C169.858 13.5511 167.774 12.7252 166.639 13.0869C165.399 13.4825 163.919 12.9899 163.146 13.2057C162.296 13.4394 161.284 13.8564 161 14.7036Z" fill="#ED7D77"/>
<path d="M178.459 3.45665H180.736V22.0694H178.459V3.45665Z" fill="#09015D"/>
<path d="M199.223 3.45665H201.5V23L187.302 8.21618V22.0694H185.025V2.52601L199.223 17.3098V3.45665Z" fill="#09015D"/>
<path d="M205.796 3.45665H208.073V22.0694H205.796V3.45665Z" fill="#09015D"/>
<path d="M211.291 12.763C211.291 11.3981 211.523 10.1395 211.987 8.98728C212.469 7.81734 213.139 6.80694 213.996 5.95607C214.854 5.08748 215.863 4.41387 217.023 3.93526C218.184 3.43892 219.443 3.19075 220.8 3.19075C222.176 3.19075 223.435 3.43892 224.577 3.93526C225.738 4.41387 226.747 5.08748 227.604 5.95607C228.462 6.80694 229.122 7.81734 229.587 8.98728C230.069 10.1395 230.31 11.3981 230.31 12.763C230.31 14.1102 230.069 15.3688 229.587 16.5387C229.122 17.7087 228.462 18.7279 227.604 19.5965C226.747 20.4474 225.738 21.121 224.577 21.6173C223.435 22.096 222.176 22.3353 220.8 22.3353C219.443 22.3353 218.184 22.096 217.023 21.6173C215.863 21.121 214.854 20.4474 213.996 19.5965C213.139 18.7279 212.469 17.7087 211.987 16.5387C211.523 15.3688 211.291 14.1102 211.291 12.763ZM213.702 12.763C213.702 14.1634 214.005 15.4131 214.612 16.5121C215.238 17.6112 216.086 18.4798 217.157 19.1179C218.229 19.7561 219.443 20.0751 220.8 20.0751C222.176 20.0751 223.39 19.7561 224.444 19.1179C225.515 18.4798 226.354 17.6112 226.962 16.5121C227.587 15.4131 227.899 14.1634 227.899 12.763C227.899 11.3626 227.587 10.1129 226.962 9.01387C226.354 7.91484 225.515 7.04624 224.444 6.40809C223.39 5.76994 222.176 5.45087 220.8 5.45087C219.443 5.45087 218.229 5.76994 217.157 6.40809C216.086 7.04624 215.238 7.91484 214.612 9.01387C214.005 10.1129 213.702 11.3626 213.702 12.763Z" fill="#09015D"/>
<path d="M247.723 3.45665H250V23L235.803 8.21618V22.0694H233.526V2.52601L247.723 17.3098V3.45665Z" fill="#09015D"/>
<path d="M136.671 8.80105V3.77562L153.547 3.77562V8.80105C153.547 10.4283 153.193 11.8722 152.486 13.1325C151.779 14.3928 150.791 15.382 149.521 16.0999C148.267 16.8178 146.796 17.1768 145.109 17.1768C143.421 17.1768 141.943 16.8178 140.673 16.0999C139.419 15.382 138.439 14.3928 137.732 13.1325C137.024 11.8722 136.671 10.4283 136.671 8.80105ZM151.498 8.80105V5.80972L138.72 5.80972V8.80105C138.72 10.0614 138.977 11.1622 139.492 12.1035C140.022 13.0607 140.761 13.8026 141.71 14.329C142.674 14.8715 143.807 15.1427 145.109 15.1427C146.427 15.1427 147.56 14.8715 148.508 14.329C149.456 13.8026 150.188 13.0607 150.702 12.1035C151.233 11.1622 151.498 10.0614 151.498 8.80105Z" fill="#09015D"/>
<path d="M138.184 1.11666C138.184 0.831264 138.284 0.5893 138.484 0.390764C138.697 0.192228 138.941 0.0929597 139.216 0.0929597C139.503 0.0929597 139.747 0.192228 139.947 0.390764C140.147 0.5893 140.247 0.831264 140.247 1.11666C140.247 1.38965 140.147 1.63161 139.947 1.84256C139.747 2.04109 139.503 2.14036 139.216 2.14036C138.941 2.14036 138.697 2.04109 138.484 1.84256C138.284 1.63161 138.184 1.38965 138.184 1.11666Z" fill="#09015D"/>
<path d="M149.428 1.11666C149.428 0.831264 149.528 0.5893 149.728 0.390764C149.94 0.192228 150.184 0.0929597 150.459 0.0929597C150.747 0.0929597 150.99 0.192228 151.19 0.390764C151.39 0.5893 151.49 0.831264 151.49 1.11666C151.49 1.38965 151.39 1.63161 151.19 1.84256C150.99 2.04109 150.747 2.14036 150.459 2.14036C150.184 2.14036 149.94 2.04109 149.728 1.84256C149.528 1.63161 149.428 1.38965 149.428 1.11666Z" fill="#09015D"/>
<path fill-rule="evenodd" clip-rule="evenodd" d="M136.671 22.0693L136.671 3.98834L138.814 3.98836L138.814 22.0693L136.671 22.0693Z" fill="#09015D"/>
<path d="M157.565 8.70809V3.68266L174.441 3.68266V8.70809C174.441 10.3354 174.088 11.7792 173.381 13.0395C172.673 14.2999 171.685 15.289 170.415 16.0069C169.161 16.7249 167.691 17.0838 166.003 17.0838C164.316 17.0838 162.837 16.7249 161.567 16.0069C160.314 15.289 159.333 14.2999 158.626 13.0395C157.919 11.7792 157.565 10.3354 157.565 8.70809ZM172.392 8.70809V5.71676L159.614 5.71676V8.70809C159.614 9.96844 159.872 11.0692 160.386 12.0105C160.916 12.9677 161.656 13.7096 162.604 14.2361C163.568 14.7785 164.701 15.0497 166.003 15.0497C167.321 15.0497 168.454 14.7785 169.403 14.2361C170.351 13.7096 171.082 12.9677 171.596 12.0105C172.127 11.0692 172.392 9.96844 172.392 8.70809Z" fill="#09015D"/>
<path d="M159.079 1.0237C159.079 0.738304 159.179 0.49634 159.379 0.297804C159.591 0.0992685 159.835 0 160.11 0C160.397 0 160.641 0.0992685 160.841 0.297804C161.041 0.49634 161.141 0.738304 161.141 1.0237C161.141 1.29669 161.041 1.53865 160.841 1.7496C160.641 1.94813 160.397 2.0474 160.11 2.0474C159.835 2.0474 159.591 1.94813 159.379 1.7496C159.179 1.53865 159.079 1.29669 159.079 1.0237Z" fill="#09015D"/>
<path d="M170.322 1.0237C170.322 0.738304 170.422 0.49634 170.622 0.297804C170.835 0.0992685 171.078 0 171.353 0C171.641 0 171.885 0.0992685 172.085 0.297804C172.285 0.49634 172.385 0.738304 172.385 1.0237C172.385 1.29669 172.285 1.53865 172.085 1.7496C171.885 1.94813 171.641 2.0474 171.353 2.0474C171.078 2.0474 170.835 1.94813 170.622 1.7496C170.422 1.53865 170.322 1.29669 170.322 1.0237Z" fill="#09015D"/>
<path fill-rule="evenodd" clip-rule="evenodd" d="M157.565 21.9763L157.565 3.89538L159.708 3.8954L159.708 21.9763L157.565 21.9763Z" fill="#09015D"/>
<path d="M1.82156 16.4324C2.4466 17.5669 3.14308 18.4798 3.911 19.1711C4.69677 19.8624 5.65219 20.2081 6.77727 20.2081C7.77734 20.2081 8.58097 19.9333 9.18816 19.3838C9.79535 18.8343 10.0989 18.1341 10.0989 17.2832C10.0989 16.4501 9.9025 15.7854 9.50961 15.289C9.11673 14.7927 8.59883 14.3938 7.95593 14.0925C7.33088 13.7734 6.66119 13.4898 5.94686 13.2416C5.48254 13.0821 4.96464 12.8782 4.39317 12.6301C3.8217 12.3642 3.27702 12.0362 2.75913 11.6462C2.24123 11.2385 1.81263 10.7422 1.47332 10.1572C1.15187 9.57225 0.991143 8.85433 0.991143 8.00347C0.991143 7.08169 1.2233 6.25742 1.68762 5.53063C2.15194 4.80385 2.79484 4.23661 3.61633 3.8289C4.43782 3.40347 5.37539 3.19075 6.42903 3.19075C7.44696 3.19075 8.33096 3.38574 9.08101 3.77572C9.84892 4.14798 10.5008 4.63545 11.0365 5.23815C11.5723 5.82312 11.9919 6.44354 12.2955 7.09942L10.34 8.21618C10.1079 7.7553 9.8132 7.30327 9.45604 6.86012C9.09887 6.41696 8.66134 6.05356 8.14344 5.76994C7.64341 5.48632 7.02729 5.34451 6.29509 5.34451C5.27716 5.34451 4.53604 5.59268 4.07172 6.08902C3.6074 6.56763 3.37524 7.10828 3.37524 7.71098C3.37524 8.49094 3.68776 9.17341 4.31281 9.75838C4.93785 10.3434 6.07186 10.9195 7.71484 11.4867C8.21488 11.664 8.7417 11.8944 9.29531 12.178C9.84892 12.4617 10.3579 12.825 10.8222 13.2682C11.3044 13.6936 11.6973 14.2166 12.0009 14.837C12.3045 15.4397 12.4563 16.1665 12.4563 17.0173C12.4563 18.0987 12.1794 19.0382 11.6258 19.8358C11.0901 20.6335 10.3847 21.254 9.50961 21.6971C8.63455 22.1225 7.69698 22.3353 6.69691 22.3353C5.67898 22.3353 4.73248 22.1225 3.85742 21.6971C3.00022 21.254 2.24123 20.6778 1.58047 19.9688C0.937567 19.242 0.410744 18.4709 0 17.6555L1.82156 16.4324Z" fill="#09015D"/>
<path d="M15.8007 3.45665H26.5158V5.58382H18.0777V10.9017H25.98V13.0289H18.0777V19.9422H26.5158V22.0694H15.8007V3.45665Z" fill="#09015D"/>
<path d="M31.8681 12.763C31.8681 14.1988 32.1895 15.4663 32.8324 16.5653C33.4932 17.6644 34.3504 18.5241 35.404 19.1445C36.4577 19.7649 37.6006 20.0751 38.8329 20.0751C40.1544 20.0751 41.3241 19.8181 42.342 19.304C43.36 18.79 44.1993 18.1252 44.8601 17.3098V20.2879C44.0743 20.9792 43.2171 21.4933 42.2885 21.8301C41.3598 22.1669 40.208 22.3353 38.8329 22.3353C37.5292 22.3353 36.3059 22.1048 35.163 21.6439C34.0379 21.1653 33.0467 20.5006 32.1895 19.6497C31.3323 18.7811 30.6626 17.7619 30.1805 16.5919C29.6983 15.422 29.4572 14.1457 29.4572 12.763C29.4572 11.3803 29.6983 10.104 30.1805 8.9341C30.6626 7.76416 31.3323 6.75376 32.1895 5.90289C33.0467 5.0343 34.0379 4.36956 35.163 3.90867C36.3059 3.43006 37.5292 3.19075 38.8329 3.19075C40.208 3.19075 41.3598 3.35915 42.2885 3.69595C43.2171 4.03275 44.0743 4.54682 44.8601 5.23815V8.21618C44.1993 7.38304 43.36 6.7183 42.342 6.22196C41.3241 5.7079 40.1544 5.45087 38.8329 5.45087C37.6006 5.45087 36.4577 5.76108 35.404 6.3815C34.3504 7.00193 33.4932 7.86166 32.8324 8.96069C32.1895 10.042 31.8681 11.3094 31.8681 12.763Z" fill="#09015D"/>
<path d="M47.7952 12.763C47.7952 11.3981 48.0274 10.1395 48.4917 8.98728C48.9739 7.81734 49.6436 6.80694 50.5008 5.95607C51.358 5.08748 52.367 4.41387 53.5278 3.93526C54.6886 3.43892 55.9476 3.19075 57.3048 3.19075C58.6799 3.19075 59.9389 3.43892 61.0819 3.93526C62.2427 4.41387 63.2517 5.08748 64.1089 5.95607C64.9661 6.80694 65.6268 7.81734 66.0912 8.98728C66.5733 10.1395 66.8144 11.3981 66.8144 12.763C66.8144 14.1102 66.5733 15.3688 66.0912 16.5387C65.6268 17.7087 64.9661 18.7279 64.1089 19.5965C63.2517 20.4474 62.2427 21.121 61.0819 21.6173C59.9389 22.096 58.6799 22.3353 57.3048 22.3353C55.9476 22.3353 54.6886 22.096 53.5278 21.6173C52.367 21.121 51.358 20.4474 50.5008 19.5965C49.6436 18.7279 48.9739 17.7087 48.4917 16.5387C48.0274 15.3688 47.7952 14.1102 47.7952 12.763ZM50.2061 12.763C50.2061 14.1634 50.5097 15.4131 51.1169 16.5121C51.7419 17.6112 52.5902 18.4798 53.6617 19.1179C54.7332 19.7561 55.9476 20.0751 57.3048 20.0751C58.6799 20.0751 59.8943 19.7561 60.9479 19.1179C62.0194 18.4798 62.8588 17.6112 63.466 16.5121C64.091 15.4131 64.4035 14.1634 64.4035 12.763C64.4035 11.3626 64.091 10.1129 63.466 9.01387C62.8588 7.91484 62.0194 7.04624 60.9479 6.40809C59.8943 5.76994 58.6799 5.45087 57.3048 5.45087C55.9476 5.45087 54.7332 5.76994 53.6617 6.40809C52.5902 7.04624 51.7419 7.91484 51.1169 9.01387C50.5097 10.1129 50.2061 11.3626 50.2061 12.763Z" fill="#09015D"/>
<path d="M84.2274 3.45665H86.5044V23L72.3069 8.21618V22.0694H70.03V2.52601L84.2274 17.3098V3.45665Z" fill="#09015D"/>
<path d="M96.4263 22.0694H90.8009V3.45665H96.4263C98.2478 3.45665 99.864 3.84663 101.275 4.62659C102.686 5.40655 103.793 6.49672 104.597 7.89711C105.4 9.27977 105.802 10.9017 105.802 12.763C105.802 14.6243 105.4 16.2551 104.597 17.6555C103.793 19.0382 102.686 20.1195 101.275 20.8994C99.864 21.6794 98.2478 22.0694 96.4263 22.0694ZM96.4263 5.71676H93.0778V19.8092H96.4263C97.8371 19.8092 99.0693 19.5256 100.123 18.9584C101.194 18.3734 102.025 17.558 102.614 16.5121C103.221 15.4486 103.525 14.1988 103.525 12.763C103.525 11.3094 103.221 10.0597 102.614 9.01387C102.025 7.96801 101.194 7.16146 100.123 6.59422C99.0693 6.00925 97.8371 5.71676 96.4263 5.71676Z" fill="#09015D"/>
<path d="M129.897 22.0694L127.513 16.4855H119.959L117.575 22.0694H115.03L123.736 2.52601L132.442 22.0694H129.897ZM123.736 7.6578L120.87 14.3584H126.602L123.736 7.6578Z" fill="#09015D"/>
<path d="M167.049 16.0126L166.164 14.5239L167.896 14.502L167.049 16.0126Z" fill="white"/>
<path d="M146.049 16.0126L145.164 14.5239L146.896 14.502L146.049 16.0126Z" fill="white"/>
<path d="M165.025 16.0126L164.14 14.5239L165.872 14.502L165.025 16.0126Z" fill="white"/>
<path d="M144.025 16.0126L143.14 14.5239L144.872 14.502L144.025 16.0126Z" fill="white"/>
</svg>
