<svg width="292" height="284" viewBox="0 0 292 284" fill="none" xmlns="http://www.w3.org/2000/svg">
<path d="M259.081 244.053C253.249 250.163 247.73 254.104 243.371 257.217C192.125 293.816 131.487 283.147 118.599 280.542C99.5697 276.695 62.7843 269.259 36.1886 238.129C-4.04745 191.037 2.21803 116.833 33.4283 67.852C39.137 58.8928 69.2922 9.16588 130.583 1.1913C167.676 -3.63395 210.917 6.09936 242.226 32.2103C307.952 87.0201 303.273 197.744 259.081 244.053Z" fill="#D1E6FF"/>
<path d="M95.5196 105.784C96.3977 126.945 96.1711 138.417 88.466 147.227C80.761 156.037 59.1471 153.856 59.1471 153.856C59.1471 153.856 57.0225 185.016 26.7971 186.347C-3.40004 187.679 -7.76247 147.539 15.9193 137.256C38.4397 127.455 45.6065 124.622 53.3966 100.345C60.5068 78.193 82.7156 82.4138 88.0128 91.6769C93.3384 100.94 95.5196 105.784 95.5196 105.784Z" fill="#303C60"/>
<path d="M85.6044 213.824C85.6044 213.824 99.8531 216.629 100.59 216.459C101.326 216.317 116.906 209.405 118.521 210.425C120.136 211.445 129.54 215.411 131.608 216.317C133.676 217.195 130.418 217.507 128.804 217.507C127.189 217.507 117.926 213.683 116.906 214.419C115.886 215.156 124.98 216.629 124.98 217.224C124.98 217.818 100.59 223.399 99.1166 223.399C97.6436 223.399 86.3409 222.379 86.3409 222.379L85.6044 213.824Z" fill="#E38540"/>
<path d="M73.7621 135.952C81.4389 137.454 85.9713 145.584 87.4443 152.694C88.9174 159.804 73.7621 135.952 73.7621 135.952Z" fill="#6791C9"/>
<path d="M60.9048 130.485C60.9048 130.485 46.1179 140.399 38.1862 145.271C30.2545 150.115 41.0472 202.38 43.71 221.784C46.3445 241.188 92.235 223.54 92.235 223.54C92.235 223.54 89.1473 207.224 93.1132 180.992C95.9459 162.183 85.5497 150.427 79.601 142.269C64.5591 121.646 60.9048 130.485 60.9048 130.485Z" fill="#77ADEF"/>
<path d="M46.3726 145.471C63.3408 166.206 69.0913 170.087 64.8988 184.053C61.5845 195.072 60.4797 199.038 59.8282 202.806C59.1766 206.545 91.3567 200.369 91.3567 200.369L91.1301 212.494C91.1301 212.494 65.777 224.618 53.4262 227.054C41.0754 229.49 33.3703 226.601 33.3703 226.601L46.3726 145.471Z" fill="#6791C9"/>
<path d="M258.968 228.497H58.0696C56.6249 228.497 55.4351 227.308 55.4351 225.863C55.4351 224.418 56.6249 223.228 58.0696 223.228H258.968C260.413 223.228 261.603 224.418 261.603 225.863C261.603 227.336 260.413 228.497 258.968 228.497Z" fill="#2E5B9A"/>
<path d="M66.3423 109.607L58.6938 132.241C58.6938 132.241 67.0788 154.96 74.1323 149.889C76.5402 148.161 73.2542 134.451 73.2542 134.451L78.4098 116.066L66.3423 109.607Z" fill="#F09959"/>
<path d="M41.9528 144.593C31.3866 145.754 30.4801 160.031 25.6361 183.855C20.7921 207.678 22.2368 223.4 24.5313 226.403C30.0552 233.683 92.0074 208.33 99.7125 208.528C105.038 208.67 100.591 199.718 100.591 199.718L41.4995 208.755C41.4995 208.755 49.8845 181.192 49.8845 167.085C49.8845 152.978 45.9186 144.168 41.9528 144.593Z" fill="#F09959"/>
<path d="M96.8522 200.171C103.028 198.641 112.064 195.1 113.82 196.63C115.577 198.159 122.857 209.207 125.293 212.295C127.729 215.382 124.188 212.946 121.554 210.538C118.919 208.102 116.71 206.799 116.71 206.799C116.71 206.799 113.395 209.887 110.308 211.643C107.22 213.4 106.115 209.887 100.818 209.009C95.5208 208.131 82.2918 212.748 82.2918 212.748L96.8522 200.171Z" fill="#F09959"/>
<path d="M43.1146 142.837C36.6559 143.12 31.642 148.559 29.8857 156.944C28.1293 165.329 22.9737 191.929 22.9737 191.929C22.9737 191.929 21.954 192.665 32.6901 194.563C43.4262 196.461 52.2361 194.28 52.2361 194.28C52.2361 194.28 54.4456 179.125 53.8507 168.7C53.2558 158.275 50.9047 148.418 47.0804 145.018C43.2846 141.647 43.1146 142.837 43.1146 142.837Z" fill="#77ADEF"/>
<path d="M73.2533 134.451L78.4089 116.066L66.3414 109.607L64.5001 115.046C64.1035 133.289 68.7776 139.408 71.9219 141.646C72.9134 142.354 73.7632 141.816 74.4714 140.654C73.9615 137.368 73.2533 134.451 73.2533 134.451Z" fill="#E38540"/>
<path d="M97.7295 111.734C97.7295 121.564 96.5681 133.631 88.0132 133.348C74.7842 132.895 66.4559 122.612 66.4559 112.782C66.4559 102.952 73.3678 94.9641 81.8944 94.9641C90.4493 94.9925 97.7295 101.904 97.7295 111.734Z" fill="#F09959"/>
<path d="M196.479 223.229H146.878L167.274 178.358C167.869 177.055 169.172 176.206 170.616 176.206H215.629C216.677 176.206 217.357 177.282 216.932 178.217L196.479 223.229Z" fill="#9BD6E8"/>
<path d="M196.366 223.23H104.868C104.868 220.029 107.446 217.452 110.647 217.452H196.366V223.23Z" fill="#9BD6E8"/>
<path d="M215.629 176.206H175.97C174.525 176.206 173.222 177.055 172.627 178.358L152.232 223.229H196.479L216.932 178.217C217.356 177.282 216.677 176.206 215.629 176.206Z" fill="#7BCEE8"/>
<path d="M83.1979 91.5635C92.5743 90.9119 98.1265 99.4668 99.7412 106.974C100.903 112.384 100.336 113.432 100.336 113.432C100.336 113.432 99.3163 114.905 91.9511 115.33C84.6143 115.783 83.7078 115.614 83.7078 115.614L83.2546 107.087L81.0451 115.33C81.0451 115.33 79.8553 116.945 75.3229 114.735C70.7622 112.526 68.6943 105.189 68.6943 105.189C68.6943 105.189 67.6745 100.345 71.1871 97.1156C74.728 93.8863 83.1979 91.5635 83.1979 91.5635Z" fill="#303C60"/>
<path d="M76.2003 113.688C75.2938 119.636 70.5631 123.857 65.6058 123.092C60.6485 122.356 57.3625 116.917 58.269 110.968C59.1755 105.019 63.9062 100.799 68.8635 101.563C73.8208 102.3 77.1068 107.739 76.2003 113.688Z" fill="#D54A41"/>
<path d="M72.6302 113.517C71.8087 119.013 67.8995 123.007 63.9336 122.412C59.9678 121.817 57.4183 116.86 58.2398 111.364C59.0613 105.869 62.9705 101.875 66.9364 102.469C70.9022 103.064 73.4517 108.022 72.6302 113.517Z" fill="#F39892"/>
<path d="M66.541 112.3C66.0877 115.331 64.4447 117.597 62.8584 117.342C61.2721 117.116 60.3656 114.453 60.8188 111.422C61.2721 108.391 62.9151 106.125 64.5014 106.38C66.1161 106.635 67.0225 109.269 66.541 112.3Z" fill="#F2E5DE"/>
<path d="M66.3136 101.704C70.6194 85.7271 85.463 88.05 89.2022 90.2878C92.3749 92.1574 92.7998 94.8202 92.7998 94.8202C92.7998 94.8202 88.7206 91.5059 81.7804 92.724C75.1801 93.8854 71.2709 97.7663 70.7044 102.072C70.4494 104.225 66.3136 101.704 66.3136 101.704Z" fill="#D54A41"/>
<path d="M0.339933 153.317H0.311604C0.113312 153.289 0 153.147 0 152.949C0.396585 148.898 2.40784 144.762 5.69383 141.25C9.40473 137.284 14.702 134.168 20.9623 132.213C34.9561 127.879 47.1653 122.384 54.842 98.7586C54.8987 98.5886 55.097 98.4753 55.267 98.5319C55.4369 98.5886 55.5502 98.7869 55.4936 98.9569C51.981 109.806 47.1653 117.71 40.8199 123.12C35.2111 127.879 28.9224 130.457 21.1606 132.865C14.9853 134.763 9.80132 137.822 6.1754 141.703C3.00272 145.102 1.04812 149.125 0.679867 153.006C0.679867 153.176 0.509898 153.317 0.339933 153.317Z" fill="#303C60"/>
<path d="M6.65573 137.001C6.54242 137.001 6.45744 136.945 6.40079 136.86C6.28748 136.718 6.31581 136.492 6.45745 136.378C6.5141 136.322 12.4912 131.761 21.1594 129.835C37.7593 126.18 48.9204 116.181 53.3961 100.969C53.4528 100.799 53.6511 100.686 53.821 100.742C53.991 100.799 54.1043 100.997 54.0476 101.167C51.2715 110.572 46.0593 117.994 38.5525 123.234C33.7085 126.605 27.9014 129.041 21.3011 130.514C12.8028 132.384 6.93901 136.888 6.88236 136.916C6.8257 136.973 6.74072 137.001 6.65573 137.001Z" fill="#303C60"/>
<path d="M219.536 132.131H174.75C174.325 132.131 174.127 131.791 174.269 131.366L183.362 106.409C183.503 105.984 183.985 105.644 184.41 105.644H229.196C229.62 105.644 229.819 105.984 229.677 106.409L220.584 131.366C220.414 131.791 219.961 132.131 219.536 132.131Z" fill="#D1E6FF"/>
<path d="M218.999 130.94H176.14C175.743 130.94 175.545 130.628 175.687 130.231L183.958 107.513C184.1 107.116 184.525 106.804 184.921 106.804H227.781C228.177 106.804 228.376 107.116 228.234 107.513L219.963 130.231C219.821 130.628 219.396 130.94 218.999 130.94Z" fill="white"/>
<path d="M218.233 129.467H178.008C177.555 129.467 177.328 129.099 177.498 128.674L184.608 109.071C184.778 108.618 185.26 108.278 185.685 108.278H225.91C226.363 108.278 226.59 108.646 226.42 109.071L219.281 128.674C219.139 129.127 218.658 129.467 218.233 129.467Z" fill="#D1E6FF"/>
<path d="M205.908 123.586C209.644 120.469 210.909 115.829 208.734 113.222C206.559 110.615 201.767 111.029 198.031 114.147C194.296 117.264 193.03 121.904 195.206 124.511C197.381 127.118 202.172 126.704 205.908 123.586Z" fill="white"/>
<path d="M208.291 118.873C207.016 122.358 203.164 125.19 199.651 125.19C196.167 125.19 194.354 122.358 195.628 118.873C196.903 115.389 200.756 112.556 204.268 112.556C207.753 112.556 209.566 115.389 208.291 118.873Z" fill="#D1E6FF"/>
<path d="M205.204 118.532L202.399 119.863L199.595 121.223L200.586 118.532L201.549 115.869L203.391 117.2L205.204 118.532Z" fill="white"/>
<path d="M151.751 104.029H148.21C147.474 104.029 146.851 103.717 146.482 103.207C146.086 102.641 146.029 101.904 146.312 101.139L147.587 97.5984C148.097 96.2387 149.542 95.1623 150.93 95.1623H154.471C155.207 95.1623 155.83 95.4739 156.199 95.9838C156.595 96.5503 156.652 97.2868 156.369 98.0517L155.094 101.593C154.584 102.981 153.139 104.029 151.751 104.029ZM150.958 96.5503C150.165 96.5503 149.202 97.2585 148.89 98.08L147.615 101.621C147.502 101.961 147.502 102.244 147.644 102.442C147.785 102.641 148.04 102.697 148.239 102.697H151.751C152.573 102.697 153.508 101.989 153.819 101.168L155.094 97.6268C155.207 97.2868 155.207 97.0036 155.066 96.8053C154.924 96.607 154.669 96.5503 154.471 96.5503H150.958Z" fill="#9CD499"/>
<path d="M146.282 119.042H142.742C142.005 119.042 141.382 118.731 141.014 118.221C140.617 117.654 140.56 116.918 140.844 116.153L142.118 112.612C142.628 111.252 144.073 110.176 145.461 110.176H149.002C149.738 110.176 150.362 110.487 150.73 110.997C151.127 111.564 151.183 112.3 150.9 113.065L149.625 116.606C149.144 117.966 147.671 119.042 146.282 119.042ZM145.489 111.536C144.696 111.536 143.733 112.244 143.421 113.065L142.147 116.606C142.033 116.946 142.033 117.229 142.175 117.428C142.317 117.626 142.572 117.683 142.77 117.683H146.311C147.132 117.683 148.067 116.974 148.379 116.153L149.653 112.612C149.767 112.272 149.767 111.989 149.625 111.79C149.484 111.592 149.229 111.536 149.03 111.536H145.489Z" fill="#9CD499"/>
<path d="M140.845 134.027H137.304C136.568 134.027 135.945 133.716 135.577 133.206C135.18 132.639 135.123 131.903 135.407 131.138L136.681 127.597C137.191 126.237 138.636 125.161 140.024 125.161H143.565C144.301 125.161 144.925 125.472 145.293 125.982C145.689 126.549 145.746 127.285 145.463 128.05L144.188 131.591C143.678 132.951 142.205 134.027 140.845 134.027ZM140.024 126.52C139.202 126.52 138.268 127.229 137.956 128.05L136.681 131.591C136.568 131.931 136.568 132.214 136.71 132.412C136.851 132.611 137.106 132.667 137.304 132.667H140.845C141.667 132.667 142.602 131.959 142.913 131.138L144.188 127.597C144.301 127.257 144.301 126.974 144.16 126.775C144.018 126.577 143.763 126.52 143.565 126.52H140.024Z" fill="#D1E6FF"/>
<path d="M180.785 101.167H161.38C161.012 101.167 160.814 100.855 160.955 100.515C161.097 100.147 161.494 99.8638 161.862 99.8638H181.266C181.634 99.8638 181.833 100.175 181.691 100.515C181.549 100.855 181.124 101.167 180.785 101.167Z" fill="#D1E6FF"/>
<path d="M179.821 103.802H160.416C160.048 103.802 159.85 103.491 159.991 103.151C160.133 102.783 160.53 102.499 160.898 102.499H180.302C180.671 102.499 180.869 102.811 180.727 103.151C180.586 103.519 180.161 103.802 179.821 103.802Z" fill="#D1E6FF"/>
<path d="M175.714 115.048H156.309C155.941 115.048 155.743 114.737 155.884 114.397C156.026 114.028 156.423 113.745 156.791 113.745H176.195C176.564 113.745 176.762 114.057 176.62 114.397C176.479 114.765 176.082 115.048 175.714 115.048Z" fill="#D1E6FF"/>
<path d="M174.75 117.682H155.346C154.977 117.682 154.779 117.37 154.921 117.03C155.062 116.662 155.459 116.379 155.827 116.379H175.231C175.6 116.379 175.798 116.69 175.656 117.03C175.515 117.398 175.118 117.682 174.75 117.682Z" fill="#D1E6FF"/>
<path d="M170.106 130.488H150.702C150.333 130.488 150.135 130.176 150.277 129.836C150.418 129.468 150.815 129.185 151.183 129.185H170.588C170.956 129.185 171.154 129.496 171.013 129.836C170.871 130.176 170.474 130.488 170.106 130.488Z" fill="#D1E6FF"/>
<path d="M169.142 133.121H149.738C149.37 133.121 149.171 132.81 149.313 132.47C149.455 132.102 149.851 131.818 150.22 131.818H169.624C169.992 131.818 170.19 132.13 170.049 132.47C169.907 132.838 169.511 133.121 169.142 133.121Z" fill="#D1E6FF"/>
<path d="M150.929 102.045C150.873 102.045 150.816 102.045 150.759 102.016C150.561 101.96 150.391 101.818 150.306 101.62L148.975 98.3054C148.833 97.9655 149.003 97.5689 149.343 97.4272C149.683 97.2856 150.08 97.4556 150.221 97.7955L151.213 100.26L159.088 94.1979C159.371 93.9713 159.824 94.0279 160.051 94.3112C160.278 94.5945 160.221 95.0477 159.938 95.2744L151.354 101.903C151.213 102.016 151.071 102.045 150.929 102.045Z" fill="#F37168"/>
<path d="M145.462 117.059C145.406 117.059 145.349 117.059 145.292 117.031C145.094 116.974 144.924 116.832 144.839 116.634L143.508 113.32C143.366 112.98 143.536 112.583 143.876 112.442C144.216 112.3 144.612 112.47 144.754 112.81L145.746 115.274L153.621 109.212C153.904 108.986 154.357 109.042 154.584 109.326C154.81 109.609 154.754 110.062 154.47 110.289L145.887 116.917C145.774 117.002 145.604 117.059 145.462 117.059Z" fill="#F37168"/>
<path d="M273.784 83.7465H199.254L201.181 78.4492H275.71L273.784 83.7465Z" fill="#D1E6FF"/>
<path d="M270.895 91.6779H196.365L198.291 86.3806H272.821L270.895 91.6779Z" fill="#D1E6FF"/>
<path d="M188.264 155.131H133.535C132.827 155.131 132.459 154.536 132.714 153.828C132.969 153.12 133.762 152.525 134.498 152.525H189.227C189.935 152.525 190.304 153.12 190.049 153.828C189.794 154.536 189.001 155.131 188.264 155.131Z" fill="#D1E6FF"/>
<path d="M186.167 160.91H131.438C130.73 160.91 130.362 160.315 130.617 159.607C130.872 158.899 131.665 158.304 132.402 158.304H187.13C187.839 158.304 188.207 158.899 187.952 159.607C187.669 160.315 186.875 160.91 186.167 160.91Z" fill="#D1E6FF"/>
<path d="M237.415 209.775C237.415 208.869 248.463 178.275 240.984 158.616C235.744 144.849 234.922 128.306 234.922 128.306C234.922 128.306 224.724 142.923 231.608 165.245C235.857 178.983 237.585 182.779 237.953 186.83C238.322 190.881 236.31 211.079 236.31 211.079L237.415 209.775Z" fill="#9CD499"/>
<path d="M236.309 211.417C236.252 211.417 236.224 211.417 236.167 211.389C236.025 211.332 235.94 211.191 235.969 211.049C235.997 210.851 237.98 190.823 237.612 186.857C237.385 184.223 236.564 181.73 234.779 176.263C233.873 173.459 232.739 169.974 231.295 165.329C227.725 153.714 228.802 144.225 230.36 138.304C232.031 131.874 234.552 128.248 234.637 128.106C234.722 127.993 234.864 127.936 235.006 127.965C235.147 127.993 235.232 128.135 235.261 128.276C235.261 128.446 236.139 144.904 241.294 158.473C244.099 165.838 244.665 175.526 242.966 187.311C241.606 196.715 239.226 204.76 238.178 208.188C237.952 208.981 237.753 209.633 237.725 209.774C237.725 209.859 237.697 209.916 237.64 209.973L236.535 211.247C236.507 211.361 236.394 211.417 236.309 211.417ZM234.666 129.381C233.816 130.826 232.201 133.998 231.011 138.502C229.482 144.338 228.405 153.686 231.946 165.13C233.391 169.776 234.524 173.26 235.431 176.036C237.244 181.56 238.065 184.053 238.292 186.772C238.603 190.313 237.159 205.752 236.734 210.001L237.074 209.604C237.102 209.406 237.244 209.01 237.527 207.99C243.9 186.631 244.977 170.059 240.643 158.7C236.224 147.057 234.949 133.262 234.666 129.381Z" fill="#74B570"/>
<path d="M239.794 212.89C238.151 178.897 246.224 160.342 262.767 145.64C279.311 130.938 280.047 127.086 280.047 127.086C280.047 127.086 277.469 155.753 267.923 165.668C258.377 175.583 244.411 182.948 242.372 188.075C240.36 193.231 241.097 210.482 241.097 210.482L239.822 213.598V212.89H239.794Z" fill="#9CD499"/>
<path d="M237.782 215.836C237.612 215.298 241.266 184.053 254.693 182.212C268.092 180.37 271.237 183.486 280.415 182.042C286.958 180.994 292.001 178.926 292.001 178.926C292.001 178.926 288.516 187.792 276.562 191.418C268.121 193.996 257.101 189.775 250.671 190.88C244.241 191.985 240.926 205.752 240.926 205.752L239.822 212.919L237.782 215.836Z" fill="#9CD499"/>
<path d="M239.623 211.22C239.453 211.22 239.311 211.078 239.283 210.908C239.254 210.682 237.357 188.756 246.676 171.958C251.492 163.29 256.733 158.247 261.831 153.375C266.562 148.843 271.038 144.565 274.437 137.795C274.522 137.625 274.72 137.568 274.89 137.653C275.06 137.738 275.117 137.937 275.032 138.107C271.576 144.99 267.072 149.296 262.313 153.885C257.271 158.701 252.059 163.715 247.3 172.298C238.093 188.898 239.963 210.653 239.991 210.88C240.019 211.078 239.878 211.22 239.679 211.248C239.623 211.22 239.623 211.22 239.623 211.22Z" fill="#74B570"/>
<path d="M238.689 206.801C238.661 206.801 238.633 206.801 238.604 206.801C238.434 206.744 238.321 206.546 238.378 206.376C241.89 194.252 245.941 187.17 251.068 184.111C255.658 181.363 260.417 182.213 265.459 183.091C266.705 183.317 267.98 183.544 269.226 183.686C280.161 185.13 285.515 182.468 285.571 182.439C285.741 182.354 285.94 182.411 286.025 182.581C286.11 182.751 286.053 182.949 285.883 183.034C285.656 183.147 280.331 185.81 269.141 184.366C267.867 184.196 266.592 183.969 265.346 183.742C260.445 182.864 255.799 182.043 251.408 184.677C246.423 187.652 242.485 194.592 239.001 206.546C238.973 206.716 238.831 206.801 238.689 206.801Z" fill="#74B570"/>
<path d="M256.251 159.692C256.137 159.692 256.052 159.635 255.967 159.55C255.854 159.409 255.882 159.182 256.024 159.069C256.081 159.012 262.624 154.026 271.689 152.298C271.887 152.27 272.057 152.383 272.086 152.582C272.114 152.78 272.001 152.95 271.803 152.978C262.879 154.678 256.477 159.579 256.421 159.607C256.392 159.664 256.307 159.692 256.251 159.692Z" fill="#74B570"/>
<path d="M245.856 174.479C245.799 174.479 245.742 174.451 245.686 174.423C245.516 174.338 245.459 174.111 245.572 173.97C250.36 165.896 255.969 163.857 268.178 160.032C268.348 159.976 268.546 160.089 268.603 160.259C268.659 160.429 268.546 160.627 268.376 160.684C256.337 164.452 250.813 166.463 246.139 174.309C246.082 174.423 245.969 174.479 245.856 174.479Z" fill="#74B570"/>
<path d="M242.881 224.191H234.666C231.777 224.191 229.284 222.123 228.745 219.291L226.111 205.467H251.464L248.83 219.291C248.263 222.152 245.799 224.191 242.881 224.191Z" fill="#F39892"/>
<path d="M250.813 208.983H226.933C226.565 208.983 226.253 208.671 226.253 208.303C226.253 207.935 226.565 207.623 226.933 207.623H250.813C251.182 207.623 251.493 207.935 251.493 208.303C251.493 208.671 251.182 208.983 250.813 208.983Z" fill="#D54A41"/>
</svg>
