<svg width="309" height="284" viewBox="0 0 309 284" fill="none" xmlns="http://www.w3.org/2000/svg">
<path d="M251.081 244.053C245.249 250.163 239.73 254.104 235.371 257.217C184.125 293.816 123.487 283.147 110.599 280.542C91.5697 276.695 54.7843 269.259 28.1886 238.129C-12.0474 191.037 -5.78197 116.833 25.4283 67.852C31.137 58.8928 61.2922 9.16588 122.583 1.1913C159.676 -3.63395 202.917 6.09936 234.226 32.2103C299.952 87.0201 295.273 197.744 251.081 244.053Z" fill="#D1E6FF"/>
<path d="M263.366 190.794C263.366 171.948 246.146 157.122 226.564 161.199C220.895 162.392 215.694 165.208 211.597 169.305C207.5 173.401 204.682 178.601 203.489 184.271C199.404 203.836 214.226 221.073 233.076 221.073C237.051 221.073 240.987 220.291 244.659 218.77C248.332 217.249 251.669 215.02 254.48 212.209C257.291 209.399 259.52 206.062 261.042 202.39C262.563 198.717 263.346 194.781 263.346 190.806L263.366 190.794Z" fill="#4972A3"/>
<path d="M42.3056 220.1C42.3056 220.1 28.0499 220.617 25.9389 220.1C25.8499 219.695 23.2172 203.078 23.2172 203.078L21.0253 187.71C20.7179 185.563 23.2859 184.139 24.8793 185.611C25.8239 186.521 26.52 187.657 26.9014 188.911C28.697 194.314 33.9949 203.066 41.8324 205.326C50.0946 207.712 42.3056 220.1 42.3056 220.1Z" fill="#163560"/>
<path d="M116.67 143.021L115.267 143.539C115.267 143.539 111.599 137.331 104.093 139.822C104.093 139.822 101.1 141.08 102.879 142.718C104.659 144.356 104.23 143.527 106.673 145.868C109.115 148.21 112.476 149.415 114.761 148.614L117.321 147.716L116.67 143.021Z" fill="#E49963"/>
<path d="M179.906 195.161C179.906 195.161 127.591 155.189 112.704 154.752C97.8176 154.315 49.5547 220.377 49.5547 220.377H67.6199C67.6199 220.377 99.4757 203.428 110.678 187.316C111.096 186.719 111.734 186.313 112.451 186.187C113.168 186.06 113.907 186.223 114.504 186.64C114.808 186.857 115.066 187.132 115.264 187.449C121.055 196.706 136.201 219.398 146 220.385C156.502 221.436 179.906 195.161 179.906 195.161Z" fill="#163560"/>
<path d="M174.887 86.2508C174.887 86.2508 175.222 88.8673 175.643 92.1027C176.209 96.3045 176.961 101.517 177.459 103.147L193.199 107.139L194.355 95.6939C194.355 95.6939 190.412 87.7876 190.436 76.6055L174.887 86.2508Z" fill="#FFB27D"/>
<path d="M188.577 110.072L166.213 137.471L158.391 147.051C158.391 147.051 144.382 149.676 137.026 150.315C131.724 150.772 114.783 148.625 114.783 148.625L115.269 143.529C115.269 143.529 125.783 139.056 130.778 138.013C135.873 136.945 148.746 134.041 148.746 134.041C153.599 132.27 172.105 108.373 172.105 108.373L188.577 110.072Z" fill="#82B378"/>
<path d="M203.169 207.915L157.43 204.198C157.43 204.198 157.305 203.28 157.09 201.744C157.026 201.249 156.989 200.75 156.977 200.251C156.872 195.681 158.664 189.518 159.44 183.464C159.954 179.468 160.014 175.517 158.793 172.1C157.386 168.157 156.738 160.671 156.451 153.554C156.091 144.656 156.298 136.33 156.294 136.257C155.837 130.595 157.187 124.278 159.448 118.289C163.897 106.468 172.232 99.7825 176.138 95.8152C176.138 95.8152 180.914 96.9921 193.318 93.2715C193.686 93.1582 194.754 94.7193 195.227 95.6332C195.227 95.6332 200.597 102.431 202.805 119C204.783 133.802 203.169 207.915 203.169 207.915Z" fill="#A8D29F"/>
<path d="M100.241 137.198L105.903 133.287C105.952 133.259 106.004 133.234 106.057 133.214L107.129 132.777L112.354 149.273L107.82 152.966L107.011 153.326C106.797 153.385 106.569 153.358 106.375 153.25C106.18 153.143 106.036 152.964 105.972 152.751L100.031 138.281C99.9405 138.103 99.9119 137.9 99.95 137.703C99.9881 137.507 100.091 137.329 100.241 137.198Z" fill="#373480"/>
<path d="M113.527 148.295L108.124 152.841C107.744 153.156 107.149 152.926 106.911 152.364L101.014 137.878C100.926 137.7 100.9 137.497 100.941 137.302C100.982 137.108 101.088 136.933 101.241 136.806L106.903 132.907C107.307 132.64 107.845 132.887 108.059 133.417L113.721 147.264C113.799 147.435 113.822 147.626 113.788 147.81C113.753 147.995 113.662 148.165 113.527 148.295Z" fill="#575B9F"/>
<path d="M112.65 146.52L107.319 150.985L101.961 137.854L107.55 134.016L112.65 146.52Z" fill="#E2E7F2"/>
<path d="M102.766 138.096L107.303 134.893L112.011 146.172L107.388 149.775L102.766 138.096Z" fill="#CED4EA"/>
<path d="M103.953 138.774L107.132 136.529L110.428 144.432L107.188 146.955L103.953 138.774Z" fill="#BCC5DD"/>
<path d="M116.01 151.011L113.135 150.914C113.135 150.914 110.268 144.969 103.7 147.788C103.7 147.788 101.071 149.163 102.523 150.696C103.975 152.228 103.635 151.411 105.637 153.624C107.639 155.836 110.458 156.859 112.484 155.953L114.72 154.942L116.01 151.011Z" fill="#E49963"/>
<path d="M187.489 95.8906C187.489 95.8906 176.263 100.618 170.427 110.749C166.541 117.503 159.848 128.988 155.816 135.903C154.754 137.73 153.325 139.315 151.619 140.56C149.913 141.805 147.966 142.681 145.903 143.134L132.291 146.139L113.15 150.927C112.843 151.595 112.725 152.333 112.81 153.063C112.968 154.943 114.201 155.327 114.201 155.327C114.201 155.327 132.084 159.606 138.434 160.083C154.105 161.264 161.534 159.21 163.839 158.361C164.347 158.173 164.819 157.899 165.234 157.552C167.637 155.602 176.845 147.886 181.694 140.514C186.422 133.348 199.42 114.708 199.42 114.708L187.489 95.8906Z" fill="#A8D29F"/>
<path d="M203.484 190.353C203.484 190.353 207.993 220.376 194.162 220.376H41.9363C41.9363 220.376 37.7304 217.545 37.4392 212.13C37.1238 206.392 38.9356 204.366 38.9356 204.366C38.9356 204.366 93.4305 202.465 104.495 198.76C159.953 180.182 203.484 190.353 203.484 190.353Z" fill="#1C468A"/>
<path d="M174.887 86.2509C174.887 86.2509 175.222 88.8675 175.643 92.1029C190.202 87.8605 190.436 76.6016 190.436 76.6016L174.887 86.2509Z" fill="#E8945B"/>
<path d="M172.603 87.0902C172.603 87.0902 190.276 87.616 190.43 76.6037C190.584 65.5915 192.978 58.2393 181.699 57.4426C170.419 56.6459 168.167 60.8194 167.221 64.4753C166.274 68.1313 168.005 86.6858 172.603 87.0902Z" fill="#FFB27D"/>
<path d="M190.75 80.913C190.75 80.913 188.881 80.6016 189.185 78.0295C189.488 75.4574 189.48 72.0967 187.389 72.7195C185.298 73.3423 185.193 75.0246 184.352 74.0419C183.511 73.0592 183.474 68.9463 177.259 68.6389C171.043 68.3316 168.507 70.5235 165.611 69.2496C162.716 67.9757 162.574 63.5878 162.574 63.5878C162.574 63.5878 163.383 65.1488 164.641 65.6503C164.641 65.6503 159.788 59.0462 165.397 54.5046C171.006 49.963 176.692 52.9435 179.92 53.1538C187.045 53.5866 191.648 54.0152 193.977 58.6984C196.306 63.3815 195.324 76.4037 190.75 80.913Z" fill="#2B478B"/>
<path d="M86.3203 180.567L84.9695 181.093C84.7234 181.188 84.4494 181.182 84.2078 181.075C83.9662 180.969 83.7769 180.771 83.6814 180.524C83.586 180.278 83.5922 180.004 83.6988 179.763C83.8053 179.521 84.0035 179.332 84.2496 179.236C85.0585 178.926 85.8794 178.605 86.7125 178.274C86.9459 178.224 87.1893 178.259 87.3996 178.372C87.6099 178.484 87.7735 178.668 87.8617 178.889C87.9498 179.111 87.9566 179.357 87.881 179.583C87.8054 179.809 87.6522 180.002 87.4486 180.126L86.3203 180.567ZM89.9034 179.127C89.6595 179.219 89.3894 179.211 89.1512 179.106C88.9129 179.001 88.7254 178.806 88.629 178.564C88.5326 178.322 88.535 178.052 88.6357 177.811C88.7363 177.571 88.9272 177.38 89.1673 177.279C89.9762 176.943 90.785 176.604 91.5938 176.268C91.8262 176.213 92.0705 176.242 92.2835 176.35C92.4964 176.458 92.6642 176.638 92.7572 176.858C92.8502 177.078 92.8624 177.324 92.7916 177.552C92.7208 177.78 92.5715 177.975 92.3703 178.104C91.5372 178.457 90.7162 178.794 89.9074 179.115L89.9034 179.127ZM82.6239 181.889H82.6037C81.7504 182.205 80.9173 182.504 80.0882 182.787C79.841 182.88 79.5668 182.872 79.326 182.763C79.0852 182.654 78.8975 182.454 78.8042 182.207C78.7109 181.959 78.7196 181.685 78.8284 181.444C78.9373 181.204 79.1373 181.016 79.3845 180.923H79.4331C80.2419 180.644 81.075 180.344 81.9202 180.033C82.1524 179.993 82.3911 180.036 82.5955 180.153C82.7998 180.27 82.957 180.455 83.0402 180.675C83.1234 180.896 83.1274 181.138 83.0514 181.361C82.9754 181.584 82.8243 181.774 82.6239 181.897V181.889ZM94.7968 177.036C94.5652 177.084 94.3242 177.05 94.1154 176.939C93.9065 176.828 93.7429 176.648 93.6528 176.429C93.5627 176.211 93.5517 175.967 93.6217 175.741C93.6918 175.516 93.8385 175.321 94.0365 175.192C94.8453 174.85 95.6542 174.497 96.463 174.133C96.685 173.981 96.958 173.924 97.2219 173.975C97.4859 174.025 97.7191 174.177 97.8703 174.399C98.0216 174.621 98.0784 174.895 98.0284 175.158C97.9783 175.422 97.8255 175.656 97.6034 175.807C97.5026 175.879 97.3885 175.929 97.2678 175.956L94.8413 177.024L94.7968 177.036ZM77.4474 183.911H77.3948C76.5213 184.194 75.6599 184.465 74.8349 184.72C74.5892 184.785 74.3283 184.753 74.1051 184.632C73.882 184.511 73.7133 184.309 73.6335 184.068C73.5537 183.827 73.5686 183.564 73.6753 183.334C73.7821 183.104 73.9725 182.922 74.208 182.827H74.2646C75.0735 182.589 75.9146 182.322 76.7761 182.043C77.0244 181.953 77.2981 181.966 77.537 182.078C77.7759 182.191 77.9604 182.393 78.05 182.641C78.1395 182.89 78.1268 183.163 78.0145 183.402C77.9023 183.641 77.6997 183.826 77.4514 183.915L77.4474 183.911ZM99.6579 174.909C99.4263 174.961 99.184 174.929 98.9734 174.82C98.7627 174.711 98.5972 174.531 98.5056 174.312C98.414 174.094 98.4023 173.85 98.4725 173.623C98.5426 173.396 98.6903 173.202 98.8895 173.073L101.316 171.977C101.552 171.889 101.813 171.894 102.046 171.991C102.279 172.087 102.467 172.268 102.572 172.498C102.677 172.727 102.692 172.988 102.612 173.227C102.533 173.467 102.366 173.667 102.145 173.789C101.336 174.161 100.527 174.529 99.7185 174.889L99.6579 174.909ZM72.3639 185.29L72.2547 185.323C71.3528 185.565 70.4753 185.784 69.6422 185.974C69.4032 185.988 69.1672 185.916 68.9759 185.772C68.7847 185.628 68.6507 185.421 68.5979 185.188C68.545 184.955 68.5766 184.71 68.6871 184.498C68.7976 184.285 68.9798 184.119 69.2014 184.029C70.0102 183.847 70.8635 183.624 71.7411 183.398C71.9747 183.368 72.2112 183.421 72.4102 183.547C72.6092 183.673 72.7582 183.864 72.8318 184.088C72.9054 184.311 72.899 184.554 72.8136 184.773C72.7283 184.992 72.5693 185.175 72.3639 185.29ZM104.499 172.705C104.259 172.795 103.994 172.788 103.759 172.687C103.523 172.587 103.336 172.399 103.236 172.164C103.135 171.928 103.129 171.663 103.219 171.424C103.309 171.184 103.488 170.988 103.718 170.877L106.12 169.753C106.355 169.631 106.628 169.607 106.88 169.687C107.004 169.726 107.12 169.79 107.22 169.874C107.32 169.958 107.403 170.061 107.463 170.177C107.523 170.293 107.56 170.42 107.571 170.55C107.583 170.681 107.568 170.812 107.529 170.937C107.489 171.061 107.426 171.177 107.342 171.277C107.258 171.377 107.154 171.46 107.038 171.52L106.97 171.552L104.543 172.685L104.499 172.705ZM109.319 170.432C109.088 170.489 108.844 170.463 108.63 170.357C108.416 170.252 108.245 170.075 108.149 169.857C108.052 169.639 108.036 169.394 108.102 169.165C108.168 168.936 108.313 168.737 108.511 168.604L110.905 167.456C111.141 167.337 111.414 167.316 111.665 167.399C111.916 167.481 112.124 167.66 112.243 167.896C112.362 168.132 112.383 168.406 112.3 168.657C112.217 168.908 112.038 169.116 111.802 169.235H111.774L109.372 170.388L109.319 170.432ZM114.104 168.119C113.873 168.173 113.631 168.145 113.419 168.04C113.207 167.935 113.039 167.759 112.943 167.542C112.847 167.326 112.829 167.083 112.894 166.855C112.958 166.627 113.1 166.429 113.295 166.295L115.681 165.122C115.918 165.006 116.191 164.988 116.441 165.074C116.565 165.116 116.679 165.182 116.777 165.269C116.876 165.355 116.956 165.46 117.013 165.577C117.071 165.695 117.105 165.822 117.113 165.953C117.122 166.083 117.104 166.214 117.062 166.338C117.02 166.461 116.953 166.576 116.867 166.674C116.781 166.772 116.676 166.852 116.558 166.91L114.172 168.083L114.104 168.119ZM67.1914 186.443C67.1295 186.47 67.0642 186.489 66.9973 186.5C66.0469 186.665 65.137 186.791 64.2958 186.872C64.0407 186.882 63.7913 186.794 63.5989 186.626C63.4065 186.458 63.2857 186.223 63.2614 185.969C63.2371 185.715 63.311 185.461 63.468 185.259C63.6251 185.058 63.8533 184.924 64.1057 184.886C64.9146 184.809 65.7598 184.692 66.6616 184.55C66.9023 184.515 67.1476 184.568 67.3517 184.7C67.5558 184.833 67.7045 185.035 67.7701 185.269C67.8356 185.504 67.8134 185.754 67.7076 185.973C67.6018 186.192 67.4197 186.365 67.1955 186.459L67.1914 186.443ZM118.864 165.781C118.634 165.833 118.394 165.804 118.184 165.699C117.974 165.593 117.807 165.418 117.712 165.204C117.616 164.989 117.598 164.748 117.661 164.521C117.723 164.295 117.863 164.097 118.055 163.962L120.421 162.748C120.654 162.625 120.927 162.599 121.179 162.677C121.431 162.755 121.642 162.93 121.765 163.163C121.889 163.396 121.914 163.669 121.836 163.921C121.759 164.173 121.584 164.384 121.351 164.507H121.314L118.948 165.721L118.864 165.781ZM123.611 163.387C123.382 163.442 123.14 163.415 122.929 163.311C122.717 163.206 122.549 163.031 122.453 162.815C122.357 162.6 122.339 162.357 122.403 162.13C122.467 161.903 122.608 161.705 122.803 161.571L125.164 160.358C125.279 160.284 125.407 160.233 125.541 160.21C125.676 160.187 125.814 160.192 125.946 160.224C126.079 160.257 126.203 160.316 126.312 160.398C126.421 160.48 126.512 160.584 126.579 160.703C126.646 160.821 126.688 160.953 126.703 161.088C126.718 161.224 126.704 161.361 126.664 161.491C126.623 161.622 126.557 161.742 126.468 161.846C126.379 161.949 126.27 162.033 126.147 162.093L126.07 162.129L123.704 163.343L123.611 163.387ZM128.339 160.961C128.104 161.038 127.848 161.026 127.622 160.926C127.395 160.826 127.214 160.645 127.113 160.419C127.012 160.192 126.999 159.937 127.076 159.701C127.153 159.466 127.315 159.268 127.53 159.145L129.892 157.932C130.121 157.8 130.393 157.765 130.648 157.834C130.902 157.903 131.119 158.071 131.251 158.3C131.382 158.529 131.417 158.8 131.348 159.055C131.279 159.31 131.112 159.527 130.883 159.659C130.86 159.675 130.836 159.689 130.81 159.699L128.444 160.928L128.339 160.961ZM61.8936 186.932C61.7715 186.981 61.6408 187.004 61.5094 187.001C60.5561 186.992 59.6068 186.878 58.6785 186.661C58.4618 186.565 58.2858 186.396 58.1813 186.183C58.0768 185.97 58.0504 185.727 58.1068 185.497C58.1632 185.267 58.2987 185.063 58.4897 184.923C58.6807 184.782 58.915 184.713 59.1516 184.728C59.9478 184.911 60.7613 185.007 61.5781 185.015C61.8001 185.035 62.0095 185.127 62.1737 185.278C62.3378 185.429 62.4475 185.629 62.4858 185.849C62.5241 186.068 62.4888 186.294 62.3853 186.492C62.2819 186.689 62.1161 186.847 61.9138 186.94L61.8936 186.932ZM133.071 158.595C132.836 158.674 132.581 158.662 132.355 158.563C132.128 158.464 131.947 158.284 131.846 158.058C131.745 157.832 131.731 157.577 131.808 157.342C131.885 157.107 132.047 156.909 132.262 156.787L134.624 155.55C134.846 155.482 135.086 155.494 135.3 155.585C135.514 155.676 135.69 155.838 135.797 156.045C135.904 156.252 135.935 156.49 135.884 156.717C135.834 156.944 135.706 157.146 135.521 157.289L133.156 158.526L133.071 158.571V158.595ZM137.746 155.885C137.51 155.975 137.249 155.971 137.016 155.876C136.782 155.78 136.594 155.6 136.489 155.371C136.383 155.142 136.369 154.881 136.449 154.642C136.528 154.402 136.695 154.202 136.917 154.082L139.258 152.836C139.371 152.77 139.496 152.727 139.626 152.71C139.756 152.692 139.888 152.7 140.014 152.734C140.141 152.767 140.259 152.825 140.364 152.905C140.468 152.984 140.555 153.083 140.621 153.196C140.687 153.309 140.73 153.434 140.747 153.564C140.765 153.693 140.757 153.825 140.723 153.952C140.69 154.079 140.632 154.197 140.553 154.301C140.473 154.406 140.374 154.493 140.261 154.559L140.2 154.591L137.835 155.841C137.81 155.858 137.785 155.873 137.758 155.885H137.746ZM142.433 153.524C142.195 153.624 141.927 153.628 141.686 153.534C141.445 153.44 141.25 153.257 141.142 153.022C141.034 152.787 141.022 152.519 141.108 152.275C141.195 152.031 141.372 151.831 141.604 151.716L143.941 150.458C144.057 150.368 144.192 150.304 144.335 150.271C144.478 150.238 144.627 150.236 144.771 150.267C144.914 150.297 145.05 150.358 145.168 150.446C145.285 150.534 145.382 150.647 145.452 150.776C145.522 150.906 145.563 151.049 145.571 151.195C145.58 151.342 145.557 151.489 145.503 151.626C145.45 151.762 145.367 151.886 145.26 151.987C145.154 152.089 145.027 152.166 144.888 152.213L142.542 153.471L142.433 153.524ZM147.116 150.996C146.878 151.096 146.611 151.1 146.371 151.007C146.13 150.915 145.935 150.732 145.827 150.498C145.718 150.264 145.705 149.998 145.789 149.754C145.873 149.51 146.049 149.309 146.279 149.192L148.612 147.926C148.845 147.8 149.117 147.772 149.371 147.847C149.624 147.922 149.837 148.095 149.963 148.327C150.089 148.559 150.118 148.832 150.043 149.085C149.968 149.338 149.795 149.552 149.563 149.678L147.225 150.947L147.116 150.996ZM151.775 148.456C151.539 148.551 151.276 148.551 151.039 148.458C150.803 148.364 150.612 148.184 150.504 147.954C150.396 147.724 150.381 147.461 150.461 147.22C150.541 146.979 150.71 146.777 150.934 146.657L153.263 145.383C153.495 145.255 153.769 145.225 154.023 145.299C154.278 145.373 154.492 145.545 154.62 145.777C154.748 146.009 154.778 146.283 154.704 146.537C154.63 146.791 154.458 147.006 154.226 147.134L151.9 148.412C151.865 148.43 151.829 148.445 151.791 148.456H151.775ZM56.6281 185.598C56.2713 185.597 55.9268 185.468 55.6575 185.234C55.0246 184.638 54.4491 183.984 53.9387 183.28C53.7926 183.072 53.7313 182.817 53.7672 182.565C53.8032 182.313 53.9336 182.085 54.1321 181.926C54.3306 181.767 54.5821 181.69 54.8354 181.71C55.0888 181.731 55.3249 181.847 55.4957 182.035C55.516 182.063 55.5402 182.091 55.5564 182.12C55.9923 182.721 56.4853 183.279 57.0285 183.786C57.073 183.826 57.1174 183.867 57.166 183.903C57.3641 184.077 57.4874 184.32 57.51 184.582C57.5326 184.845 57.4528 185.106 57.2873 185.311C57.1839 185.434 57.0539 185.532 56.9071 185.598H56.6281ZM156.45 145.747C156.222 145.805 155.981 145.781 155.768 145.681C155.555 145.58 155.384 145.408 155.284 145.195C155.185 144.982 155.163 144.74 155.222 144.513C155.281 144.285 155.418 144.085 155.609 143.947L157.934 142.657C158.165 142.529 158.438 142.498 158.692 142.57C158.946 142.643 159.161 142.814 159.289 143.045C159.417 143.276 159.448 143.549 159.375 143.803C159.303 144.057 159.132 144.272 158.901 144.4L156.571 145.69C156.536 145.713 156.498 145.732 156.458 145.747H156.45ZM161.109 143.32C160.881 143.376 160.641 143.352 160.43 143.251C160.218 143.15 160.048 142.98 159.948 142.768C159.848 142.556 159.824 142.316 159.881 142.089C159.938 141.861 160.072 141.66 160.259 141.521L162.589 140.226C162.796 140.058 163.061 139.978 163.326 140.003C163.592 140.029 163.836 140.159 164.007 140.365C164.177 140.57 164.259 140.835 164.235 141.1C164.211 141.366 164.083 141.612 163.879 141.783C163.785 141.864 163.677 141.926 163.56 141.965L161.23 143.264L161.109 143.32ZM165.755 140.708C165.528 140.767 165.286 140.744 165.073 140.645C164.86 140.545 164.689 140.374 164.588 140.161C164.487 139.948 164.464 139.707 164.522 139.479C164.58 139.251 164.716 139.051 164.906 138.912L167.219 137.614C167.428 137.459 167.687 137.389 167.945 137.419C168.203 137.45 168.44 137.578 168.606 137.777C168.772 137.977 168.856 138.233 168.839 138.492C168.823 138.751 168.708 138.994 168.518 139.171C168.423 139.248 168.317 139.308 168.202 139.349L165.881 140.651L165.755 140.708ZM170.386 137.982C170.153 138.066 169.897 138.06 169.668 137.965C169.438 137.871 169.253 137.694 169.146 137.47C169.04 137.247 169.021 136.991 169.092 136.754C169.163 136.517 169.32 136.314 169.533 136.186L171.846 134.876C172.076 134.746 172.348 134.713 172.603 134.784C172.857 134.855 173.073 135.024 173.203 135.254C173.333 135.484 173.366 135.756 173.295 136.011C173.224 136.265 173.055 136.481 172.825 136.611L170.503 137.929L170.378 137.99L170.386 137.982ZM175.008 135.616C174.776 135.705 174.518 135.704 174.287 135.612C174.055 135.521 173.866 135.345 173.758 135.121C173.649 134.897 173.628 134.641 173.7 134.402C173.771 134.163 173.929 133.96 174.143 133.833L176.448 132.514C176.675 132.379 176.946 132.34 177.202 132.404C177.458 132.469 177.678 132.633 177.813 132.86C177.948 133.087 177.988 133.358 177.923 133.614C177.858 133.87 177.694 134.09 177.467 134.225H177.439L175.126 135.543C175.087 135.567 175.047 135.588 175.004 135.604L175.008 135.616ZM179.623 132.915C179.395 132.974 179.154 132.953 178.941 132.854C178.727 132.756 178.555 132.585 178.453 132.373C178.352 132.161 178.327 131.92 178.384 131.692C178.441 131.464 178.576 131.263 178.766 131.123L181.071 129.801C181.294 129.724 181.536 129.727 181.757 129.81C181.977 129.893 182.162 130.05 182.28 130.254C182.398 130.458 182.441 130.697 182.401 130.929C182.362 131.161 182.244 131.373 182.066 131.527L179.76 132.85C179.719 132.875 179.676 132.897 179.631 132.915H179.623ZM184.233 130.213C184 130.305 183.74 130.305 183.506 130.214C183.272 130.122 183.082 129.945 182.973 129.719C182.864 129.493 182.844 129.234 182.918 128.994C182.992 128.754 183.154 128.551 183.372 128.426L185.673 127.095C185.897 127.007 186.145 127.002 186.373 127.08C186.601 127.159 186.793 127.316 186.915 127.524C187.037 127.732 187.081 127.976 187.038 128.214C186.996 128.451 186.87 128.665 186.684 128.818L184.383 130.148C184.338 130.174 184.29 130.196 184.241 130.213H184.233ZM53.8821 181.214H53.8457C53.5969 181.297 53.3251 181.279 53.0901 181.162C52.855 181.045 52.6759 180.84 52.592 180.591C52.2687 179.663 52.094 178.69 52.0744 177.708C52.0696 177.444 52.1697 177.189 52.3529 176.999C52.5361 176.809 52.7872 176.699 53.0511 176.695C53.3149 176.69 53.5699 176.79 53.7599 176.973C53.9498 177.156 54.0593 177.407 54.0641 177.671C54.0806 178.443 54.217 179.207 54.4685 179.936C54.5518 180.179 54.5392 180.445 54.4333 180.68C54.3274 180.914 54.136 181.099 53.8983 181.198L53.8821 181.214ZM188.839 127.548C188.607 127.633 188.351 127.628 188.121 127.534C187.892 127.441 187.705 127.265 187.598 127.042C187.491 126.819 187.47 126.564 187.54 126.326C187.611 126.088 187.767 125.885 187.978 125.756L190.275 124.406C190.376 124.311 190.495 124.237 190.625 124.19C190.755 124.143 190.893 124.123 191.031 124.131C191.169 124.139 191.304 124.175 191.428 124.237C191.551 124.299 191.661 124.386 191.75 124.492C191.838 124.598 191.905 124.721 191.944 124.853C191.984 124.986 191.996 125.125 191.98 125.262C191.964 125.4 191.92 125.532 191.851 125.652C191.781 125.772 191.688 125.876 191.577 125.959C191.492 126.031 191.395 126.089 191.29 126.128L188.989 127.479C188.941 127.506 188.891 127.529 188.839 127.548ZM193.397 124.871C193.17 124.932 192.929 124.911 192.715 124.813C192.501 124.716 192.328 124.546 192.226 124.335C192.123 124.123 192.098 123.882 192.154 123.654C192.209 123.425 192.343 123.224 192.532 123.083L194.784 121.757C194.988 121.631 195.229 121.581 195.465 121.613C195.702 121.645 195.92 121.759 196.083 121.935C196.179 122.045 196.25 122.175 196.29 122.316C196.331 122.457 196.34 122.605 196.317 122.75C196.294 122.895 196.239 123.032 196.156 123.154C196.074 123.275 195.966 123.376 195.84 123.451L193.555 124.802L193.409 124.846L193.397 124.871ZM198.024 122.169C197.791 122.258 197.534 122.257 197.302 122.165C197.07 122.074 196.882 121.899 196.773 121.674C196.664 121.45 196.643 121.194 196.715 120.955C196.786 120.717 196.944 120.513 197.158 120.386L199.447 119.035C199.673 118.898 199.944 118.857 200.2 118.92C200.457 118.983 200.677 119.145 200.814 119.371C200.951 119.596 200.992 119.867 200.93 120.124C200.867 120.38 200.704 120.601 200.479 120.738L198.169 122.105C198.124 122.133 198.075 122.156 198.024 122.173V122.169ZM202.517 119.468C202.29 119.528 202.05 119.507 201.837 119.41C201.624 119.313 201.451 119.144 201.348 118.934C201.246 118.723 201.219 118.483 201.274 118.255C201.328 118.027 201.46 117.826 201.647 117.684L203.936 116.333C204.083 116.246 204.25 116.197 204.422 116.191C204.593 116.186 204.763 116.224 204.915 116.303C205.067 116.381 205.197 116.498 205.292 116.64C205.386 116.783 205.443 116.947 205.457 117.118C205.471 117.302 205.432 117.487 205.345 117.65C205.259 117.813 205.128 117.948 204.968 118.04L202.679 119.391C202.632 119.42 202.583 119.445 202.533 119.468H202.517ZM207.244 116.766C207.018 116.828 206.776 116.809 206.562 116.712C206.348 116.615 206.174 116.447 206.071 116.235C205.967 116.024 205.941 115.784 205.995 115.555C206.05 115.326 206.183 115.124 206.371 114.983L208.66 113.632C208.768 113.554 208.891 113.499 209.021 113.47C209.152 113.441 209.286 113.439 209.417 113.462C209.549 113.486 209.674 113.537 209.785 113.61C209.897 113.683 209.992 113.778 210.066 113.889C210.14 114 210.191 114.124 210.216 114.255C210.241 114.386 210.239 114.521 210.211 114.651C210.183 114.782 210.129 114.905 210.052 115.014C209.975 115.123 209.877 115.216 209.764 115.286L209.671 115.343L207.386 116.693C207.341 116.723 207.294 116.749 207.244 116.77V116.766ZM53.7568 175.989C53.5859 176.056 53.3998 176.074 53.2191 176.042C53.0384 176.01 52.87 175.929 52.7327 175.807C52.5954 175.685 52.4945 175.528 52.4411 175.352C52.3877 175.177 52.384 174.99 52.4303 174.812C52.6805 173.895 53.0205 173.005 53.4453 172.155C53.4985 172.035 53.5746 171.927 53.6695 171.837C53.7644 171.746 53.8762 171.676 53.9984 171.629C54.1207 171.581 54.251 171.559 54.382 171.562C54.5129 171.565 54.642 171.594 54.7617 171.647C54.8815 171.701 54.9896 171.777 55.0799 171.872C55.1702 171.966 55.241 172.078 55.2881 172.2C55.3353 172.323 55.3578 172.453 55.3546 172.584C55.3514 172.715 55.3224 172.844 55.2693 172.964C55.2605 172.991 55.2482 173.017 55.2329 173.041C54.8733 173.773 54.5849 174.538 54.3715 175.326C54.3296 175.477 54.2519 175.617 54.1449 175.732C54.038 175.848 53.9048 175.936 53.7568 175.989ZM211.754 114.04C211.522 114.124 211.268 114.119 211.04 114.027C210.812 113.934 210.626 113.761 210.518 113.54C210.409 113.319 210.386 113.066 210.453 112.829C210.52 112.592 210.672 112.389 210.88 112.257L213.165 110.906C213.387 110.826 213.629 110.826 213.851 110.905C214.073 110.985 214.26 111.14 214.38 111.342C214.5 111.545 214.545 111.784 214.508 112.016C214.471 112.249 214.353 112.462 214.176 112.617L211.895 113.968C211.85 113.996 211.803 114.02 211.754 114.04ZM216.36 111.311C216.128 111.401 215.87 111.4 215.638 111.31C215.407 111.219 215.217 111.045 215.107 110.821C214.998 110.598 214.976 110.341 215.046 110.103C215.116 109.864 215.273 109.66 215.486 109.531L217.767 108.18C217.879 108.081 218.011 108.007 218.154 107.965C218.297 107.922 218.448 107.912 218.596 107.935C218.743 107.957 218.884 108.013 219.008 108.096C219.132 108.18 219.235 108.29 219.311 108.418C219.388 108.547 219.434 108.691 219.448 108.84C219.462 108.988 219.443 109.138 219.392 109.279C219.341 109.419 219.26 109.547 219.153 109.652C219.047 109.757 218.919 109.837 218.778 109.887L216.497 111.238C216.455 111.276 216.409 111.31 216.36 111.339V111.311ZM220.752 108.577C220.52 108.667 220.262 108.666 220.03 108.576C219.798 108.485 219.609 108.311 219.499 108.088C219.39 107.864 219.368 107.608 219.438 107.369C219.508 107.13 219.665 106.926 219.878 106.797L222.151 105.422C222.372 105.343 222.614 105.342 222.835 105.421C223.057 105.501 223.243 105.654 223.364 105.856C223.484 106.058 223.53 106.296 223.494 106.528C223.458 106.76 223.342 106.973 223.166 107.129L220.885 108.5C220.844 108.534 220.799 108.564 220.752 108.589V108.577ZM225.479 105.831C225.247 105.921 224.99 105.92 224.758 105.83C224.526 105.739 224.337 105.565 224.227 105.342C224.117 105.118 224.095 104.862 224.165 104.623C224.236 104.384 224.393 104.18 224.606 104.051L226.879 102.693C227.132 102.605 227.41 102.621 227.651 102.738C227.892 102.855 228.077 103.062 228.165 103.315C228.23 103.498 228.24 103.696 228.195 103.885C228.15 104.074 228.051 104.245 227.91 104.379L225.633 105.758C225.585 105.797 225.533 105.832 225.479 105.863V105.831ZM56.0296 171.229C55.832 171.304 55.6156 171.315 55.4116 171.259C55.2077 171.204 55.0265 171.085 54.8943 170.92C54.7622 170.755 54.6857 170.552 54.6761 170.341C54.6664 170.13 54.724 169.921 54.8406 169.745C55.3218 169.025 55.8799 168.285 56.4906 167.545C56.6515 167.335 56.8891 167.198 57.1511 167.163C57.4131 167.129 57.6782 167.2 57.8879 167.361C58.0975 167.522 58.2347 167.759 58.2692 168.021C58.3037 168.283 58.2327 168.548 58.0719 168.758C58.0593 168.778 58.0444 168.797 58.0274 168.814C57.4796 169.469 56.9666 170.152 56.4906 170.861C56.3759 171.029 56.2121 171.157 56.0215 171.229H56.0296ZM229.981 103.097C229.75 103.181 229.495 103.178 229.267 103.086C229.038 102.995 228.852 102.823 228.743 102.602C228.633 102.382 228.609 102.129 228.675 101.892C228.741 101.655 228.892 101.45 229.099 101.318L231.372 99.9345C231.591 99.8574 231.829 99.8576 232.048 99.9351C232.267 100.013 232.452 100.163 232.574 100.36C232.695 100.558 232.745 100.791 232.716 101.021C232.686 101.251 232.579 101.464 232.411 101.625L230.134 103.004C230.086 103.04 230.035 103.071 229.981 103.097ZM234.522 100.331C234.296 100.392 234.056 100.373 233.842 100.276C233.629 100.18 233.455 100.012 233.352 99.802C233.248 99.5918 233.221 99.3523 233.274 99.1242C233.327 98.8961 233.458 98.6936 233.645 98.5514L235.913 97.1642C236.132 97.0872 236.371 97.0874 236.59 97.1649C236.808 97.2423 236.994 97.3924 237.115 97.59C237.237 97.7876 237.287 98.0209 237.257 98.251C237.228 98.4811 237.12 98.6942 236.953 98.8547L234.684 100.238C234.633 100.274 234.579 100.305 234.522 100.331ZM239.064 97.5565C238.837 97.6193 238.596 97.6012 238.381 97.5053C238.167 97.4094 237.992 97.2417 237.888 97.0311C237.783 96.8204 237.756 96.58 237.809 96.3511C237.863 96.1223 237.995 95.9193 238.182 95.7771L240.447 94.3859C240.666 94.3071 240.906 94.306 241.125 94.3828C241.345 94.4597 241.532 94.6097 241.654 94.8079C241.777 95.0061 241.827 95.2403 241.797 95.4712C241.767 95.7021 241.659 95.9158 241.49 96.0763L239.222 97.4675C239.171 97.5002 239.118 97.5299 239.064 97.5565ZM59.3336 167.116C59.0778 167.197 58.8002 167.174 58.5614 167.051C58.3227 166.929 58.1423 166.716 58.0597 166.461C58.0063 166.298 57.9958 166.123 58.029 165.955C58.0623 165.786 58.1383 165.629 58.2498 165.498C58.8443 164.871 59.4954 164.232 60.1829 163.593C60.3826 163.474 60.6172 163.427 60.8475 163.46C61.0778 163.493 61.2898 163.604 61.448 163.774C61.6063 163.945 61.7011 164.165 61.7167 164.397C61.7323 164.629 61.6677 164.859 61.5336 165.049C60.8745 165.664 60.2517 166.263 59.6774 166.877C59.5808 166.981 59.4638 167.064 59.3336 167.12V167.116ZM243.702 94.7579C243.477 94.8172 243.238 94.7969 243.025 94.7005C242.813 94.604 242.64 94.4373 242.536 94.2285C242.432 94.0196 242.403 93.7812 242.454 93.5536C242.505 93.3259 242.633 93.1228 242.817 92.9785L245.086 91.5833C245.305 91.5015 245.545 91.4981 245.767 91.5738C245.988 91.6495 246.176 91.7996 246.299 91.9985C246.422 92.1974 246.472 92.4327 246.441 92.6645C246.41 92.8963 246.3 93.1102 246.129 93.2697L243.864 94.669C243.814 94.7053 243.759 94.7365 243.702 94.762V94.7579ZM248.151 91.9594C247.926 92.0181 247.688 91.9978 247.476 91.9018C247.264 91.8058 247.091 91.6399 246.987 91.432C246.883 91.224 246.853 90.9866 246.903 90.7595C246.953 90.5323 247.08 90.3291 247.261 90.184L249.526 88.7807C249.75 88.6519 250.015 88.6152 250.265 88.6784C250.516 88.7415 250.732 88.8996 250.868 89.1191C251.004 89.3386 251.049 89.6023 250.994 89.8547C250.939 90.107 250.788 90.328 250.573 90.4711L248.313 91.8745L248.151 91.9594ZM63.2726 163.488C63.0556 163.556 62.8223 163.548 62.6101 163.467C62.3979 163.386 62.219 163.236 62.102 163.041C61.9851 162.847 61.9368 162.618 61.965 162.393C61.9932 162.167 62.0962 161.958 62.2576 161.798C62.9329 161.24 63.6083 160.666 64.3443 160.091C64.4322 159.991 64.5389 159.91 64.6583 159.851C64.7778 159.793 64.9075 159.758 65.0403 159.75C65.173 159.741 65.3062 159.759 65.432 159.802C65.5579 159.845 65.6741 159.912 65.7739 160C65.8738 160.088 65.9553 160.195 66.014 160.314C66.0726 160.434 66.1071 160.563 66.1155 160.696C66.124 160.829 66.1062 160.962 66.0632 161.088C66.0202 161.214 65.9528 161.33 65.8649 161.43C65.7828 161.519 65.6873 161.596 65.5818 161.656C64.8741 162.21 64.1947 162.773 63.5598 163.314C63.4742 163.388 63.3772 163.447 63.2726 163.488ZM252.656 89.1568C252.425 89.2488 252.168 89.2508 251.935 89.1623C251.702 89.0738 251.511 88.9014 251.399 88.6789C251.288 88.4565 251.263 88.2003 251.331 87.9608C251.399 87.7213 251.555 87.5161 251.766 87.3855L254.031 85.974C254.251 85.8863 254.495 85.8786 254.72 85.9522C254.945 86.0258 255.137 86.176 255.263 86.3767C255.388 86.5775 255.44 86.8159 255.407 87.0505C255.375 87.2851 255.262 87.501 255.087 87.6605L252.822 89.0719C252.771 89.1073 252.715 89.1358 252.656 89.1568ZM257.222 86.3259C256.991 86.4146 256.736 86.4142 256.505 86.3247C256.275 86.2353 256.086 86.0633 255.975 85.8421C255.865 85.621 255.84 85.3667 255.907 85.1286C255.974 84.8906 256.127 84.686 256.336 84.5546L258.431 83.2281C258.632 83.0971 258.871 83.0393 259.109 83.0643C259.347 83.0894 259.569 83.1958 259.738 83.3656C259.837 83.4731 259.912 83.6013 259.957 83.7411C260.002 83.8809 260.015 84.0289 259.996 84.1744C259.978 84.32 259.927 84.4596 259.848 84.5833C259.769 84.707 259.663 84.8118 259.539 84.8902L257.392 86.241C257.339 86.2808 257.282 86.3147 257.222 86.3421V86.3259ZM67.4502 160.184C67.2298 160.249 66.9939 160.236 66.7816 160.149C66.5692 160.061 66.3929 159.904 66.2818 159.703C66.1707 159.502 66.1314 159.269 66.1703 159.043C66.2092 158.816 66.324 158.61 66.4958 158.457C67.1955 157.94 67.9275 157.41 68.6756 156.888C68.7669 156.785 68.8781 156.702 69.0026 156.643C69.1271 156.585 69.2622 156.552 69.3997 156.547C69.5372 156.542 69.6743 156.565 69.8026 156.615C69.9309 156.665 70.0477 156.74 70.146 156.837C70.2442 156.933 70.3219 157.048 70.3742 157.176C70.4265 157.303 70.4524 157.439 70.4503 157.577C70.4482 157.715 70.4181 157.85 70.3619 157.976C70.3057 158.102 70.2246 158.215 70.1234 158.308C70.0345 158.394 69.932 158.465 69.8201 158.518C69.0841 159.036 68.3683 159.549 67.6808 160.059C67.6113 160.113 67.5334 160.155 67.4502 160.184ZM71.826 157.236C71.6847 157.291 71.5327 157.312 71.3817 157.299C71.2307 157.286 71.0847 157.239 70.9548 157.161C70.8249 157.083 70.7145 156.976 70.6321 156.849C70.5497 156.722 70.4974 156.578 70.4793 156.427C70.4568 156.237 70.4885 156.045 70.5708 155.873C70.6531 155.7 70.7827 155.554 70.9444 155.453C71.6481 154.983 72.3801 154.506 73.1202 154.033C73.3197 153.9 73.5595 153.841 73.7981 153.866C74.0367 153.891 74.259 153.999 74.4264 154.171C74.5272 154.278 74.6031 154.405 74.6486 154.545C74.6941 154.685 74.708 154.833 74.6895 154.979C74.6709 155.125 74.6203 155.264 74.5412 155.388C74.4622 155.512 74.3567 155.617 74.2323 155.695C73.476 156.181 72.7319 156.662 72.0161 157.143C71.9541 157.177 71.8891 157.206 71.822 157.228L71.826 157.236ZM76.315 154.199C76.0897 154.257 75.8514 154.235 75.64 154.138C75.4286 154.041 75.2569 153.875 75.1536 153.666C75.0504 153.458 75.0218 153.22 75.0728 152.993C75.1237 152.766 75.251 152.564 75.4334 152.42C76.1775 151.963 76.95 151.501 77.7305 151.04C77.9579 150.906 78.2292 150.868 78.4848 150.934C78.7404 151 78.9593 151.165 79.0934 151.392C79.2274 151.62 79.2657 151.891 79.1997 152.147C79.1337 152.402 78.9689 152.621 78.7415 152.755C77.9731 153.208 77.2088 153.669 76.4727 154.106C76.4212 154.143 76.3656 154.174 76.3069 154.199H76.315ZM80.9011 151.562C80.667 151.653 80.407 151.653 80.1734 151.56C79.9398 151.467 79.75 151.29 79.6419 151.063C79.5339 150.836 79.5157 150.577 79.591 150.337C79.6662 150.097 79.8294 149.895 80.0478 149.771C80.8121 149.334 81.6007 148.893 82.3853 148.46C82.61 148.387 82.8533 148.394 83.0733 148.481C83.2932 148.567 83.476 148.728 83.5901 148.935C83.7042 149.142 83.7424 149.383 83.6982 149.615C83.6539 149.847 83.53 150.057 83.3478 150.207C82.5713 150.636 81.7908 151.073 81.0345 151.501L80.9011 151.562ZM85.568 148.99C85.3298 149.091 85.0618 149.094 84.8209 149.001C84.5799 148.907 84.3849 148.723 84.2771 148.488C84.1693 148.253 84.1573 147.985 84.2435 147.742C84.3297 147.498 84.5074 147.297 84.739 147.182L87.1008 145.937C87.207 145.855 87.3282 145.795 87.4576 145.761C87.5869 145.726 87.7218 145.717 87.8545 145.735C87.9873 145.752 88.1153 145.796 88.2313 145.862C88.3472 145.929 88.4489 146.019 88.5304 146.125C88.6119 146.231 88.6717 146.352 88.7064 146.482C88.741 146.611 88.7499 146.746 88.7324 146.879C88.715 147.011 88.6715 147.139 88.6046 147.255C88.5377 147.371 88.4485 147.473 88.3423 147.554C88.2448 147.628 88.1353 147.684 88.0188 147.72C87.2302 148.125 86.4416 148.529 85.657 148.958L85.568 148.99ZM90.2957 146.539C90.0572 146.633 89.7916 146.632 89.5544 146.534C89.3171 146.437 89.1265 146.253 89.0222 146.018C88.9179 145.784 88.908 145.519 88.9946 145.278C89.0811 145.036 89.2575 144.838 89.4868 144.723C90.2957 144.319 91.1045 143.915 91.885 143.534C92.1215 143.423 92.3925 143.409 92.6392 143.495C92.886 143.582 93.0887 143.762 93.2036 143.997C93.3184 144.232 93.3361 144.503 93.2528 144.751C93.1695 144.999 92.992 145.204 92.7585 145.322C91.9497 145.726 91.1692 146.103 90.3927 146.503L90.2957 146.539ZM95.0961 144.202C94.8586 144.281 94.5999 144.269 94.3712 144.167C94.1425 144.065 93.9605 143.88 93.8613 143.65C93.7621 143.42 93.7529 143.162 93.8355 142.925C93.9181 142.689 94.0866 142.492 94.3075 142.374C95.8442 141.654 96.7339 141.262 96.7703 141.246C96.893 141.165 97.0316 141.112 97.1767 141.091C97.3218 141.069 97.4698 141.08 97.6105 141.121C97.7512 141.162 97.8812 141.234 97.9915 141.331C98.1018 141.427 98.1897 141.547 98.2492 141.681C98.3086 141.815 98.3382 141.96 98.3358 142.107C98.3335 142.254 98.2992 142.398 98.2355 142.53C98.1717 142.662 98.08 142.779 97.9667 142.872C97.8534 142.965 97.7211 143.033 97.5792 143.069C97.5792 143.069 96.6692 143.474 95.1527 144.173L95.0961 144.202Z" fill="#A8D29F"/>
<path d="M308.57 62.8086L274.385 83.9636L254.852 113.077L308.57 62.8086Z" fill="#A8D29F"/>
</svg>
