<svg width="286" height="284" viewBox="0 0 286 284" fill="none" xmlns="http://www.w3.org/2000/svg">
<path d="M252.65 244.053C246.818 250.163 241.3 254.104 236.941 257.217C185.694 293.816 125.056 283.147 112.169 280.542C93.139 276.695 56.3536 269.259 29.758 238.129C-10.4781 191.037 -4.21264 116.833 26.9976 67.852C32.7063 58.8928 62.8615 9.16588 124.152 1.1913C161.246 -3.63395 204.486 6.09936 235.795 32.2103C301.522 87.0201 296.842 197.744 252.65 244.053Z" fill="#D1E6FF"/>
<path d="M67.1211 111.006L68.4418 115.106C76.8436 114.293 99.7612 112.269 104.734 108.932C101.742 101.442 98.7015 96.9979 96.3141 94.3945C88.4934 105.466 67.1211 111.006 67.1211 111.006Z" fill="url(#paint0_linear)"/>
<path d="M120.165 87.8551L106.197 65.8711C105.283 78.2701 101.117 87.5903 96.3162 94.389C98.7036 96.9923 101.744 101.436 104.736 108.926C117.147 100.601 120.165 87.8551 120.165 87.8551Z" fill="url(#paint1_linear)"/>
<path d="M135.019 261.582C128.055 261.904 121.314 261.702 116.814 261.469C120.912 258.533 130.352 252.146 138.25 249.607L143.673 249.281C143.673 249.281 145.511 252.094 146.167 258.531C145.271 259.656 142.643 261.229 135.019 261.582Z" fill="url(#paint2_linear)"/>
<path d="M116.759 261.51L116.815 261.469C121.316 261.702 128.057 261.905 135.021 261.583C142.64 261.23 145.272 259.656 146.171 258.527C146.2 258.824 146.232 259.118 146.256 259.43C146.284 259.766 146.245 260.104 146.143 260.425C146.04 260.746 145.876 261.043 145.658 261.3C145.441 261.556 145.176 261.767 144.877 261.92C144.579 262.073 144.253 262.165 143.919 262.191C138.216 262.625 124.074 263.608 117.255 263.247C117.058 263.236 116.869 263.164 116.715 263.04C116.561 262.916 116.449 262.747 116.394 262.556C116.34 262.365 116.346 262.162 116.411 261.974C116.476 261.787 116.598 261.625 116.759 261.51Z" fill="url(#paint3_linear)"/>
<path d="M184.831 259.706C185.339 256.414 186.157 251.658 186.789 250.442C187.781 248.534 191.174 250.442 191.174 250.442C191.174 250.442 193.556 251.559 194.653 253.423C195.352 254.611 197.285 257.991 198.595 260.286C198.737 260.534 198.807 260.817 198.798 261.104L185.211 261.582C184.863 261.023 184.728 260.357 184.831 259.706Z" fill="url(#paint4_linear)"/>
<path d="M198.796 261.102C198.785 261.5 198.623 261.879 198.343 262.16C198.063 262.442 197.686 262.604 197.29 262.615L187.61 262.884C187.132 262.897 186.658 262.784 186.236 262.555C185.815 262.326 185.461 261.99 185.209 261.58L198.796 261.102Z" fill="url(#paint5_linear)"/>
<path d="M183.791 239.504C183.908 239.899 185.663 248.466 186.432 252.225C186.534 252.728 186.812 253.178 187.214 253.493C187.617 253.807 188.118 253.966 188.628 253.941C189.203 253.913 189.871 253.86 190.573 253.768C191.176 253.688 191.73 253.396 192.139 252.944C192.548 252.492 192.785 251.909 192.808 251.298C192.932 248.006 192.994 241.681 191.792 239.232C190.139 235.851 183.791 239.504 183.791 239.504Z" fill="url(#paint6_linear)"/>
<path d="M144.744 241.96C143.991 241.936 145.049 245.874 143.906 249.743C143.649 250.616 143 251.301 142.095 251.313C141.509 251.32 140.814 251.313 140.109 251.252C139.596 251.214 139.112 250.994 138.744 250.632C138.376 250.27 138.147 249.788 138.098 249.272L137.171 239.234L144.744 241.96Z" fill="url(#paint7_linear)"/>
<path d="M123.68 135.253C124.016 136.899 135.879 206.546 136.599 242.584C136.604 242.877 136.712 243.158 136.904 243.377C137.097 243.596 137.36 243.739 137.648 243.78C139.153 243.99 142.086 244.262 144.931 243.732C145.121 243.699 145.294 243.603 145.423 243.459C145.552 243.315 145.629 243.132 145.642 242.938C146.057 236.222 149.392 179.44 145.308 152.71C145.308 152.71 179.037 224.164 184.153 243.866C184.213 244.098 184.35 244.302 184.542 244.443C184.734 244.585 184.969 244.655 185.207 244.642C186.652 244.565 189.656 244.303 192.041 243.42C192.454 243.269 192.797 242.97 193.005 242.58C193.213 242.19 193.271 241.737 193.168 241.307C190.311 229.516 170.29 148.278 156.696 130.379L123.68 135.253Z" fill="#2B7733"/>
<path d="M145.302 153.154C145.389 153.154 145.474 153.129 145.547 153.08C145.62 153.032 145.677 152.963 145.711 152.882C145.745 152.801 145.754 152.712 145.738 152.626C145.721 152.539 145.68 152.46 145.619 152.397L141.105 147.748C141.064 147.705 141.016 147.671 140.962 147.647C140.908 147.623 140.851 147.61 140.792 147.609C140.733 147.608 140.675 147.619 140.62 147.641C140.566 147.663 140.516 147.695 140.474 147.737C140.432 147.778 140.399 147.827 140.376 147.882C140.353 147.936 140.341 147.995 140.341 148.054C140.341 148.113 140.352 148.171 140.375 148.226C140.397 148.28 140.43 148.33 140.472 148.372L144.989 153.02C145.03 153.062 145.078 153.096 145.132 153.119C145.186 153.142 145.243 153.154 145.302 153.154Z" fill="url(#paint8_linear)"/>
<path d="M104.398 48.0548C113.063 45.7705 129.046 42.1927 141.769 42.9566C143.18 43.0338 144.514 43.6306 145.516 44.6333C146.518 45.636 147.118 46.9746 147.203 48.3943C149.126 82.5002 151.752 112.765 156.698 130.373C145.581 134.802 134.559 136.855 123.68 135.248C115.535 117.686 108.417 97.3999 102.327 74.3886C102.327 74.3886 98.7563 56.0253 102.226 49.9045C102.764 48.9546 103.475 48.2982 104.398 48.0548Z" fill="url(#paint9_linear)"/>
<path d="M121.409 25.7031C121.409 25.7031 125.928 37.0725 128.077 43.3803C128.397 44.32 127.67 45.3016 126.793 45.7556C124.401 46.9949 119.296 48.9909 113.734 47.1596C113.288 47.007 112.902 46.7146 112.632 46.3253C112.363 45.9359 112.225 45.47 112.238 44.9959L112.619 27.4567L121.409 25.7031Z" fill="url(#paint10_linear)"/>
<path d="M99.7502 18.745C99.7502 18.745 100.945 29.3229 103.245 33.9007C105.545 38.4785 106.248 41.911 111.857 39.8415C117.466 37.7719 120.289 32.7207 120.086 26.9496C120.086 26.9496 119.823 18.0221 117.405 15.7091C114.987 13.3962 99.7502 18.745 99.7502 18.745Z" fill="url(#paint11_linear)"/>
<path d="M116.52 24.7829L115.876 25.1571C115.876 25.1571 115.385 18.1345 112.501 18.5271C109.617 18.9198 99.2886 22.3953 95.4017 20.2541C91.6539 18.1907 91.0098 13.0863 92.9136 10.4452C92.9746 10.3658 93.0628 10.3124 93.161 10.2954C93.2592 10.2783 93.3601 10.2989 93.4439 10.3531L93.8879 10.6343C93.9553 10.6771 94.0338 10.6986 94.1134 10.696C94.193 10.6935 94.2701 10.667 94.3346 10.6201C94.3992 10.5732 94.4483 10.5079 94.4757 10.4326C94.5031 10.3573 94.5075 10.2755 94.4883 10.1977C94.4696 10.1232 94.4725 10.0447 94.4968 9.97179C94.5212 9.89887 94.5658 9.83452 94.6255 9.78644C94.6851 9.73836 94.7573 9.70857 94.8333 9.70064C94.9093 9.6927 94.986 9.70695 95.0542 9.74168C96.2307 10.3736 98.804 11.0168 103.708 9.26417C110.666 6.77639 116.293 6.92159 118.906 11.2356C118.943 11.2973 118.996 11.3479 119.058 11.3822C119.121 11.4165 119.192 11.4332 119.263 11.4306C119.335 11.428 119.404 11.4062 119.464 11.3674C119.524 11.3286 119.573 11.2742 119.605 11.21C119.91 10.6548 120.573 10.0852 122.044 10.3521C124.609 10.8102 126.078 15.0117 124.083 20.3298C124.059 20.388 124.05 20.451 124.055 20.5136C124.06 20.5762 124.08 20.6367 124.112 20.6902C124.145 20.7436 124.19 20.7886 124.243 20.8214C124.296 20.8542 124.357 20.8739 124.419 20.8789C125.363 20.929 126.999 21.4045 125.168 24.3718C123.293 27.4066 121.598 28.1797 120.901 28.376C120.811 28.4025 120.715 28.3966 120.63 28.3592C120.544 28.3218 120.474 28.2554 120.432 28.1715L118.45 24.154C118.426 24.1048 118.392 24.0612 118.35 24.0258C118.308 23.9903 118.26 23.9639 118.208 23.948C118.156 23.9321 118.101 23.9271 118.046 23.9333C117.992 23.9396 117.94 23.9569 117.892 23.9843L116.52 24.7829Z" fill="url(#paint12_linear)"/>
<path d="M116.827 25.6856C116.827 25.6856 115.124 19.4759 118.397 19.5914C121.67 19.707 120.621 26.3666 118.803 27.6928L116.827 25.6856Z" fill="url(#paint13_linear)"/>
<path d="M169.62 93.4797C173.905 105.579 174.935 120.065 174.935 120.065H180.064C180.064 120.065 184.437 111.331 182.767 91.946C177.554 91.1494 172.671 92.3785 169.62 93.4797Z" fill="url(#paint14_linear)"/>
<path d="M182.763 91.9557C182.576 89.7757 182.281 87.4689 181.843 85.018C178.027 63.6321 150.797 47.1911 144.389 43.5908C144.254 43.5152 144.1 43.4772 143.945 43.4807C143.79 43.4842 143.639 43.5292 143.507 43.6109C143.374 43.6927 143.266 43.8083 143.193 43.946C143.12 44.0837 143.084 44.2385 143.09 44.3945L148.538 73.5C163.704 75.5512 166.348 84.2398 169.62 93.4813C172.667 92.379 177.551 91.15 182.763 91.9557Z" fill="url(#paint15_linear)"/>
<path d="M1.04419 140.908L0.225342 140.295C2.10584 137.732 55.849 110.505 61.97 107.409L62.1122 107.336L62.2697 107.358L173.109 123.003L268.01 137.878L267.854 138.891L172.965 124.017L62.286 108.4C38.3484 120.509 2.38726 139.105 1.04419 140.908Z" fill="#F9FBFF"/>
<path d="M59.4111 112.936C58.8898 112.79 58.4071 112.529 57.998 112.173C57.5888 111.817 57.2633 111.373 57.045 110.875C56.1774 108.92 55.2011 105.787 57.2868 104.833C60.3936 103.411 66.0412 109.239 66.0412 109.239L68.8015 113.738L71.325 114.973C69.0128 115.616 64.5548 114.549 59.4111 112.936Z" fill="url(#paint16_linear)"/>
<path d="M171.869 119.394C169.62 120.066 166.18 120.626 164.886 123.752C164.886 123.752 172.737 121.79 169.899 124.605C169.899 124.605 166.025 123.937 164.886 125.965C163.639 128.182 186.238 134.739 180.215 117.953L171.869 119.394Z" fill="url(#paint17_linear)"/>
<path d="M253.655 284H21.41C17.8221 284 14.918 278.895 14.918 272.598V225.241C14.918 213.976 20.1207 204.842 26.5396 204.842C46.8038 199.271 66.793 199.984 86.48 207.564C110.546 202.486 134.655 202.486 158.805 207.564C185.036 198.968 215.209 199.641 247.307 204.842C252.974 204.842 257.569 212.907 257.569 222.855V277.14C257.563 280.929 255.813 284 253.655 284Z" fill="url(#paint18_linear)"/>
<path d="M91.9563 194.131C91.9563 194.131 92.706 249.181 80.8704 253.443C79.9052 253.792 79.0559 253.789 78.3061 253.495C69.8738 250.211 73.965 209.856 62.7531 207.124H50.6147C38.4072 210.084 44.3382 257.7 32.5005 253.444C31.8025 253.182 31.164 252.782 30.6231 252.266C30.5845 252.229 30.5418 252.193 30.5032 252.155C20.7502 242.779 21.4146 194.129 21.4146 194.129C11.24 177.618 13.855 155.228 13.855 155.228C12.9285 141.378 29.8073 129.793 39.6151 135.826C45.6336 139.532 52.3743 141.058 56.689 141.689C60.257 141.167 65.487 140.033 70.5931 137.559C71.6797 137.035 72.7387 136.454 73.7659 135.82C83.5687 129.788 100.447 141.37 99.521 155.216C99.5159 155.224 102.128 177.62 91.9563 194.131Z" fill="#F9FBFF"/>
<path d="M91.9544 194.13C91.9544 194.13 92.7042 249.18 80.8685 253.442C79.9034 253.791 79.054 253.791 78.3043 253.497C87.8368 245.419 82.2177 203.34 79.4411 197.921C76.6402 192.452 84.6407 182.378 87.9394 163.097C91.2382 143.815 70.5862 137.563 70.5862 137.563C71.6727 137.038 72.7317 136.458 73.759 135.824C83.5617 129.792 100.441 141.374 99.514 155.219C99.514 155.223 102.126 177.619 91.9544 194.13Z" fill="#77ADEF"/>
<path opacity="0.3" d="M53.2578 207.123H50.6164C38.4089 210.082 44.3399 257.698 32.5022 253.443C31.8042 253.181 31.1657 252.78 30.6248 252.265C40.3778 256.144 39.4634 217.873 41.0656 211.542C42.6677 205.211 53.2578 207.123 53.2578 207.123Z" fill="url(#paint19_linear)"/>
<path d="M170.838 196.354C170.838 196.354 171.585 251.4 159.753 255.659C158.787 256.007 157.938 256.004 157.189 255.711C148.756 252.427 152.847 212.072 141.635 209.341H129.496C117.29 212.299 123.221 259.915 111.382 255.66C110.684 255.398 110.046 254.997 109.505 254.481L109.385 254.37C99.6318 244.994 100.296 196.344 100.296 196.344C90.1226 179.834 92.7366 157.443 92.7366 157.443C91.8101 143.597 108.687 132.013 118.492 138.048C124.51 141.755 131.251 143.28 135.565 143.911C139.134 143.39 144.364 142.256 149.471 139.781C150.556 139.258 151.615 138.68 152.642 138.049C162.445 132.016 179.324 143.597 178.397 157.443C178.397 157.442 181.009 179.839 170.838 196.354Z" fill="#F9FBFF"/>
<path d="M170.839 196.352C170.839 196.352 171.586 251.398 159.754 255.658C158.788 256.006 157.94 256.006 157.19 255.712C166.723 247.634 161.103 205.555 158.327 200.135C155.526 194.667 163.526 184.593 166.824 165.312C170.122 146.03 149.472 139.775 149.472 139.775C150.558 139.253 151.616 138.674 152.644 138.043C162.446 132.01 179.325 143.591 178.399 157.437C178.399 157.44 181.011 179.837 170.839 196.352Z" fill="#77ADEF"/>
<path opacity="0.3" d="M132.14 209.338H129.498C117.292 212.296 123.223 259.912 111.384 255.658C110.686 255.395 110.048 254.994 109.507 254.479C119.26 258.358 118.345 220.088 119.948 213.756C121.552 207.425 132.14 209.338 132.14 209.338Z" fill="url(#paint20_linear)"/>
<path d="M249.733 194.128C249.733 194.128 250.483 249.178 238.648 253.441C237.682 253.789 236.833 253.786 236.083 253.492C227.651 250.208 231.742 209.852 220.53 207.121H208.392C196.184 210.08 202.115 257.697 190.278 253.441C189.58 253.179 188.941 252.779 188.4 252.263C188.362 252.225 188.319 252.189 188.28 252.152C178.527 242.775 179.192 194.126 179.192 194.126C169.017 177.615 171.632 155.225 171.632 155.225C170.706 141.379 187.582 129.795 197.387 135.83C203.406 139.536 210.146 141.062 214.461 141.693C218.029 141.171 223.259 140.037 228.365 137.563C229.452 137.038 230.511 136.458 231.538 135.824C241.341 129.792 258.22 141.374 257.293 155.219C257.293 155.22 259.905 177.617 249.733 194.128Z" fill="#F9FBFF"/>
<path d="M249.736 194.13C249.736 194.13 250.485 249.18 238.65 253.443C237.684 253.791 236.835 253.791 236.085 253.497C245.618 245.419 239.999 203.34 237.222 197.921C234.421 192.452 242.422 182.378 245.721 163.097C249.019 143.815 228.367 137.563 228.367 137.563C229.454 137.038 230.513 136.458 231.54 135.824C241.343 129.792 258.222 141.374 257.295 155.219C257.295 155.223 259.907 177.619 249.736 194.13Z" fill="#77ADEF"/>
<path opacity="0.3" d="M211.037 207.123H208.396C196.188 210.082 202.119 257.698 190.281 253.443C189.583 253.181 188.945 252.78 188.404 252.265C198.157 256.144 197.243 217.873 198.845 211.542C200.447 205.211 211.037 207.123 211.037 207.123Z" fill="url(#paint21_linear)"/>
<path d="M36.3366 200.549C31.6633 200.549 26.3896 200.198 21.9215 197.695C13.3602 192.899 10.9494 182.352 10.2697 176.492C9.9385 173.619 9.8684 170.527 9.79424 167.254C9.55753 156.792 9.31269 145.973 0.633527 140.606C0.331196 140.414 0.116246 140.11 0.0352926 139.76C-0.0456612 139.409 0.0139076 139.041 0.20108 138.734C0.388253 138.428 0.687939 138.208 1.03515 138.122C1.38236 138.037 1.7491 138.092 2.05584 138.277C11.9948 144.423 12.2691 156.52 12.5109 167.192C12.583 170.399 12.6521 173.429 12.969 176.176C13.5857 181.517 15.7405 191.105 23.2432 195.307C27.9775 197.959 33.8547 197.868 39.039 197.787C93.0463 196.95 150.769 196.161 215.507 195.378L219.077 195.335C225.307 195.261 231.629 195.131 237.867 194.936C241.061 194.834 244.682 194.732 247.714 193.276C252.069 191.187 254.571 186.657 255.903 183.225C257.858 178.187 258.269 172.201 258.704 165.862C259.408 155.604 260.136 145.003 267.933 138.396C268.069 138.276 268.227 138.185 268.398 138.128C268.57 138.071 268.751 138.049 268.93 138.063C269.11 138.077 269.286 138.127 269.446 138.209C269.607 138.292 269.749 138.407 269.865 138.546C269.981 138.685 270.069 138.846 270.123 139.019C270.176 139.192 270.195 139.375 270.178 139.555C270.161 139.736 270.108 139.912 270.023 140.072C269.938 140.232 269.822 140.373 269.681 140.488C262.766 146.342 262.11 155.916 261.414 166.05C260.984 172.314 260.539 178.792 258.433 184.219C256.923 188.112 254.04 193.271 248.883 195.743C245.335 197.445 241.241 197.569 237.951 197.67C231.695 197.86 225.353 197.994 219.111 198.069L215.541 198.112C150.808 198.896 93.09 199.683 39.0848 200.521C38.1978 200.539 37.2774 200.549 36.3366 200.549Z" fill="url(#paint22_linear)"/>
<defs>
<linearGradient id="paint0_linear" x1="81.3656" y1="98.0858" x2="110.436" y2="174.626" gradientUnits="userSpaceOnUse">
<stop stop-color="#804829"/>
<stop offset="1" stop-color="#EFD1B7"/>
</linearGradient>
<linearGradient id="paint1_linear" x1="108.241" y1="65.8711" x2="108.241" y2="108.926" gradientUnits="userSpaceOnUse">
<stop stop-color="#358D3E"/>
<stop offset="1" stop-color="#124F18"/>
</linearGradient>
<linearGradient id="paint2_linear" x1="146.263" y1="255.513" x2="116.355" y2="255.513" gradientUnits="userSpaceOnUse">
<stop stop-color="#2B3582"/>
<stop offset="1" stop-color="#150E42"/>
</linearGradient>
<linearGradient id="paint3_linear" x1="146.264" y1="260.926" x2="116.358" y2="260.926" gradientUnits="userSpaceOnUse">
<stop stop-color="#53D8FF"/>
<stop offset="1" stop-color="#3840F7"/>
</linearGradient>
<linearGradient id="paint4_linear" x1="92756.5" y1="35786.4" x2="94686.5" y2="35786.4" gradientUnits="userSpaceOnUse">
<stop stop-color="#2B3582"/>
<stop offset="1" stop-color="#150E42"/>
</linearGradient>
<linearGradient id="paint5_linear" x1="90017.7" y1="5659.07" x2="91835" y2="5659.07" gradientUnits="userSpaceOnUse">
<stop stop-color="#53D8FF"/>
<stop offset="1" stop-color="#3840F7"/>
</linearGradient>
<linearGradient id="paint6_linear" x1="-59927.1" y1="46567.5" x2="-60739.3" y2="46567.5" gradientUnits="userSpaceOnUse">
<stop stop-color="#FEBBBA"/>
<stop offset="1" stop-color="#FF928E"/>
</linearGradient>
<linearGradient id="paint7_linear" x1="-53411.4" y1="34832.5" x2="-53975.9" y2="34832.5" gradientUnits="userSpaceOnUse">
<stop stop-color="#FEBBBA"/>
<stop offset="1" stop-color="#FF928E"/>
</linearGradient>
<linearGradient id="paint8_linear" x1="125.91" y1="128.089" x2="157.156" y2="168.226" gradientUnits="userSpaceOnUse">
<stop stop-color="#50E7B7"/>
<stop offset="1" stop-color="#323992"/>
</linearGradient>
<linearGradient id="paint9_linear" x1="128.704" y1="42.8516" x2="128.704" y2="135.791" gradientUnits="userSpaceOnUse">
<stop stop-color="#2E9338"/>
<stop offset="1" stop-color="#1B5E22"/>
</linearGradient>
<linearGradient id="paint10_linear" x1="-116558" y1="22374.5" x2="-117624" y2="17662.7" gradientUnits="userSpaceOnUse">
<stop stop-color="#7F4829"/>
<stop offset="1" stop-color="#EFD1B7"/>
</linearGradient>
<linearGradient id="paint11_linear" x1="-125515" y1="99559.9" x2="-118979" y2="99770.2" gradientUnits="userSpaceOnUse">
<stop stop-color="#804829"/>
<stop offset="1" stop-color="#804829"/>
</linearGradient>
<linearGradient id="paint12_linear" x1="-217370" y1="144378" x2="-216673" y2="152720" gradientUnits="userSpaceOnUse">
<stop stop-color="#2B3582"/>
<stop offset="1" stop-color="#150E42"/>
</linearGradient>
<linearGradient id="paint13_linear" x1="-23692.5" y1="22005.8" x2="-22254.2" y2="21793.7" gradientUnits="userSpaceOnUse">
<stop stop-color="#804829"/>
<stop offset="1" stop-color="#804829"/>
</linearGradient>
<linearGradient id="paint14_linear" x1="29642.5" y1="40775.9" x2="39694.3" y2="47698" gradientUnits="userSpaceOnUse">
<stop stop-color="#804829"/>
<stop offset="0.6875" stop-color="#EFD1B7"/>
</linearGradient>
<linearGradient id="paint15_linear" x1="162.926" y1="43.4805" x2="162.926" y2="93.4813" gradientUnits="userSpaceOnUse">
<stop stop-color="#358D3D"/>
<stop offset="1" stop-color="#124F19"/>
</linearGradient>
<linearGradient id="paint16_linear" x1="15885.3" y1="14959.6" x2="18196.9" y2="23830.6" gradientUnits="userSpaceOnUse">
<stop stop-color="#8B5537"/>
<stop offset="1" stop-color="#FEDFBA"/>
</linearGradient>
<linearGradient id="paint17_linear" x1="34779" y1="17753.6" x2="36717.9" y2="21876.1" gradientUnits="userSpaceOnUse">
<stop stop-color="#804829"/>
<stop offset="1" stop-color="#EFD1B7"/>
</linearGradient>
<linearGradient id="paint18_linear" x1="177.784" y1="89.3348" x2="140.207" y2="204.817" gradientUnits="userSpaceOnUse">
<stop stop-color="#940900"/>
<stop offset="1" stop-color="#E9605A"/>
</linearGradient>
<linearGradient id="paint19_linear" x1="17378.7" y1="127514" x2="22420.9" y2="127514" gradientUnits="userSpaceOnUse">
<stop stop-color="#53D8FF"/>
<stop offset="1" stop-color="#3840F7"/>
</linearGradient>
<linearGradient id="paint20_linear" x1="35031" y1="128536" x2="40073.4" y2="128536" gradientUnits="userSpaceOnUse">
<stop stop-color="#53D8FF"/>
<stop offset="1" stop-color="#3840F7"/>
</linearGradient>
<linearGradient id="paint21_linear" x1="52686.7" y1="127514" x2="57728.9" y2="127514" gradientUnits="userSpaceOnUse">
<stop stop-color="#53D8FF"/>
<stop offset="1" stop-color="#3840F7"/>
</linearGradient>
<linearGradient id="paint22_linear" x1="125619" y1="132652" x2="844136" y2="132652" gradientUnits="userSpaceOnUse">
<stop stop-color="#FFA9A8"/>
<stop offset="1" stop-color="#FF928E"/>
</linearGradient>
</defs>
</svg>
