<svg width="284" height="286" viewBox="0 0 284 286" fill="none" xmlns="http://www.w3.org/2000/svg">
<path d="M272.097 193.193C244.547 257.466 171.144 293.47 107.494 283.76C97.1368 282.179 68.7418 277.471 43.6022 255.261C-4.79075 212.506 -15.1431 127.844 23.8942 68.181C52.3078 24.7561 103.242 0.140653 151.635 1.3724C162.057 1.63715 202.012 3.27164 237.124 31.9534C242.283 36.1658 253.656 46.1762 263.907 62.058C287.985 99.3497 290.054 151.311 272.097 193.193Z" fill="#D1E6FF"/>
<path d="M188.929 29.2307L39.2815 35.616C35.3062 35.7854 31.5488 37.4541 28.7857 40.2773C26.0226 43.1004 24.4649 46.8623 24.4345 50.7856L22.7835 265.187C22.7717 266.7 23.0686 268.2 23.6566 269.597C24.2446 270.995 25.1117 272.262 26.2062 273.322C27.3008 274.382 28.6005 275.215 30.0279 275.77C31.4554 276.325 32.9815 276.591 34.5155 276.553L206.166 272.306C207.608 272.269 209.028 271.95 210.343 271.366C211.659 270.782 212.843 269.946 213.827 268.906C214.811 267.866 215.575 266.644 216.075 265.31C216.575 263.976 216.8 262.557 216.737 261.136L207.286 45.8288C207.083 41.2279 205.035 36.8949 201.593 33.7824C198.15 30.6699 193.596 29.0326 188.929 29.2307Z" fill="url(#paint0_linear)"/>
<path d="M180.937 269.748C180.828 269.754 180.721 269.717 180.639 269.645C180.558 269.572 180.508 269.471 180.503 269.363C180.497 269.255 180.535 269.149 180.608 269.069C180.681 268.989 180.784 268.94 180.893 268.934L200.074 267.87C206.039 267.54 210.682 262.478 210.424 256.596L209.169 228.025C209.164 227.917 209.202 227.812 209.276 227.732C209.35 227.652 209.452 227.604 209.562 227.599C209.616 227.596 209.67 227.604 209.722 227.623C209.773 227.641 209.82 227.669 209.86 227.705C209.901 227.742 209.933 227.786 209.956 227.834C209.979 227.883 209.992 227.936 209.994 227.99L211.249 256.561C211.526 262.891 206.533 268.331 200.117 268.686L180.94 269.748H180.937Z" fill="url(#paint1_linear)"/>
<path d="M209.217 219.561C209.163 219.564 209.108 219.556 209.057 219.538C209.006 219.519 208.959 219.491 208.919 219.455C208.878 219.418 208.846 219.375 208.823 219.326C208.8 219.277 208.787 219.224 208.785 219.171L208.579 214.544C208.573 214.437 208.612 214.331 208.685 214.251C208.759 214.171 208.861 214.123 208.971 214.118C209.026 214.114 209.081 214.122 209.132 214.139C209.184 214.157 209.232 214.184 209.273 214.22C209.314 214.256 209.348 214.3 209.371 214.349C209.395 214.398 209.409 214.451 209.411 214.505L209.618 219.131C209.621 219.185 209.613 219.24 209.594 219.291C209.576 219.342 209.547 219.389 209.51 219.43C209.472 219.47 209.427 219.502 209.377 219.525C209.327 219.547 209.273 219.56 209.217 219.561Z" fill="url(#paint2_linear)"/>
<path d="M188.392 27.5129C168.077 31.1186 98.1793 42.5686 39.8807 40.6508C39.25 40.629 38.6213 40.7319 38.0315 40.9533C37.4417 41.1747 36.9029 41.5102 36.4466 41.9401C35.9903 42.3699 35.6258 42.8854 35.3745 43.4562C35.1233 44.027 34.9903 44.6415 34.9836 45.2637L32.8343 260.642C32.8196 262.06 33.3749 263.427 34.3787 264.443C35.3825 265.458 36.7533 266.041 38.1915 266.064C62.6904 266.446 163.569 267.663 199.302 262.425C200.353 262.269 201.309 261.737 201.986 260.929C202.664 260.122 203.015 259.097 202.973 258.05L194.409 32.2856C194.381 31.5645 194.196 30.8576 193.868 30.2128C193.539 29.568 193.074 29.0003 192.503 28.5479C191.933 28.0955 191.271 27.769 190.562 27.5905C189.853 27.4119 189.113 27.3855 188.392 27.5129Z" fill="url(#paint3_linear)"/>
<path opacity="0.6" d="M186.451 33.1782C166.901 36.6476 99.6259 47.6672 43.5302 45.8216C42.9233 45.8005 42.3182 45.8994 41.7507 46.1124C41.1831 46.3254 40.6645 46.6482 40.2253 47.0619C39.7862 47.4755 39.4355 47.9716 39.1937 48.521C38.952 49.0703 38.8242 49.6618 38.8178 50.2605L36.7542 257.528C36.7401 258.893 37.2749 260.209 38.2417 261.186C39.2085 262.164 40.5286 262.725 41.9133 262.745C65.4897 263.115 162.569 264.285 196.956 259.243C197.966 259.094 198.886 258.583 199.538 257.807C200.19 257.03 200.528 256.044 200.489 255.037L192.242 37.7738C192.216 37.0794 192.038 36.3987 191.722 35.7777C191.406 35.1567 190.958 34.6099 190.409 34.1742C189.86 33.7386 189.222 33.4242 188.539 33.2523C187.857 33.0805 187.144 33.0552 186.451 33.1782Z" fill="#39D0FF"/>
<path d="M104.162 24.675L121.076 22.4652L121.829 7.04731C121.906 5.54213 121.451 4.05737 120.541 2.84622C119.631 1.63506 118.324 0.772507 116.842 0.405637C113.491 -0.415416 108.787 -0.288238 103.544 3.65017C93.26 11.3744 104.162 24.675 104.162 24.675ZM107.135 11.7315C107.099 10.9059 107.312 10.0882 107.747 9.38188C108.182 8.67558 108.82 8.11236 109.58 7.76344C110.339 7.41452 111.187 7.29557 112.015 7.42164C112.844 7.5477 113.615 7.91311 114.233 8.47167C114.851 9.03023 115.287 9.75684 115.486 10.5596C115.684 11.3624 115.637 12.2054 115.351 12.9818C115.064 13.7583 114.55 14.4334 113.874 14.9218C113.197 15.4103 112.39 15.6901 111.552 15.7259C110.996 15.7496 110.441 15.6651 109.918 15.4773C109.395 15.2894 108.915 15.0018 108.505 14.6308C108.094 14.2599 107.762 13.813 107.527 13.3155C107.292 12.818 107.159 12.2798 107.135 11.7315Z" fill="url(#paint4_linear)"/>
<path d="M119.037 16.4981C118.927 16.493 118.819 16.4665 118.719 16.4201C118.619 16.3737 118.529 16.3083 118.455 16.2277C118.381 16.1471 118.323 16.0528 118.286 15.9503C118.249 15.8478 118.232 15.739 118.238 15.6302L118.357 13.1742C118.363 13.0654 118.39 12.9586 118.437 12.8601C118.484 12.7615 118.55 12.6731 118.632 12.5998C118.714 12.5266 118.809 12.4699 118.913 12.4331C119.017 12.3962 119.128 12.38 119.238 12.3852C119.349 12.3904 119.457 12.417 119.557 12.4634C119.657 12.5099 119.746 12.5753 119.821 12.656C119.895 12.7366 119.952 12.8309 119.99 12.9334C120.027 13.0359 120.044 13.1447 120.038 13.2535L119.919 15.7086C119.914 15.8176 119.887 15.9246 119.84 16.0234C119.793 16.1222 119.727 16.2108 119.645 16.2842C119.563 16.3576 119.467 16.4143 119.363 16.451C119.259 16.4877 119.148 16.5037 119.037 16.4981ZM119.272 11.6867C119.049 11.6757 118.84 11.578 118.69 11.4152C118.54 11.2523 118.462 11.0375 118.472 10.8179L118.563 8.95396C118.62 7.80577 118.272 6.67356 117.578 5.74947C116.885 4.82537 115.889 4.16633 114.758 3.88418C112.916 3.43021 110.988 3.43475 109.148 3.89741C108.932 3.95138 108.702 3.91829 108.51 3.80543C108.319 3.69257 108.18 3.50918 108.125 3.29561C108.071 3.08204 108.104 2.85577 108.219 2.66659C108.333 2.47741 108.519 2.34081 108.736 2.28684C110.843 1.75821 113.051 1.75331 115.161 2.2726C116.669 2.64842 117.998 3.52695 118.924 4.75919C119.85 5.99143 120.315 7.50151 120.241 9.03332L120.15 10.8972C120.139 11.1172 120.04 11.3239 119.874 11.472C119.709 11.62 119.491 11.6972 119.268 11.6867H119.272Z" fill="#91B3FA"/>
<path d="M144.686 31.4034L144.346 23.6822C144.319 23.0499 144.162 22.4295 143.886 21.858C143.61 21.2865 143.22 20.7758 142.74 20.3561C142.259 19.9364 141.698 19.6164 141.089 19.4153C140.481 19.2141 139.837 19.1359 139.197 19.1853L85.2912 23.3129C84.1365 23.4012 83.0568 23.911 82.2631 24.7427C81.4695 25.5743 81.019 26.668 80.9998 27.8099L80.875 35.2482L144.686 31.4034Z" fill="url(#paint5_linear)"/>
<path d="M126.461 22.6418L124.14 22.7436C124.03 22.7487 123.923 22.7108 123.842 22.6381C123.761 22.5654 123.713 22.4639 123.707 22.356C123.702 22.248 123.741 22.1425 123.815 22.0625C123.888 21.9826 123.991 21.9348 124.101 21.9297L126.422 21.8279C126.532 21.8228 126.639 21.8607 126.72 21.9334C126.801 22.0061 126.849 22.1076 126.855 22.2155C126.86 22.3235 126.821 22.429 126.748 22.509C126.674 22.5889 126.571 22.6367 126.461 22.6418Z" fill="#91B3FA"/>
<path d="M141.964 29.4623C142.123 29.3966 142.258 29.2845 142.35 29.1409C142.442 28.9973 142.488 28.8293 142.48 28.6595L142.343 25.5361C142.287 24.2625 141.72 23.063 140.767 22.2014C139.815 21.3398 138.554 20.8866 137.262 20.9414L128.724 21.3067C128.5 21.3163 128.29 21.4129 128.139 21.5752C127.988 21.7376 127.909 21.9525 127.919 22.1725C127.928 22.3926 128.026 22.5998 128.191 22.7486C128.356 22.8974 128.574 22.9757 128.797 22.9661L137.332 22.6008C138.177 22.5669 139.001 22.8642 139.625 23.4278C140.248 23.9914 140.619 24.7754 140.658 25.6083L140.795 28.7318C140.805 28.9518 140.903 29.1589 141.068 29.3077C141.232 29.4564 141.45 29.5347 141.673 29.5254C141.773 29.5213 141.872 29.4999 141.964 29.4623Z" fill="#91B3FA"/>
<path d="M161.477 27.8523L67.0703 31.8762C65.4256 31.9462 63.8588 32.5869 62.6465 33.6852C61.4343 34.7836 60.6545 36.2689 60.4449 37.8789L60.3851 38.3368C60.2734 39.1918 60.3526 40.0605 60.6172 40.8821C60.8818 41.7037 61.3254 42.4583 61.9168 43.0932C62.5083 43.728 63.2333 44.2277 64.0412 44.5572C64.849 44.8867 65.7202 45.0381 66.5936 45.0008L163.449 40.8661C163.976 40.8436 164.493 40.7158 164.969 40.4903C165.445 40.2649 165.869 39.9466 166.217 39.5547C166.564 39.1628 166.827 38.7054 166.99 38.2103C167.152 37.7152 167.211 37.1926 167.163 36.6743L166.767 32.4083C166.647 31.1244 166.031 29.9352 165.046 29.087C164.061 28.2388 162.783 27.7967 161.477 27.8523Z" fill="url(#paint6_linear)"/>
<g opacity="0.61">
<path opacity="0.61" d="M50.2391 233.988L188.662 231.898C191.399 231.856 193.45 230.831 193.242 229.608L193.202 229.375C192.995 228.154 190.614 227.202 187.886 227.244L49.9306 229.355C47.2375 229.396 45.117 230.412 45.1934 231.626L45.2079 231.857C45.2842 233.074 47.5367 234.029 50.2391 233.988Z" fill="#F9FBFF"/>
<path opacity="0.61" d="M189.907 239.415L50.7336 241.466C48.0168 241.506 45.8768 242.539 45.9552 243.774L45.9666 244.01C46.0439 245.248 48.3171 246.221 51.0432 246.181L190.702 244.152C193.464 244.113 195.532 243.07 195.32 241.826L195.28 241.588C195.067 240.347 192.664 239.375 189.907 239.415Z" fill="#F9FBFF"/>
<path opacity="0.61" d="M49.6142 209.09L188.037 207C190.774 206.958 192.825 205.931 192.617 204.71L192.578 204.477C192.371 203.256 189.989 202.303 187.261 202.345L49.3046 204.457C46.6105 204.499 44.4901 205.514 44.5665 206.728L44.5809 206.959C44.6593 208.176 46.9118 209.13 49.6142 209.09Z" fill="#F9FBFF"/>
<path opacity="0.61" d="M189.288 214.509L50.1105 216.562C47.3937 216.602 45.2547 217.634 45.3321 218.869L45.3466 219.105C45.425 220.342 47.6971 221.315 50.4242 221.276L190.079 219.246C192.841 219.206 194.909 218.164 194.697 216.919L194.657 216.682C194.448 215.44 192.042 214.468 189.288 214.509Z" fill="#F9FBFF"/>
</g>
<path d="M134.97 57.4969C134.986 58.7972 134.302 59.8665 133.441 59.8868L48.7543 61.8606C47.8071 61.883 47.0167 60.7944 46.9909 59.429V59.2255C46.9651 57.8601 47.7132 56.7369 48.6604 56.7176L133.379 54.9768C134.241 54.9585 134.951 55.9942 134.967 57.2996L134.97 57.4969Z" fill="#F9FBFF"/>
<path opacity="0.68" d="M184.996 68.9982C185.013 70.2964 183.925 71.3738 182.567 71.4043L48.9913 74.4637C47.4972 74.4983 46.2601 73.4219 46.2291 72.0585V71.8551C46.1982 70.4917 47.3848 69.3604 48.8799 69.3288L182.511 66.5045C183.87 66.476 184.987 67.5056 184.999 68.8038L184.996 68.9982Z" fill="#F9FBFF"/>
<path d="M169.51 129.005C169.51 129.005 170.336 126.28 172.245 126C174.153 125.72 175.79 125.442 176.334 127.341C176.877 129.239 176.334 131.411 172.791 131.707C169.249 132.003 169.51 129.005 169.51 129.005Z" fill="#F9FBFF"/>
<path d="M173.064 119.743C173.064 119.743 174.973 118.929 175.518 120.556C176.062 122.184 176.061 124.085 174.155 125.178C172.248 126.27 170.058 126.01 169.511 123.561C168.964 121.112 171.425 120.016 173.064 119.743Z" fill="#F9FBFF"/>
<path d="M168.139 118.384C167.599 117.492 167.043 115.114 168.687 114.027C170.836 112.602 171.971 112.127 173.062 113.213C174.154 114.298 175.388 117.398 173.608 118.92C171.699 120.557 169.357 120.389 168.139 118.384Z" fill="#F9FBFF"/>
<path d="M168.372 113.144C168.145 113.178 167.913 113.164 167.691 113.103C167.47 113.041 167.264 112.935 167.087 112.789C166.794 112.544 166.587 112.213 166.495 111.844C166.221 110.754 168.141 108.852 169.785 108.313C171.428 107.774 173.303 109.659 171.972 111.313C170.967 112.557 170.192 112.89 168.372 113.144Z" fill="#F9FBFF"/>
<path d="M164.846 108.839C164.846 108.839 164.021 106.925 165.121 105.567C166.221 104.209 167.043 103.396 168.414 103.949C169.785 104.503 171.151 106.413 169.509 107.766C167.867 109.12 165.945 110.206 164.846 108.839Z" fill="#F9FBFF"/>
<path d="M163.074 105.317C162.925 105.278 162.787 105.206 162.672 105.105C162.557 105.003 162.467 104.877 162.412 104.735C162.21 104.245 162.125 103.716 162.163 103.189C162.202 102.662 162.363 102.151 162.635 101.695C163.716 99.8268 164.257 99.2947 165.605 100.109C166.954 100.923 167.491 101.728 167.222 102.529C166.953 103.33 165.605 104.666 164.796 105.192C164.278 105.531 163.541 105.436 163.074 105.317Z" fill="#F9FBFF"/>
<path d="M159.445 97.9076C159.445 97.9076 160.02 96.4904 161.742 97.6431C163.464 98.7959 164.035 99.0828 163.462 99.9303C162.89 100.778 161.742 102.76 160.02 102.465C158.298 102.17 158.295 99.6098 159.445 97.9076Z" fill="#F9FBFF"/>
<path d="M155.738 101.14C154.906 101.14 154.629 100.585 154.352 99.4859C154.076 98.3871 154.075 96.1946 154.352 95.6492C154.63 95.1039 155.738 95.3888 156.846 95.6726C157.954 95.9565 159.059 96.2404 159.059 96.7918C159.059 97.3432 158.561 101.166 155.738 101.14Z" fill="#F9FBFF"/>
<path d="M138.68 129.168C138.68 129.168 137.836 126.412 135.864 126.144C133.891 125.877 132.191 125.605 131.626 127.545C131.06 129.486 131.626 131.697 135.299 131.951C138.972 132.204 138.68 129.168 138.68 129.168Z" fill="#F9FBFF"/>
<path d="M135.015 119.788C135.015 119.788 133.038 118.961 132.472 120.621C131.907 122.281 131.906 124.221 133.885 125.32C135.864 126.42 138.115 126.134 138.678 123.647C139.24 121.159 136.71 120.061 135.015 119.788Z" fill="#F9FBFF"/>
<path d="M140.089 118.399C140.643 117.496 141.213 115.091 139.528 113.986C137.319 112.538 136.149 112.053 135.021 113.151C133.892 114.248 132.61 117.408 134.456 118.956C136.431 120.612 138.842 120.434 140.089 118.399Z" fill="#F9FBFF"/>
<path d="M139.852 113.097C140.084 113.132 140.321 113.119 140.548 113.058C140.774 112.996 140.985 112.889 141.166 112.742C141.466 112.496 141.679 112.162 141.773 111.789C142.054 110.688 140.088 108.751 138.401 108.194C136.714 107.636 134.772 109.535 136.149 111.224C137.184 112.496 137.982 112.833 139.852 113.097Z" fill="#F9FBFF"/>
<path d="M143.453 108.762C143.453 108.762 144.293 106.838 143.173 105.457C142.053 104.075 141.213 103.241 139.805 103.784C138.398 104.327 136.991 106.253 138.68 107.641C140.37 109.029 142.332 110.136 143.453 108.762Z" fill="#F9FBFF"/>
<path d="M145.258 105.225C145.409 105.189 145.549 105.117 145.666 105.016C145.783 104.916 145.874 104.789 145.932 104.646C146.136 104.152 146.221 103.619 146.182 103.088C146.143 102.556 145.979 102.041 145.705 101.581C144.606 99.682 144.054 99.1397 142.681 99.9384C141.309 100.737 140.753 101.548 141.03 102.362C141.308 103.176 142.681 104.536 143.507 105.081C144.034 105.429 144.785 105.335 145.258 105.225Z" fill="#F9FBFF"/>
<path d="M148.933 97.8213C148.933 97.8213 148.353 96.3867 146.61 97.5161C144.867 98.6454 144.282 98.9282 144.864 99.792C145.446 100.656 146.61 102.667 148.353 102.392C150.096 102.116 150.094 99.5458 148.933 97.8213Z" fill="#F9FBFF"/>
<path d="M152.659 101.117C153.493 101.123 153.771 100.576 154.048 99.4817C154.326 98.3869 154.326 96.1954 154.048 95.644C153.771 95.0925 152.659 95.3571 151.548 95.6206C150.437 95.8841 149.32 96.1486 149.32 96.698C149.32 97.2474 149.824 101.097 152.659 101.117Z" fill="#F9FBFF"/>
<path d="M169.51 137.144C169.51 137.144 170.336 139.858 172.245 140.111C174.153 140.364 175.79 140.62 176.334 138.711C176.877 136.802 176.334 134.641 172.791 134.396C169.249 134.151 169.51 137.144 169.51 137.144Z" fill="#F9FBFF"/>
<path d="M173.064 146.358C173.064 146.358 174.973 147.147 175.518 145.511C176.062 143.875 176.061 141.976 174.155 140.91C172.248 139.843 170.058 140.137 169.511 142.593C168.964 145.049 171.425 146.108 173.064 146.358Z" fill="#F9FBFF"/>
<path d="M168.139 147.781C167.599 148.681 167.043 151.067 168.687 152.131C170.836 153.521 171.971 153.984 173.062 152.878C174.154 151.772 175.388 148.659 173.608 147.162C171.699 145.557 169.357 145.758 168.139 147.781Z" fill="#F9FBFF"/>
<path d="M168.372 153.022C168.143 152.992 167.911 153.009 167.689 153.074C167.468 153.138 167.263 153.247 167.087 153.395C166.795 153.645 166.588 153.978 166.495 154.348C166.221 155.444 168.141 157.318 169.785 157.833C171.428 158.348 173.303 156.437 171.972 154.801C170.967 153.568 170.192 153.255 168.372 153.022Z" fill="#F9FBFF"/>
<path d="M164.846 157.38C164.846 157.38 164.021 159.305 165.121 160.648C166.221 161.991 167.043 162.792 168.414 162.219C169.785 161.646 171.151 159.715 169.509 158.386C167.867 157.056 165.945 155.997 164.846 157.38Z" fill="#F9FBFF"/>
<path d="M163.074 160.925C162.924 160.965 162.787 161.04 162.672 161.143C162.556 161.245 162.467 161.373 162.412 161.516C162.21 162.005 162.125 162.533 162.163 163.06C162.202 163.586 162.363 164.097 162.635 164.552C163.716 166.405 164.257 166.928 165.605 166.096C166.954 165.264 167.491 164.45 167.222 163.654C166.953 162.859 165.605 161.546 164.796 161.026C164.278 160.693 163.54 160.803 163.074 160.925Z" fill="#F9FBFF"/>
<path d="M159.445 168.382C159.445 168.382 160.02 169.792 161.742 168.615C163.464 167.438 164.035 167.142 163.462 166.302C162.89 165.463 161.742 163.497 160.02 163.817C158.298 164.136 158.295 166.7 159.445 168.382Z" fill="#F9FBFF"/>
<path d="M155.738 165.207C154.906 165.226 154.629 165.779 154.352 166.882C154.076 167.985 154.075 170.178 154.352 170.719C154.63 171.26 155.738 170.96 156.846 170.66C157.954 170.36 159.059 170.061 159.059 169.513C159.059 168.966 158.561 165.147 155.738 165.207Z" fill="#F9FBFF"/>
<path d="M138.68 137.423C138.68 137.423 137.836 140.191 135.864 140.487C133.891 140.783 132.191 141.078 131.626 139.146C131.06 137.214 131.626 134.994 135.299 134.689C138.972 134.384 138.68 137.423 138.68 137.423Z" fill="#F9FBFF"/>
<path d="M135.015 146.853C135.015 146.853 133.038 147.71 132.472 146.057C131.907 144.403 131.906 142.465 133.885 141.337C135.864 140.209 138.115 140.464 138.678 142.942C139.24 145.421 136.71 146.555 135.015 146.853Z" fill="#F9FBFF"/>
<path d="M140.088 148.163C140.642 149.059 141.211 151.456 139.526 152.585C137.317 154.064 136.151 154.573 135.016 153.485C133.881 152.396 132.606 149.261 134.452 147.685C136.43 146.003 138.84 146.146 140.088 148.163Z" fill="#F9FBFF"/>
<path d="M139.852 153.479C140.083 153.441 140.319 153.451 140.546 153.509C140.772 153.566 140.984 153.671 141.166 153.815C141.466 154.058 141.679 154.389 141.773 154.759C142.054 155.857 140.088 157.822 138.401 158.404C136.714 158.986 134.772 157.115 136.149 155.405C137.184 154.118 137.982 153.77 139.852 153.479Z" fill="#F9FBFF"/>
<path d="M143.453 157.762C143.453 157.762 144.293 159.674 143.173 161.072C142.053 162.47 141.213 163.31 139.805 162.792C138.398 162.274 136.991 160.363 138.68 158.951C140.37 157.54 142.332 156.404 143.453 157.762Z" fill="#F9FBFF"/>
<path d="M145.258 161.269C145.408 161.303 145.549 161.372 145.666 161.472C145.783 161.571 145.874 161.697 145.932 161.838C146.136 162.332 146.222 162.866 146.183 163.398C146.143 163.931 145.98 164.446 145.705 164.906C144.606 166.821 144.054 167.373 142.681 166.593C141.309 165.812 140.753 165.011 141.03 164.193C141.308 163.375 142.681 161.995 143.507 161.438C144.034 161.084 144.785 161.164 145.258 161.269Z" fill="#F9FBFF"/>
<path d="M148.933 168.623C148.933 168.623 148.353 170.066 146.61 168.962C144.867 167.858 144.282 167.582 144.864 166.711C145.446 165.839 146.61 163.811 148.353 164.06C150.096 164.309 150.094 166.881 148.933 168.623Z" fill="#F9FBFF"/>
<path d="M152.659 165.278C153.493 165.259 153.771 165.803 154.048 166.892C154.326 167.982 154.326 170.176 154.048 170.73C153.771 171.285 152.659 171.035 151.548 170.79C150.437 170.545 149.32 170.294 149.32 169.744C149.32 169.195 149.824 165.338 152.659 165.278Z" fill="#F9FBFF"/>
<path opacity="0.86" d="M127.123 178.746C126.123 178.744 125.166 178.352 124.46 177.655C123.754 176.958 123.357 176.012 123.357 175.027V89.8097C123.358 89.0102 123.666 88.2408 124.219 87.6558C124.771 87.0708 125.528 86.7135 126.336 86.6557H126.351L180.233 85.1896C180.952 85.17 181.667 85.2927 182.337 85.5503C183.007 85.808 183.618 86.1954 184.134 86.6897C184.649 87.184 185.059 87.7752 185.339 88.4283C185.619 89.0815 185.763 89.7833 185.764 90.4923L185.804 170.5C185.812 172.191 185.149 173.819 183.956 175.036C182.764 176.252 181.137 176.961 179.422 177.011L127.253 178.741L127.123 178.746ZM126.379 87.3435C125.747 87.3901 125.157 87.67 124.725 88.1272C124.294 88.5844 124.053 89.1852 124.052 89.8097V175.027C124.052 175.434 124.135 175.836 124.296 176.211C124.457 176.585 124.693 176.924 124.99 177.207C125.286 177.489 125.637 177.71 126.022 177.857C126.407 178.003 126.818 178.071 127.23 178.058L179.4 176.328C180.935 176.285 182.392 175.651 183.459 174.562C184.527 173.473 185.12 172.016 185.112 170.502L185.071 90.4944C185.071 89.8765 184.946 89.265 184.702 88.6958C184.458 88.1267 184.101 87.6115 183.652 87.1808C183.202 86.7501 182.67 86.4126 182.086 86.1882C181.503 85.9638 180.879 85.857 180.253 85.8743L126.379 87.3435Z" fill="#F9FBFF"/>
<g opacity="0.61">
<path opacity="0.61" d="M50.0351 127.481L112.454 126.751C112.742 126.75 113.027 126.69 113.291 126.574C113.554 126.458 113.79 126.288 113.983 126.077C114.175 125.865 114.321 125.616 114.409 125.345C114.498 125.074 114.528 124.788 114.497 124.505L114.477 124.272C114.42 123.677 114.14 123.125 113.693 122.721C113.246 122.318 112.663 122.092 112.056 122.089L49.8493 122.848C49.5609 122.852 49.2763 122.913 49.0124 123.028C48.7485 123.142 48.5108 123.309 48.3134 123.516C48.1161 123.723 47.9632 123.968 47.8638 124.235C47.7644 124.502 47.7207 124.786 47.7351 125.07L47.7434 125.302C47.765 125.887 48.0159 126.441 48.4433 126.847C48.8707 127.254 49.4413 127.481 50.0351 127.481Z" fill="#F9FBFF"/>
<path opacity="0.61" d="M113.095 134.273L50.3346 134.96C50.0422 134.964 49.7537 135.027 49.4864 135.144C49.2192 135.261 48.9787 135.43 48.7795 135.641C48.5803 135.852 48.4266 136.101 48.3275 136.372C48.2283 136.644 48.186 136.932 48.2028 137.22L48.2111 137.456C48.2586 138.694 49.2945 139.694 50.5234 139.676L113.499 139.018C114.745 139.004 115.666 137.982 115.563 136.736L115.542 136.499C115.43 135.255 114.336 134.259 113.095 134.273Z" fill="#F9FBFF"/>
<path opacity="0.61" d="M50.2751 154.051L112.695 153.32C112.983 153.32 113.268 153.26 113.532 153.144C113.795 153.028 114.031 152.858 114.224 152.647C114.416 152.435 114.562 152.186 114.65 151.915C114.739 151.644 114.769 151.358 114.738 151.076L114.717 150.843C114.66 150.248 114.381 149.695 113.934 149.291C113.487 148.888 112.904 148.663 112.298 148.659L50.0945 149.417C49.8059 149.421 49.5211 149.482 49.2571 149.597C48.9931 149.712 48.7552 149.879 48.5578 150.086C48.3604 150.294 48.2074 150.538 48.108 150.806C48.0086 151.073 47.9648 151.357 47.9793 151.641L47.9885 151.872C48.0101 152.456 48.2603 153.01 48.6866 153.416C49.1129 153.822 49.6822 154.05 50.2751 154.051Z" fill="#F9FBFF"/>
<path opacity="0.61" d="M113.335 160.839L50.5745 161.526C50.2823 161.531 49.9941 161.594 49.7272 161.711C49.4603 161.829 49.2201 161.998 49.0211 162.209C48.8221 162.42 48.6683 162.669 48.5689 162.94C48.4695 163.211 48.4266 163.499 48.4428 163.786L48.4521 164.021C48.4995 165.26 49.5345 166.26 50.7644 166.241L113.739 165.583C114.986 165.57 115.906 164.547 115.803 163.302L115.782 163.064C115.67 161.821 114.576 160.826 113.335 160.839Z" fill="#F9FBFF"/>
<path opacity="0.61" d="M49.5019 102.58L111.921 101.848C112.209 101.848 112.494 101.788 112.758 101.672C113.021 101.556 113.257 101.387 113.449 101.175C113.642 100.963 113.787 100.714 113.876 100.443C113.965 100.173 113.994 99.8867 113.964 99.6039L113.944 99.3699C113.887 98.7751 113.607 98.2225 113.16 97.8192C112.713 97.4158 112.13 97.1904 111.524 97.1865L49.3161 97.9455C49.0277 97.9496 48.7431 98.0111 48.4793 98.1261C48.2155 98.2411 47.978 98.4074 47.7808 98.615C47.5836 98.8226 47.4309 99.0673 47.3318 99.3344C47.2327 99.6015 47.1892 99.8855 47.204 100.17L47.2133 100.401C47.2349 100.985 47.4853 101.539 47.9121 101.945C48.3388 102.351 48.9086 102.579 49.5019 102.58Z" fill="#F9FBFF"/>
<path opacity="0.61" d="M112.562 109.37L49.8014 110.057C49.509 110.061 49.2205 110.124 48.9532 110.241C48.6859 110.358 48.4455 110.527 48.2463 110.738C48.0471 110.949 47.8934 111.198 47.7942 111.469C47.6951 111.74 47.6527 112.029 47.6696 112.317L47.6779 112.553C47.7264 113.791 48.7613 114.791 49.9902 114.773L112.966 114.114C114.212 114.101 115.133 113.079 115.03 111.832L115.009 111.595C114.898 110.352 113.803 109.357 112.562 109.37Z" fill="#F9FBFF"/>
</g>
<path d="M134.289 193.88H130.477V200.715H134.289V193.88Z" fill="url(#paint7_linear)"/>
<path d="M166.098 192.582H162.285V199.417H166.098V192.582Z" fill="url(#paint8_linear)"/>
<path d="M114.545 146.099L81 137.01L82.133 133.223L116.081 142.312L114.545 146.099Z" fill="#4972A3"/>
<path d="M171.262 193.062C171.262 193.898 170.654 194.577 169.904 194.577H116.926C116.176 194.577 115.568 193.898 115.568 193.062C115.568 192.225 116.176 191.547 116.926 191.547H169.904C170.654 191.547 171.262 192.225 171.262 193.062Z" fill="#4972A3"/>
<path d="M116.116 146.036H116.07C115.221 146.036 114.533 146.714 114.533 147.551V270.284C114.533 271.121 115.221 271.799 116.07 271.799H116.116C116.965 271.799 117.652 271.121 117.652 270.284V147.551C117.652 146.714 116.965 146.036 116.116 146.036Z" fill="url(#paint9_linear)"/>
<path d="M37.2734 240.648L68.7702 263.376L82.1324 249.822L50.55 236.004L37.2734 240.648Z" fill="#A4C5EE"/>
<path d="M96.2706 220.67L26.9427 219.281C26.9427 219.281 26.3762 233.364 28.3873 238.522C30.3983 243.679 48.3213 245.266 52.9449 238.522C55.5245 234.757 59.8654 231.741 63.1931 229.804C65.8627 228.224 68.971 227.517 72.073 227.784L105.173 230.588V227.414L96.2706 220.67Z" fill="url(#paint10_linear)"/>
<path d="M47.2355 231.407C48.0012 228.208 45.9921 225.003 42.7481 224.248C39.5041 223.493 36.2536 225.474 35.4879 228.673C34.7222 231.872 36.7314 235.077 39.9754 235.832C43.2194 236.587 46.4699 234.606 47.2355 231.407Z" fill="#A4C5EE"/>
<path d="M44.35 234.385C46.757 232.778 47.3872 229.551 45.7575 227.177C44.1278 224.804 40.8553 224.183 38.4482 225.79C36.0412 227.397 35.411 230.623 37.0407 232.997C38.6704 235.37 41.9429 235.991 44.35 234.385Z" fill="#A4C5EE"/>
<path d="M136.39 234.749C135.763 233.501 109.911 219.511 101.586 215.029C99.9077 214.125 98.0298 213.641 96.1173 213.62L39.2107 212.895C38.4778 212.886 37.7599 212.689 37.1269 212.325C36.494 211.961 35.9676 211.441 35.5993 210.816L16.6899 178.747L11.6164 160.611C11.2523 159.311 10.3852 158.203 9.20154 157.527C8.0179 156.85 6.61229 156.659 5.28708 156.994L4.75982 157.127C3.4343 157.462 2.29526 158.297 1.58781 159.452C0.880357 160.607 0.661064 161.99 0.977117 163.303L4.8888 179.541L25.2077 219.862C25.5512 220.543 26.0769 221.12 26.728 221.528C27.3791 221.937 28.1311 222.162 28.9027 222.181L91.6495 223.648C93.3316 223.687 94.9855 224.083 96.4991 224.808L128.361 240.061C129.41 240.562 130.586 240.748 131.742 240.596C132.898 240.444 133.983 239.96 134.862 239.205C136.232 238.035 137.259 236.478 136.39 234.749Z" fill="url(#paint11_linear)"/>
<path d="M67.0441 196.825C66.5225 196.352 65.9048 195.992 65.2319 195.772C64.5589 195.551 63.8461 195.474 63.1407 195.545L23.5709 199.508C22.8486 199.582 21.9922 200.187 21.9922 200.907V201.638C21.9922 202.037 22.4627 202.418 22.765 202.686C23.0674 202.953 23.6194 203.079 24.0228 203.036L60.1514 199.091C60.6326 199.039 61.1196 199.091 61.5784 199.243C62.0373 199.395 62.457 199.644 62.8084 199.972C63.1552 200.299 63.4249 200.697 63.5982 201.138C63.7715 201.579 63.8443 202.053 63.8114 202.525L62.8115 215.556C63.9465 217.867 65.3746 217.81 66.4941 217.205C67.0539 216.902 67.5227 216.458 67.8537 215.92C68.1846 215.381 68.3659 214.766 68.3793 214.137L68.6568 200.555C68.6708 199.856 68.5343 199.163 68.2563 198.52C67.9783 197.877 67.5651 197.299 67.0441 196.825Z" fill="#A4C5EE"/>
<path d="M118.042 275.898H118.022C117.609 275.898 117.212 276.083 116.922 275.797C116.632 275.51 116.474 275.288 116.483 274.881C116.613 268.385 110.963 260.274 106.212 254.431C102.555 249.933 97.0284 247.543 91.179 247.543H86.4779C83.3608 247.543 80.2869 248.144 77.5299 249.573L25.3398 276.158C25.1189 276.272 24.8734 275.908 24.6247 275.908H14.0401C12.0962 275.908 10.5195 277.877 10.5195 279.794C10.5195 281.383 11.8258 283.085 13.4365 283.085H118.645C120.256 283.085 121.562 281.383 121.562 279.794C121.562 277.867 119.986 275.898 118.042 275.898Z" fill="#0084BC"/>
<g style="mix-blend-mode:soft-light">
<path d="M116.266 277.607H106.56C106.514 277.607 106.47 277.589 106.437 277.557C106.405 277.525 106.387 277.482 106.387 277.437C106.387 277.391 106.405 277.348 106.437 277.316C106.47 277.284 106.514 277.266 106.56 277.266H116.266C116.311 277.266 116.356 277.284 116.388 277.316C116.421 277.348 116.439 277.391 116.439 277.437C116.439 277.482 116.421 277.525 116.388 277.557C116.356 277.589 116.311 277.607 116.266 277.607Z" fill="#F9FBFF"/>
</g>
<g style="mix-blend-mode:soft-light">
<path d="M100.323 277.607H76.7554C76.7094 277.607 76.6653 277.589 76.6328 277.557C76.6003 277.525 76.582 277.482 76.582 277.437C76.582 277.391 76.6003 277.348 76.6328 277.316C76.6653 277.284 76.7094 277.266 76.7554 277.266H100.323C100.369 277.266 100.414 277.284 100.446 277.316C100.479 277.348 100.497 277.391 100.497 277.437C100.497 277.482 100.479 277.525 100.446 277.557C100.414 277.589 100.369 277.607 100.323 277.607Z" fill="#F9FBFF"/>
</g>
<g style="mix-blend-mode:soft-light">
<path d="M66.7048 277.607H28.5796C28.5336 277.607 28.4895 277.589 28.457 277.557C28.4245 277.525 28.4062 277.482 28.4062 277.437C28.4062 277.391 28.4245 277.348 28.457 277.316C28.4895 277.284 28.5336 277.266 28.5796 277.266H66.7048C66.7508 277.266 66.7949 277.284 66.8274 277.316C66.8599 277.348 66.8782 277.391 66.8782 277.437C66.8782 277.482 66.8599 277.525 66.8274 277.557C66.7949 277.589 66.7508 277.607 66.7048 277.607Z" fill="#F9FBFF"/>
</g>
<path d="M115.658 140.23H115.144C113.659 140.23 112.455 141.418 112.455 142.882V155.008C112.455 156.473 113.659 157.66 115.144 157.66H115.658C117.143 157.66 118.347 156.473 118.347 155.008V142.882C118.347 141.418 117.143 140.23 115.658 140.23Z" fill="url(#paint12_linear)"/>
<path d="M115.658 186.704H115.144C113.659 186.704 112.455 187.891 112.455 189.355V201.482C112.455 202.946 113.659 204.133 115.144 204.133H115.658C117.143 204.133 118.347 202.946 118.347 201.482V189.355C118.347 187.891 117.143 186.704 115.658 186.704Z" fill="url(#paint13_linear)"/>
<path d="M134.936 190.465H130.866C129.31 190.465 128.049 191.708 128.049 193.242V193.497C128.049 195.031 129.31 196.274 130.866 196.274H134.936C136.492 196.274 137.753 195.031 137.753 193.497V193.242C137.753 191.708 136.492 190.465 134.936 190.465Z" fill="url(#paint14_linear)"/>
<path d="M166.477 190.465H162.407C160.851 190.465 159.59 191.708 159.59 193.242V193.497C159.59 195.031 160.851 196.274 162.407 196.274H166.477C168.033 196.274 169.294 195.031 169.294 193.497V193.242C169.294 191.708 168.033 190.465 166.477 190.465Z" fill="url(#paint15_linear)"/>
<path d="M90.2554 147.844C91.2377 149.73 90.6609 151.954 89.074 152.758C87.486 153.563 85.316 152.729 84.3337 150.844L71.7454 126.68C70.762 124.795 71.3388 122.571 72.9268 121.766C74.5148 120.963 76.6847 121.795 77.667 123.681L90.2554 147.844Z" fill="#4972A3"/>
<path d="M71.3738 125.535L70.9001 127.36C70.6676 128.285 70.7728 129.261 71.1973 130.118L80.7841 149.992C81.4899 151.445 82.9798 152.535 84.6143 152.535H85.3541L71.3738 125.535Z" fill="#FF928E"/>
<path d="M166.12 199.007H131.569C130.391 199.007 129.436 199.949 129.436 201.111V222.534C129.436 223.696 130.391 224.638 131.569 224.638H166.12C167.299 224.638 168.254 223.696 168.254 222.534V201.111C168.254 199.949 167.299 199.007 166.12 199.007Z" fill="#09015D"/>
<path d="M164.572 200.031H132.882C131.804 200.031 130.818 200.947 130.818 201.955V220.19C130.818 221.197 131.802 221.904 132.882 221.904H164.572C165.65 221.904 166.519 221.197 166.519 220.19V201.955C166.51 201.448 166.303 200.964 165.939 200.605C165.576 200.247 165.086 200.041 164.572 200.031Z" fill="url(#paint16_linear)"/>
<path d="M240.984 272.645C240.984 272.645 241.628 276.237 241.944 279.793C241.972 280.122 241.932 280.454 241.827 280.768C241.722 281.082 241.553 281.371 241.331 281.619C241.11 281.867 240.839 282.069 240.537 282.211C240.234 282.353 239.906 282.434 239.571 282.448C234.768 282.644 224.497 283.027 220.81 282.866C220.681 282.86 220.556 282.823 220.445 282.76C220.333 282.696 220.239 282.607 220.169 282.5C220.1 282.394 220.057 282.272 220.045 282.146C220.032 282.019 220.051 281.892 220.099 281.774C220.271 281.348 220.604 281.003 221.027 280.813L237.992 273.123L240.984 272.645Z" fill="url(#paint17_linear)"/>
<path d="M241.51 270.534L240.995 274.831C240.995 274.831 238.023 276.195 235.992 274.659L237.223 269.871L241.51 270.534Z" fill="#EDC18B"/>
<path d="M241.123 189.757C241.346 190.876 242.321 245.748 236.377 270.336C236.328 270.53 236.351 270.734 236.442 270.912C236.533 271.09 236.686 271.23 236.873 271.307C238.422 271.897 240.062 272.225 241.722 272.277C242.045 272.288 242.362 272.192 242.624 272.005C242.885 271.818 243.076 271.551 243.167 271.246C244.867 265.541 253.015 236.959 254.078 209.652C255.265 179.141 254.078 208.614 254.078 208.614L253.381 189.754L241.123 189.757Z" fill="#4972A3"/>
<path d="M260.504 274.52C260.504 274.52 261.529 276.333 262.52 281.152C262.563 281.357 262.562 281.569 262.517 281.773C262.471 281.978 262.383 282.171 262.257 282.34C262.131 282.508 261.971 282.649 261.787 282.753C261.602 282.857 261.398 282.921 261.186 282.942C259.6 283.095 257.162 283.293 255.202 283.279C254.989 283.279 254.779 283.234 254.585 283.147C254.391 283.061 254.218 282.935 254.076 282.778C253.935 282.621 253.829 282.437 253.765 282.237C253.701 282.037 253.681 281.825 253.705 281.617C253.922 279.859 254.597 276.973 256.681 274.724L260.504 274.52Z" fill="url(#paint18_linear)"/>
<path d="M261.403 268.994L260.194 275.492C260.194 275.492 259 276.368 256.637 275.733L257.214 268.742L261.403 268.994Z" fill="#EDC18B"/>
<path d="M264.666 191.437C269.53 220.387 263.611 262.988 261.614 271.327C261.555 271.576 261.423 271.803 261.233 271.979C261.044 272.155 260.806 272.271 260.549 272.314C259.658 272.46 258.191 272.578 256.744 272.164C256.501 272.094 256.286 271.951 256.13 271.754C255.974 271.557 255.885 271.317 255.875 271.067C255.607 264.326 256.09 222.944 251.557 206.587C251.327 205.758 250.814 205.034 250.103 204.537L241.306 198.369L240.631 188.398L264.666 191.437Z" fill="#4972A3"/>
<path d="M233.668 136.589C248.247 136.35 264.333 140.363 264.333 140.363C268.679 165.366 265.093 194.205 265.093 194.205C253.806 197.124 241.074 192.42 241.074 192.42C239.199 181.969 230.447 152.558 230.447 152.558C223.327 151.687 224.875 145.923 220.038 143.243C223.724 139.031 218.047 141.073 218.8 137.905C223.96 139.484 229.171 136.662 233.668 136.589Z" fill="#4972A3"/>
<path d="M190.604 115.413C192.036 113.708 193.849 114.515 193.849 114.515C195.994 123.451 207.244 130.692 218.8 134.237C218.046 137.407 216.309 142.767 212.622 146.981C193.442 136.347 190.604 115.413 190.604 115.413Z" fill="#09015D"/>
<path d="M190.952 115.847C190.802 116.317 192.537 117.032 193.559 115.112C193.595 114.196 194.163 110.246 193.604 109.495C190.633 105.501 184.871 100.492 184.871 100.492C183.897 101.441 184.7 102.372 184.7 102.372L187.495 105.242C186.91 106.283 186.197 107.164 185.863 108.423C185.618 109.385 185.758 110.403 186.254 111.266C186.744 112.137 187.413 113.27 188.046 114.157C189.244 115.835 190.952 115.847 190.952 115.847Z" fill="#EDC18B"/>
<path d="M188.718 107.105L191.264 109.235L192.064 111.355L189.794 113.839C189.794 113.839 189.03 109.633 188.463 108.722C187.895 107.812 188.188 107.37 188.718 107.105Z" fill="#EDC18B"/>
<path d="M258.744 154.282L264.336 140.363C264.336 140.363 277.956 149.486 280.193 161.053C277.62 161.24 272.938 161.9 268.355 164.181C267.348 158.72 258.744 154.282 258.744 154.282Z" fill="#09015D"/>
<path d="M248.437 124.918L253.08 138.144C253.118 138.25 253.117 138.366 253.077 138.471C253.037 138.576 252.96 138.664 252.861 138.719C251.596 139.408 247.04 141.401 241.551 137.968C241.267 137.794 241.026 137.56 240.845 137.283C240.664 137.006 240.547 136.693 240.502 136.366L239 124.917L248.437 124.918Z" fill="#EDC18B"/>
<path d="M257.244 138.604L251.708 133.969L243.428 153.901L249.467 233.114L268.321 233.67C268.387 233.672 268.452 233.661 268.514 233.636C268.575 233.612 268.63 233.576 268.677 233.53C268.724 233.484 268.76 233.429 268.785 233.368C268.809 233.308 268.82 233.243 268.817 233.178L266.185 156.973C266.185 156.973 266.113 140.507 264.338 140.095C262.563 139.683 257.244 138.604 257.244 138.604Z" fill="#09015D"/>
<path d="M243.424 153.153L240.217 134.242L237.472 136.621L231.685 136.566L230.447 152.562L238.702 234.418C238.708 234.482 238.728 234.544 238.759 234.6C238.791 234.657 238.834 234.706 238.885 234.746C238.936 234.785 238.995 234.814 239.058 234.831C239.121 234.847 239.187 234.851 239.252 234.842L249.467 233.389L243.424 153.153Z" fill="#09015D"/>
<path d="M232.446 136.584C232.446 136.584 223.146 135.952 217.777 133.914C211.472 144.964 209.832 145.288 209.832 145.288C209.832 145.288 217.468 151.968 230.446 152.558C243.424 153.149 232.446 136.584 232.446 136.584Z" fill="#09015D"/>
<path d="M239.655 154.01V155.949L232.723 155.517V153.364L239.655 154.01Z" fill="url(#paint19_linear)"/>
<path d="M243.875 158.733C243.836 158.733 243.799 158.72 243.768 158.697C243.738 158.674 243.716 158.641 243.706 158.604C243.697 158.567 243.7 158.528 243.716 158.493C243.731 158.458 243.758 158.429 243.792 158.411L250.078 155.083L250.959 149.243C250.964 149.208 250.981 149.175 251.006 149.15C251.031 149.124 251.064 149.107 251.1 149.101L253.457 148.688L255.88 140.924C255.887 140.903 255.898 140.883 255.913 140.866C255.927 140.848 255.945 140.834 255.965 140.824C255.985 140.813 256.007 140.807 256.03 140.805C256.053 140.803 256.075 140.805 256.097 140.812C256.119 140.819 256.139 140.83 256.156 140.844C256.174 140.858 256.188 140.876 256.199 140.896C256.209 140.916 256.216 140.937 256.218 140.96C256.22 140.982 256.217 141.004 256.211 141.026L253.757 148.889C253.747 148.919 253.73 148.946 253.706 148.967C253.682 148.988 253.653 149.002 253.622 149.007L251.283 149.414L250.409 155.214C250.405 155.24 250.395 155.265 250.379 155.287C250.364 155.309 250.343 155.327 250.319 155.34L243.957 158.708C243.932 158.723 243.904 158.731 243.875 158.733Z" fill="#91B3FA"/>
<path d="M242.359 156.803C242.336 156.803 242.314 156.797 242.294 156.786C242.274 156.775 242.258 156.758 242.246 156.739L238.881 150.922C238.867 150.897 238.861 150.867 238.867 150.838L239.41 147.617L236.728 146.206C236.705 146.194 236.687 146.177 236.675 146.155C236.662 146.133 236.657 146.108 236.659 146.084L237.348 136.607C237.348 136.59 237.352 136.573 237.359 136.557C237.366 136.541 237.376 136.526 237.389 136.515C237.402 136.503 237.418 136.494 237.435 136.488C237.451 136.482 237.469 136.48 237.487 136.481C237.504 136.482 237.521 136.487 237.537 136.495C237.553 136.503 237.567 136.514 237.578 136.527C237.589 136.541 237.598 136.556 237.603 136.573C237.608 136.59 237.609 136.607 237.607 136.625L236.924 146.019L239.62 147.434C239.644 147.446 239.663 147.466 239.676 147.49C239.688 147.514 239.692 147.541 239.688 147.568L239.136 150.835L242.477 156.612C242.488 156.631 242.495 156.653 242.495 156.676C242.495 156.698 242.489 156.72 242.477 156.74C242.466 156.759 242.449 156.775 242.43 156.786C242.41 156.797 242.387 156.803 242.365 156.803H242.359Z" fill="#91B3FA"/>
<path d="M246.824 166.975C246.824 166.975 262.114 175.495 267.273 168.22C268.344 166.709 268.6 165.207 268.336 163.777C272.919 161.495 277.601 160.835 280.174 160.648C280.849 164.135 280.492 167.845 278.414 171.593C269.378 187.892 244.801 170.692 244.801 170.692L246.824 166.975Z" fill="#09015D"/>
<path d="M248.661 177.747L240.316 149.015C240.27 148.855 240.177 148.712 240.048 148.605C239.919 148.497 239.761 148.43 239.594 148.411C238.082 148.237 233.702 147.749 228.644 147.328C222.556 146.819 215.476 146.412 211.248 146.758C211.11 146.769 210.976 146.813 210.858 146.887C210.741 146.96 210.643 147.061 210.574 147.18C210.505 147.3 210.467 147.434 210.463 147.571C210.459 147.708 210.489 147.845 210.551 147.968C212.955 152.764 222.845 172.274 227.797 178.664C227.878 178.769 227.982 178.853 228.101 178.911C228.221 178.969 228.352 178.999 228.485 178.998L247.845 178.82C247.977 178.819 248.107 178.788 248.224 178.73C248.342 178.671 248.444 178.587 248.523 178.483C248.602 178.379 248.655 178.259 248.679 178.131C248.703 178.004 248.697 177.872 248.661 177.747Z" fill="#977676"/>
<path d="M227.778 144.839L221.728 143.845C221.655 143.833 221.579 143.84 221.509 143.865C221.438 143.89 221.376 143.933 221.327 143.989C221.279 144.045 221.245 144.112 221.231 144.185C221.216 144.257 221.221 144.332 221.244 144.402L221.843 146.191C221.869 146.268 221.915 146.335 221.978 146.387C222.041 146.438 222.117 146.471 222.198 146.481L228.02 147.248C228.089 147.258 228.16 147.25 228.226 147.226C228.292 147.203 228.352 147.163 228.399 147.112C228.446 147.061 228.48 146.999 228.498 146.932C228.515 146.864 228.516 146.794 228.5 146.727L228.129 145.164C228.109 145.082 228.066 145.007 228.003 144.949C227.941 144.891 227.863 144.853 227.778 144.839Z" fill="#7D97F4"/>
<path d="M232.309 149.894L231.811 147.334C231.787 147.209 231.722 147.095 231.626 147.009C231.531 146.923 231.41 146.87 231.282 146.857L219.063 145.636C218.967 145.626 218.871 145.64 218.782 145.674C218.693 145.709 218.613 145.764 218.55 145.836C218.487 145.907 218.443 145.992 218.42 146.084C218.397 146.175 218.397 146.271 218.419 146.363L219.196 149.553C219.226 149.677 219.296 149.788 219.396 149.87C219.496 149.951 219.62 149.999 219.749 150.006L231.689 150.598C231.78 150.602 231.871 150.586 231.955 150.551C232.039 150.516 232.114 150.462 232.173 150.395C232.233 150.327 232.276 150.246 232.3 150.16C232.324 150.073 232.327 149.982 232.309 149.894Z" fill="#91B3FA"/>
<path d="M246.646 170.812C246.646 170.812 247.808 166.099 247.34 164.428C246.871 162.756 245.962 160.605 242.934 161.083C239.905 161.562 236.33 162.819 236.33 162.819C236.33 162.819 236.511 164.996 238.812 164.294L237.385 165.383C237.385 165.383 237.591 167.127 239.533 166.197L238.206 167.641C238.206 167.641 239.041 169.073 240.471 168.154C241.901 167.236 242.59 171.38 246.646 170.812Z" fill="#EDC18B"/>
<path d="M261.216 171.177C256.581 171.177 250.698 168.968 250.381 168.847C250.302 168.821 248.272 168.127 247.506 166.649C247.495 166.629 247.489 166.608 247.487 166.585C247.485 166.563 247.488 166.54 247.495 166.519C247.502 166.498 247.513 166.478 247.528 166.461C247.543 166.444 247.561 166.43 247.581 166.419C247.622 166.399 247.669 166.396 247.713 166.41C247.757 166.424 247.793 166.454 247.814 166.494C248.516 167.847 250.479 168.518 250.497 168.529C250.6 168.569 260.671 172.349 264.755 170.139C264.775 170.126 264.797 170.118 264.821 170.114C264.844 170.111 264.868 170.112 264.891 170.117C264.914 170.123 264.936 170.134 264.955 170.148C264.973 170.162 264.989 170.18 265 170.201C265.012 170.221 265.019 170.244 265.021 170.267C265.023 170.291 265.02 170.314 265.013 170.337C265.006 170.359 264.994 170.379 264.978 170.397C264.962 170.414 264.943 170.428 264.921 170.438C263.931 170.97 262.631 171.177 261.216 171.177Z" fill="#91B3FA"/>
<path d="M266.731 178.768H266.724C254.989 178.369 248.282 173.05 248.216 172.996C248.197 172.982 248.181 172.965 248.169 172.945C248.157 172.925 248.149 172.903 248.146 172.879C248.143 172.856 248.145 172.833 248.151 172.81C248.158 172.788 248.169 172.767 248.184 172.749C248.199 172.731 248.218 172.716 248.239 172.705C248.26 172.695 248.283 172.689 248.307 172.687C248.33 172.685 248.354 172.689 248.376 172.697C248.398 172.704 248.419 172.717 248.436 172.733C248.501 172.786 255.125 178.032 266.737 178.43C266.76 178.431 266.782 178.435 266.803 178.444C266.824 178.453 266.843 178.466 266.858 178.482C266.874 178.498 266.887 178.518 266.895 178.538C266.903 178.559 266.907 178.582 266.907 178.604C266.907 178.627 266.902 178.649 266.893 178.669C266.884 178.69 266.87 178.708 266.854 178.724C266.838 178.74 266.818 178.752 266.797 178.76C266.776 178.768 266.753 178.772 266.731 178.772V178.768Z" fill="#91B3FA"/>
<path d="M237.503 110.123C237.353 110.326 232.646 126.503 232.646 126.503L242.068 128.956L248.838 114.284C248.838 114.284 240.027 106.665 237.503 110.123Z" fill="#EDC18B"/>
<path d="M245.095 115.371C245.209 115.549 245.28 115.751 245.302 115.961C245.325 116.17 245.299 116.382 245.225 116.581L242.319 124.462C242.275 124.581 242.215 124.694 242.14 124.796C241.72 125.364 240.24 127.064 238.521 125.464C237.055 124.1 235.69 122.866 234.414 122.494C234.236 122.443 234.05 122.428 233.867 122.449C233.683 122.47 233.506 122.527 233.344 122.616C233.183 122.704 233.041 122.824 232.927 122.967C232.813 123.11 232.729 123.275 232.679 123.45C232.243 124.969 231.427 128.052 231.091 130.89C231.051 131.235 231.144 131.582 231.352 131.862C231.561 132.142 231.869 132.333 232.215 132.398C234.096 132.761 237.792 133.363 240.933 133.194C241.185 133.18 241.429 133.098 241.638 132.958C241.847 132.818 242.014 132.624 242.121 132.398C243.086 130.363 245.819 124.69 246.84 123.205C247.789 121.824 250.046 121.845 251.079 121.934C251.272 121.952 251.467 121.929 251.651 121.869C251.836 121.808 252.005 121.711 252.149 121.582C253.026 120.804 254.469 119.004 252.396 116.822C252.15 116.556 252.02 116.206 252.031 115.847C252.043 115.488 252.196 115.147 252.459 114.898C253.425 113.968 254.362 112.389 252.787 110.421C251.191 108.432 249.081 108.629 247.705 109.069C247.095 109.263 246.398 109.062 246.046 108.535C245.958 108.402 245.836 108.293 245.693 108.221C245.55 108.148 245.39 108.113 245.228 108.12C245.048 108.123 244.869 108.091 244.701 108.025C244.534 107.959 244.381 107.861 244.253 107.736C244.124 107.612 244.021 107.463 243.951 107.299C243.881 107.136 243.845 106.96 243.845 106.782C243.845 105.483 243.34 103.892 241.098 103.181C236.984 101.877 234.374 105.784 234.092 108.713C233.81 111.642 238.35 112.807 241.029 112.634C243 112.506 244.459 114.372 245.095 115.371Z" fill="#2B3582"/>
<path d="M245.74 126.106C245.74 126.106 246.454 121.019 248.605 120.792C250.755 120.565 252.829 122.318 250.668 125.16C247.977 128.689 245.74 126.106 245.74 126.106Z" fill="#EDC18B"/>
<path d="M236.782 110.638C236.753 110.638 236.725 110.631 236.7 110.618C236.675 110.605 236.653 110.585 236.638 110.562C236.593 110.497 235.573 108.947 236.128 107.242C236.534 105.995 237.676 105.012 239.508 104.32C239.529 104.312 239.552 104.308 239.575 104.309C239.598 104.309 239.62 104.314 239.641 104.323C239.662 104.333 239.68 104.346 239.696 104.362C239.712 104.378 239.724 104.398 239.732 104.419C239.74 104.44 239.744 104.462 239.743 104.484C239.743 104.507 239.738 104.529 239.728 104.549C239.719 104.57 239.706 104.588 239.689 104.604C239.673 104.619 239.653 104.631 239.632 104.639C237.898 105.293 236.831 106.203 236.458 107.346C235.952 108.896 236.916 110.358 236.926 110.373C236.944 110.399 236.953 110.429 236.955 110.46C236.956 110.49 236.949 110.521 236.934 110.548C236.919 110.575 236.897 110.598 236.871 110.614C236.844 110.629 236.813 110.638 236.782 110.638Z" fill="#F9FBFF"/>
<defs>
<linearGradient id="paint0_linear" x1="303.215" y1="-136.533" x2="17.2998" y2="333.89" gradientUnits="userSpaceOnUse">
<stop stop-color="#E9605A"/>
<stop offset="1" stop-color="#E9605A"/>
</linearGradient>
<linearGradient id="paint1_linear" x1="180.502" y1="248.669" x2="211.263" y2="248.669" gradientUnits="userSpaceOnUse">
<stop stop-color="#FEBBBA"/>
<stop offset="1" stop-color="#FF928E"/>
</linearGradient>
<linearGradient id="paint2_linear" x1="2792.48" y1="14222.7" x2="2802.89" y2="14222.7" gradientUnits="userSpaceOnUse">
<stop stop-color="#FEBBBA"/>
<stop offset="1" stop-color="#FF928E"/>
</linearGradient>
<linearGradient id="paint3_linear" x1="32.8343" y1="146.947" x2="202.976" y2="146.947" gradientUnits="userSpaceOnUse">
<stop stop-color="#FF928E"/>
<stop offset="1" stop-color="#FE7062"/>
</linearGradient>
<linearGradient id="paint4_linear" x1="147.279" y1="-4.43541" x2="48.9444" y2="45.545" gradientUnits="userSpaceOnUse">
<stop stop-color="#09005D"/>
<stop offset="1" stop-color="#1A0F91"/>
</linearGradient>
<linearGradient id="paint5_linear" x1="107561" y1="58651.6" x2="112528" y2="79990.5" gradientUnits="userSpaceOnUse">
<stop stop-color="#09005D"/>
<stop offset="1" stop-color="#1A0F91"/>
</linearGradient>
<linearGradient id="paint6_linear" x1="167268" y1="764.986" x2="167268" y2="10187.9" gradientUnits="userSpaceOnUse">
<stop stop-color="#FF928E"/>
<stop offset="1" stop-color="#FE7062"/>
</linearGradient>
<linearGradient id="paint7_linear" x1="130.477" y1="197.297" x2="134.289" y2="197.297" gradientUnits="userSpaceOnUse">
<stop stop-color="#4F52FF"/>
<stop offset="1" stop-color="#4042E2"/>
</linearGradient>
<linearGradient id="paint8_linear" x1="162.285" y1="196" x2="166.098" y2="196" gradientUnits="userSpaceOnUse">
<stop stop-color="#4F52FF"/>
<stop offset="1" stop-color="#4042E2"/>
</linearGradient>
<linearGradient id="paint9_linear" x1="7048.65" y1="267024" x2="5593.11" y2="267045" gradientUnits="userSpaceOnUse">
<stop stop-color="#09005D"/>
<stop offset="1" stop-color="#1A0F91"/>
</linearGradient>
<linearGradient id="paint10_linear" x1="112594" y1="16114" x2="111356" y2="40310.7" gradientUnits="userSpaceOnUse">
<stop stop-color="#09005D"/>
<stop offset="1" stop-color="#1A0F91"/>
</linearGradient>
<linearGradient id="paint11_linear" x1="65015.4" y1="70057" x2="92435.4" y2="179331" gradientUnits="userSpaceOnUse">
<stop stop-color="#4972A3"/>
<stop offset="1" stop-color="#4042E2"/>
</linearGradient>
<linearGradient id="paint12_linear" x1="10176.3" y1="33354.1" x2="10512.8" y2="33354.1" gradientUnits="userSpaceOnUse">
<stop stop-color="#09005D"/>
<stop offset="1" stop-color="#1A0F91"/>
</linearGradient>
<linearGradient id="paint13_linear" x1="10176.3" y1="41362.6" x2="10512.8" y2="41362.6" gradientUnits="userSpaceOnUse">
<stop stop-color="#09005D"/>
<stop offset="1" stop-color="#1A0F91"/>
</linearGradient>
<linearGradient id="paint14_linear" x1="18182" y1="13797.9" x2="19094.7" y2="13797.9" gradientUnits="userSpaceOnUse">
<stop stop-color="#09005D"/>
<stop offset="1" stop-color="#1A0F91"/>
</linearGradient>
<linearGradient id="paint15_linear" x1="21179.7" y1="13797.9" x2="22092.5" y2="13797.9" gradientUnits="userSpaceOnUse">
<stop stop-color="#09005D"/>
<stop offset="1" stop-color="#1A0F91"/>
</linearGradient>
<linearGradient id="paint16_linear" x1="67550.4" y1="55215.1" x2="79901.7" y2="55215.1" gradientUnits="userSpaceOnUse">
<stop stop-color="#FF928E"/>
<stop offset="1" stop-color="#FE7062"/>
</linearGradient>
<linearGradient id="paint17_linear" x1="117288" y1="31797.7" x2="121792" y2="42259.4" gradientUnits="userSpaceOnUse">
<stop stop-color="#09005D"/>
<stop offset="1" stop-color="#1A0F91"/>
</linearGradient>
<linearGradient id="paint18_linear" x1="48211.2" y1="26104.8" x2="53481.6" y2="31900.3" gradientUnits="userSpaceOnUse">
<stop stop-color="#09005D"/>
<stop offset="1" stop-color="#1A0F91"/>
</linearGradient>
<linearGradient id="paint19_linear" x1="240.654" y1="157.933" x2="216.155" y2="140.051" gradientUnits="userSpaceOnUse">
<stop stop-color="#9CFFFB"/>
<stop offset="1" stop-color="#9BFFFA"/>
</linearGradient>
</defs>
</svg>
